<svg width="720" height="520" xmlns="http://www.w3.org/2000/svg" xmlns:xlink="http://www.w3.org/1999/xlink" version="1.1" baseProfile="full" viewBox="0 0 720 520">
<rect width="720" height="520" x="0" y="0" fill="none"></rect>
<path d="M72 450.5L648 450.5" fill="transparent" stroke="#E0E6F1" class="zr0-cls-4"></path>
<path d="M72 394.5L648 394.5" fill="transparent" stroke="#E0E6F1" class="zr0-cls-4"></path>
<path d="M72 338.5L648 338.5" fill="transparent" stroke="#E0E6F1" class="zr0-cls-4"></path>
<path d="M72 283.5L648 283.5" fill="transparent" stroke="#E0E6F1" class="zr0-cls-4"></path>
<path d="M72 227.5L648 227.5" fill="transparent" stroke="#E0E6F1" class="zr0-cls-4"></path>
<path d="M72 171.5L648 171.5" fill="transparent" stroke="#E0E6F1" class="zr0-cls-4"></path>
<path d="M72 115.5L648 115.5" fill="transparent" stroke="#E0E6F1" class="zr0-cls-4"></path>
<path d="M72 60.5L648 60.5" fill="transparent" stroke="#E0E6F1" class="zr0-cls-4"></path>
<path d="M72 450.5L648 450.5" fill="transparent" stroke="#6E7079" stroke-linecap="round" class="zr0-cls-4"></path>
<path d="M72.5 450L72.5 455" fill="transparent" stroke="#6E7079" class="zr0-cls-4"></path>
<path d="M101.5 450L101.5 455" fill="transparent" stroke="#6E7079" class="zr0-cls-4"></path>
<path d="M130.5 450L130.5 455" fill="transparent" stroke="#6E7079" class="zr0-cls-4"></path>
<path d="M160.5 450L160.5 455" fill="transparent" stroke="#6E7079" class="zr0-cls-4"></path>
<path d="M189.5 450L189.5 455" fill="transparent" stroke="#6E7079" class="zr0-cls-4"></path>
<path d="M219.5 450L219.5 455" fill="transparent" stroke="#6E7079" class="zr0-cls-4"></path>
<path d="M248.5 450L248.5 455" fill="transparent" stroke="#6E7079" class="zr0-cls-4"></path>
<path d="M277.5 450L277.5 455" fill="transparent" stroke="#6E7079" class="zr0-cls-4"></path>
<path d="M307.5 450L307.5 455" fill="transparent" stroke="#6E7079" class="zr0-cls-4"></path>
<path d="M336.5 450L336.5 455" fill="transparent" stroke="#6E7079" class="zr0-cls-4"></path>
<path d="M365.5 450L365.5 455" fill="transparent" stroke="#6E7079" class="zr0-cls-4"></path>
<path d="M395.5 450L395.5 455" fill="transparent" stroke="#6E7079" class="zr0-cls-4"></path>
<path d="M424.5 450L424.5 455" fill="transparent" stroke="#6E7079" class="zr0-cls-4"></path>
<path d="M454.5 450L454.5 455" fill="transparent" stroke="#6E7079" class="zr0-cls-4"></path>
<path d="M483.5 450L483.5 455" fill="transparent" stroke="#6E7079" class="zr0-cls-4"></path>
<path d="M512.5 450L512.5 455" fill="transparent" stroke="#6E7079" class="zr0-cls-4"></path>
<path d="M542.5 450L542.5 455" fill="transparent" stroke="#6E7079" class="zr0-cls-4"></path>
<path d="M571.5 450L571.5 455" fill="transparent" stroke="#6E7079" class="zr0-cls-4"></path>
<path d="M600.5 450L600.5 455" fill="transparent" stroke="#6E7079" class="zr0-cls-4"></path>
<path d="M630.5 450L630.5 455" fill="transparent" stroke="#6E7079" class="zr0-cls-4"></path>
<path d="M648.5 450L648.5 455" fill="transparent" stroke="#6E7079" class="zr0-cls-4"></path>
<text dominant-baseline="central" text-anchor="end" style="font-size:12px;font-family:sans-serif;" transform="translate(64 450)" fill="#6E7079">0</text>
<text dominant-baseline="central" text-anchor="end" style="font-size:12px;font-family:sans-serif;" transform="translate(64 394.2857)" fill="#6E7079">0.3</text>
<text dominant-baseline="central" text-anchor="end" style="font-size:12px;font-family:sans-serif;" transform="translate(64 338.5714)" fill="#6E7079">0.6</text>
<text dominant-baseline="central" text-anchor="end" style="font-size:12px;font-family:sans-serif;" transform="translate(64 282.8571)" fill="#6E7079">0.9</text>
<text dominant-baseline="central" text-anchor="end" style="font-size:12px;font-family:sans-serif;" transform="translate(64 227.1429)" fill="#6E7079">1.2</text>
<text dominant-baseline="central" text-anchor="end" style="font-size:12px;font-family:sans-serif;" transform="translate(64 171.4286)" fill="#6E7079">1.5</text>
<text dominant-baseline="central" text-anchor="end" style="font-size:12px;font-family:sans-serif;" transform="translate(64 115.7143)" fill="#6E7079">1.8</text>
<text dominant-baseline="central" text-anchor="end" style="font-size:12px;font-family:sans-serif;" transform="translate(64 60)" fill="#6E7079">2.1</text>
<text dominant-baseline="central" text-anchor="middle" style="font-size:12px;font-family:sans-serif;" y="6" transform="translate(72.8159 458)" fill="#6E7079">0</text>
<text dominant-baseline="central" text-anchor="middle" style="font-size:12px;font-family:sans-serif;" y="6" transform="translate(102.187 458)" fill="#6E7079">18</text>
<text dominant-baseline="central" text-anchor="middle" style="font-size:12px;font-family:sans-serif;" y="6" transform="translate(131.5581 458)" fill="#6E7079">36</text>
<text dominant-baseline="central" text-anchor="middle" style="font-size:12px;font-family:sans-serif;" y="6" transform="translate(160.9292 458)" fill="#6E7079">54</text>
<text dominant-baseline="central" text-anchor="middle" style="font-size:12px;font-family:sans-serif;" y="6" transform="translate(190.3003 458)" fill="#6E7079">72</text>
<text dominant-baseline="central" text-anchor="middle" style="font-size:12px;font-family:sans-serif;" y="6" transform="translate(219.6714 458)" fill="#6E7079">90</text>
<text dominant-baseline="central" text-anchor="middle" style="font-size:12px;font-family:sans-serif;" y="6" transform="translate(249.0425 458)" fill="#6E7079">108</text>
<text dominant-baseline="central" text-anchor="middle" style="font-size:12px;font-family:sans-serif;" y="6" transform="translate(278.4136 458)" fill="#6E7079">126</text>
<text dominant-baseline="central" text-anchor="middle" style="font-size:12px;font-family:sans-serif;" y="6" transform="translate(307.7847 458)" fill="#6E7079">144</text>
<text dominant-baseline="central" text-anchor="middle" style="font-size:12px;font-family:sans-serif;" y="6" transform="translate(337.1558 458)" fill="#6E7079">162</text>
<text dominant-baseline="central" text-anchor="middle" style="font-size:12px;font-family:sans-serif;" y="6" transform="translate(366.5269 458)" fill="#6E7079">180</text>
<text dominant-baseline="central" text-anchor="middle" style="font-size:12px;font-family:sans-serif;" y="6" transform="translate(395.898 458)" fill="#6E7079">198</text>
<text dominant-baseline="central" text-anchor="middle" style="font-size:12px;font-family:sans-serif;" y="6" transform="translate(425.2691 458)" fill="#6E7079">216</text>
<text dominant-baseline="central" text-anchor="middle" style="font-size:12px;font-family:sans-serif;" y="6" transform="translate(454.6402 458)" fill="#6E7079">234</text>
<text dominant-baseline="central" text-anchor="middle" style="font-size:12px;font-family:sans-serif;" y="6" transform="translate(484.0113 458)" fill="#6E7079">252</text>
<text dominant-baseline="central" text-anchor="middle" style="font-size:12px;font-family:sans-serif;" y="6" transform="translate(513.3824 458)" fill="#6E7079">270</text>
<text dominant-baseline="central" text-anchor="middle" style="font-size:12px;font-family:sans-serif;" y="6" transform="translate(542.7535 458)" fill="#6E7079">288</text>
<text dominant-baseline="central" text-anchor="middle" style="font-size:12px;font-family:sans-serif;" y="6" transform="translate(572.1246 458)" fill="#6E7079">306</text>
<text dominant-baseline="central" text-anchor="middle" style="font-size:12px;font-family:sans-serif;" y="6" transform="translate(601.4958 458)" fill="#6E7079">324</text>
<text dominant-baseline="central" text-anchor="middle" style="font-size:12px;font-family:sans-serif;" y="6" transform="translate(630.8669 458)" fill="#6E7079">342</text>
<g clip-path="url(#zr0-c0)">
<path d="M72.8159 111.3957C72.8159 111.3957 73.213 121.5729 74.4476 121.5729C74.8447 121.5729 75.378 118.6869 76.0793 118.6869C77.0097 118.6869 77.1562 120.652 77.7111 122.7707C78.788 126.8833 78.1653 127.0943 79.3428 131.1495C79.7971 132.7142 80.603 134.0106 80.9745 134.0106C82.2347 134.0106 82.2633 122.9572 82.6062 122.9572C83.895 122.9572 82.8934 164.9189 84.238 164.9189C84.5251 164.9189 85.2988 160.5448 85.8697 156.1013C86.9305 147.8454 86.5334 139.5201 87.5014 139.5201C88.1651 139.5201 87.7723 150.8262 89.1331 150.8262C89.404 150.8262 90.6881 149.2424 90.7649 149.2424C92.3198 149.2424 91.1497 195.2411 92.3966 195.2411C92.7814 195.2411 92.5877 181.132 94.0283 181.132C94.2195 181.132 95.5306 181.1723 95.6601 182.0748C97.1623 192.5442 95.8346 203.8759 97.2918 203.8759C97.4664 203.8759 98.1481 202.8813 98.9235 201.8271C99.7798 200.6629 100.4205 199.4391 100.5552 199.4391C102.0522 199.4391 100.6403 231.5248 102.187 231.5248C102.2721 231.5248 103.5344 231.5248 103.8187 230.8455C105.1662 227.6256 105.1312 222.6275 105.4504 222.6275C106.7629 222.6275 105.9071 257.0385 107.0822 257.0385C107.5388 257.0385 108.2231 250.4228 108.7139 243.7501C109.8548 228.2397 109.9489 212.6724 110.3456 212.6724C111.5806 212.6724 110.5186 309.5349 111.9773 309.5349C112.1504 309.5349 113.164 303.8845 113.6091 298.1613C114.7958 282.9001 113.9934 282.8145 115.2408 267.5661C115.6252 262.8671 116.643 258.2664 116.8725 258.2664C118.2747 258.2664 117.0076 315.9243 118.5042 315.9243C118.6393 315.9243 120.0008 313.5717 120.136 310.9803C121.6325 282.2908 121.0874 253.3626 121.7677 253.3626C122.7192 253.3626 121.8007 333.9662 123.3994 333.9662C123.4324 333.9662 124.8702 333.9662 125.0312 333.6402C126.502 330.6603 126.3037 326.1111 126.6629 318.5189C127.9354 291.6243 127.6438 264.6666 128.2946 264.6666C129.2756 264.6666 128.6845 345.8639 129.9263 345.8639C130.3162 345.8639 130.554 333.1273 131.5581 320.4222C132.1857 312.4808 132.852 304.5708 133.1898 304.5708C134.4837 304.5708 133.9832 365.5901 134.8215 365.5901C135.6149 365.5901 135.3283 307.8471 136.4533 307.8471C136.96 307.8471 137.2846 333.8151 138.085 333.8151C138.9163 333.8151 139.1796 306.8423 139.7167 306.8423C140.8113 306.8423 139.9535 334.4216 141.3484 361.8817C141.5853 366.544 142.2748 371.0872 142.9802 371.0872C143.9065 371.0872 143.9274 365.0174 144.6119 358.9173C145.5591 350.4764 145.8754 342.0052 146.2436 342.0052C147.5071 342.0052 146.8568 400.2833 147.8754 400.2833C148.4885 400.2833 149.0003 382.764 149.5071 365.2239C150.6321 326.2861 150.3687 287.3274 151.1388 287.3274C152.0005 287.3274 151.5089 330.9271 152.7705 374.49C153.1407 387.2707 153.1917 400.0147 154.4023 400.0147C154.8234 400.0147 155.3467 395.6621 156.034 391.2682C156.9784 385.2303 156.2263 379.1511 157.6657 379.1511C157.8581 379.1511 158.7123 379.1511 159.2975 379.2326C160.344 379.3784 160.2442 380.3723 160.9292 381.6565C161.8759 383.4314 162.2356 383.3739 162.5609 385.3507C163.8673 393.2888 163.3637 393.4198 164.1926 401.4863C164.9954 409.2977 165.4567 417.1064 165.8244 417.1064C167.0884 417.1064 166.3643 363.1343 167.4561 363.1343C167.996 363.1343 167.5875 376.7635 169.0878 389.7874C169.2193 390.9286 170.5903 390.3227 170.7195 391.4644C172.222 404.734 171.7725 418.61 172.3513 418.61C173.4042 418.61 172.6521 393.839 173.983 369.1606C174.2838 363.5831 175.194 358.0984 175.6147 358.0984C176.8258 358.0984 176.3293 374.1774 177.2465 390.2447C177.961 402.7619 177.8745 415.2673 178.8782 415.2673C179.5062 415.2673 179.8365 399.6611 180.5099 399.6611C181.4682 399.6611 181.6143 421.9319 182.1416 421.9319C183.246 421.9319 182.7765 375.2007 183.7734 375.2007C184.4082 375.2007 184.2639 390.0974 185.4051 404.9344C185.8957 411.3125 186.0447 411.3118 187.0368 417.631C187.6764 421.7042 188.5777 425.7193 188.6685 425.7193C190.2094 425.7193 189.4537 285.8232 190.3003 285.8232C191.0854 285.8232 190.3205 415.567 191.932 415.567C191.9523 415.567 193.4358 415.5402 193.5637 415.5402C195.0675 415.5402 194.4714 434.6475 195.1955 434.6475C196.1032 434.6475 195.5452 410.6606 196.8272 410.6606C197.1769 410.6606 197.7153 413.8198 198.4589 417.0129C199.3471 420.8267 200.0066 424.6744 200.0907 424.6744C201.6384 424.6744 200.797 280.3875 201.7224 280.3875C202.4288 280.3875 202.2348 335.4625 203.3541 390.5231C203.8665 415.728 203.9828 440.9186 204.9858 440.9186C205.6146 440.9186 205.351 409.3537 206.6176 409.3537C206.9827 409.3537 207.5191 413.8221 208.2493 418.3188C209.1509 423.8708 208.4593 427.3232 209.881 429.451C210.091 429.7653 211.3664 429.7653 211.5127 429.7653C212.9981 429.7653 212.2986 412.9824 213.1445 412.9824C213.9304 412.9824 213.8364 420.7884 214.7762 428.5638C215.4681 434.2887 215.888 439.9829 216.4079 439.9829C217.5197 439.9829 217.1804 427.6737 218.0397 415.3707C218.8121 404.3102 219.0346 393.2557 219.6714 393.2557C220.6663 393.2557 219.7452 427.8636 221.3031 427.8636C221.3769 427.8636 222.6274 427.6909 222.9348 427.6909C224.2591 427.6909 224.1119 434.5669 224.5666 434.5669C225.7436 434.5669 224.7657 425.2014 226.1983 416.3476C226.3974 415.1172 227.6723 414.3985 227.83 414.3985C229.3041 414.3985 228.2714 438.1015 229.4618 438.1015C229.9031 438.1015 230.4095 429.4442 231.0935 429.4442C232.0412 429.4442 231.3192 435.862 232.7252 441.5413C232.9509 442.4529 234.2356 442.6259 234.3569 442.6259C235.8673 442.6259 234.4611 418.2923 235.9887 418.2923C236.0928 418.2923 237.4662 418.2923 237.6204 418.6118C239.0979 421.6737 237.9413 426.672 239.2521 434.4614C239.573 436.3682 240.6558 438.0042 240.8839 438.0042C242.2875 438.0042 241.6761 414.0516 242.5156 414.0516C243.3078 414.0516 242.6297 436.6508 244.1473 436.6508C244.2615 436.6508 245.3261 436.6508 245.779 436.1591C246.9579 434.8795 247.253 434.2357 247.4108 432.0345C248.8847 411.4743 248.2971 390.6363 249.0425 390.6363C249.9289 390.6363 249.1439 439.877 250.6742 439.877C250.7756 439.877 251.9734 438.6261 252.306 437.0486C253.6052 430.8849 253.6555 430.7631 253.9377 424.3947C255.2872 393.9428 254.8434 363.4081 255.5694 363.4081C256.4751 363.4081 255.8782 439.5035 257.2011 439.5035C257.5099 439.5035 257.5698 430.5663 258.8329 421.8161C259.2015 419.2622 260.1622 416.8954 260.4646 416.8954C261.794 416.8954 260.6926 439.6302 262.0963 439.6302C262.3244 439.6302 262.8328 436.306 263.7281 436.306C264.4645 436.306 265.0245 438.8782 265.3598 438.8782C266.6562 438.8782 265.9028 432.9884 266.9915 427.2151C267.5345 424.3355 267.5551 421.5724 268.6232 421.5724C269.1868 421.5724 270.1874 424.2073 270.2549 424.2073C271.8192 424.2073 271.1311 352.4005 271.8867 352.4005C272.7628 352.4005 271.9275 394.405 273.5184 435.6729C273.5593 436.7328 274.8962 437.0562 275.1501 437.0562C276.5279 437.0562 275.5238 425.5648 276.7819 425.5648C277.1556 425.5648 278.195 428.6019 278.4136 428.6019C279.8267 428.6019 279.4487 417.5031 280.0453 406.3788C281.0805 387.077 281.0168 367.7498 281.6771 367.7498C282.6485 367.7498 282.1732 424.6146 283.3088 424.6146C283.805 424.6146 284.2377 399.8097 284.9405 399.8097C285.8694 399.8097 285.3517 432.622 286.5722 432.622C286.9834 432.622 286.9567 421.6746 288.204 421.6746C288.5884 421.6746 289.2979 423.0651 289.8357 424.6701C290.9296 427.9348 290.1522 429.9455 291.4674 431.4141C291.7839 431.7675 292.8703 431.4141 293.0992 431.7675C294.502 433.9336 293.3649 441.8711 294.7309 441.8711C294.9967 441.8711 295.759 440.7294 296.3626 440.7294C297.3908 440.7294 296.9651 443.7036 297.9943 443.7036C298.5968 443.7036 299.5596 443.5468 299.6261 442.5719C301.1914 419.5996 300.3136 395.8092 301.2578 395.8092C301.9453 395.8092 301.472 412.9395 302.8895 429.8443C303.1038 432.3993 303.5132 434.7288 304.5212 434.7288C305.1449 434.7288 305.8696 433.5386 306.153 431.9922C307.5013 424.6344 306.7157 416.9204 307.7847 416.9204C308.3474 416.9204 308.8324 420.7886 309.4164 424.7315C310.4641 431.8049 310.1175 438.9531 311.0482 438.9531C311.7492 438.9531 311.9935 428.2941 312.6799 428.2941C313.6253 428.2941 313.5828 443.0562 314.3116 443.0562C315.2145 443.0562 314.8187 424.7277 315.9433 424.7277C316.4505 424.7277 317.3418 432.8633 317.5751 432.8633C318.9736 432.8633 318.4882 383.1346 319.2068 383.1346C320.1199 383.1346 319.3 446.3382 320.8385 446.3382C320.9317 446.3382 321.3309 443.5182 322.4702 442.8726C322.9626 442.5936 323.9505 442.8726 324.102 442.5936C325.5822 439.8682 324.6885 426.505 325.7337 426.505C326.3202 426.505 326.5932 430.9603 327.3654 435.4307C328.2249 440.4055 328.5703 445.3953 328.9972 445.3953C330.202 445.3953 329.5891 416.9437 330.6289 416.9437C331.2209 416.9437 331.0091 425.1117 332.2606 433.0857C332.6408 435.508 332.7954 437.7362 333.8924 437.7362C334.4271 437.7362 334.58 435.9731 335.5241 435.9731C336.2117 435.9731 336.3498 436.2657 337.1558 436.6053C337.9816 436.9532 338.4261 437.3482 338.7875 437.3482C340.0579 437.3482 339.7624 431.2607 340.4193 431.2607C341.3941 431.2607 341.1699 440.4699 342.051 440.4699C342.8016 440.4699 342.5694 436.4684 343.6827 432.6711C344.2011 430.9029 344.8653 431.1232 345.3145 429.339C346.497 424.6415 346.3549 419.7077 346.9462 419.7077C347.9867 419.7077 347.1201 436.8218 348.5779 436.8218C348.7518 436.8218 350.1108 436.5788 350.2096 435.579C351.7425 420.0758 351.0235 403.8159 351.8414 403.8159C352.6552 403.8159 351.9379 420.0174 353.4731 435.4213C353.5697 436.3903 354.678 435.7093 355.1048 436.5618C356.3097 438.9684 355.5369 441.9397 356.7365 441.9397C357.1686 441.9397 358.1576 441.6946 358.3683 440.7423C359.7894 434.3175 358.9065 427.1854 360 427.1854C360.5382 427.1854 360.547 430.5504 361.6317 433.7044C362.1787 435.295 362.8549 435.0491 363.2635 436.6746C364.4866 441.5413 363.871 446.6889 364.8952 446.6889C365.5027 446.6889 365.5033 443.7107 366.5269 440.8957C367.1351 439.2232 367.0632 437.7139 368.1586 437.7139C368.6949 437.7139 369.4061 437.7139 369.7904 438.3474C371.0378 440.4035 370.4596 443.7894 371.4221 443.7894C372.0914 443.7894 372.2315 440.1914 373.0538 440.1914C373.8632 440.1914 373.7754 443.7207 374.6855 443.7207C375.4071 443.7207 375.7709 441.1056 376.3173 441.1056C377.4026 441.1056 376.972 447.0068 377.949 447.0068C378.6037 447.0068 378.421 444.115 379.5807 443.2421C380.0527 442.8868 381.0244 443.2421 381.2125 442.8868C382.6562 440.1591 381.4857 436.2949 382.8442 430.1701C383.1174 428.9384 383.611 428.1738 384.4759 428.1738C385.2427 428.1738 386.058 429.7744 386.1076 429.7744C387.6897 429.7744 386.9618 356.9568 387.7394 356.9568C388.5935 356.9568 387.8715 397.0409 389.3711 436.9506C389.5033 440.4681 389.9289 443.811 391.0028 443.811C391.5606 443.811 392.4027 442.3319 392.6346 440.5323C394.0344 429.6674 393.4422 418.4821 394.2663 418.4821C395.0739 418.4821 394.5685 440.0891 395.898 440.0891C396.2002 440.0891 396.9986 435.4418 397.5298 435.4418C398.6303 435.4418 398.8084 445.5157 399.1615 445.5157C400.4401 445.5157 400.0009 408.5992 400.7932 408.5992C401.6326 408.5992 401.232 447.713 402.4249 447.713C402.8637 447.713 403.0609 440.5326 404.0567 433.405C404.6926 428.8532 405.3485 428.9335 405.6884 424.3544C406.9802 406.9518 406.6064 389.4417 407.3201 389.4417C408.2382 389.4417 407.5961 411.9658 408.9518 434.3731C409.2278 438.9336 409.3748 439.0217 410.5836 443.3772C411.0065 444.9013 411.5906 446.1322 412.2153 446.1322C413.2223 446.1322 412.8623 441.2357 413.847 441.2357C414.4941 441.2357 414.4855 442.8639 415.4788 444.2088C416.1172 445.0734 416.723 445.6546 417.1105 445.6546C418.3548 445.6546 417.849 442.2295 418.7422 438.8456C419.4807 436.0477 419.7881 433.2911 420.3739 433.2911C421.4198 433.2911 420.8385 438.4961 422.0057 443.4965C422.4702 445.4866 423.3808 447.2722 423.6374 447.2722C425.0125 447.2722 424.2984 425.2893 425.2691 425.2893C425.9301 425.2893 425.6065 440.2087 426.9008 440.2087C427.2383 440.2087 428.2075 438.565 428.5326 436.6527C429.8393 428.9659 429.3619 421.0105 430.1643 421.0105C430.9936 421.0105 430.6985 429.1396 431.796 437.1812C432.3302 441.0954 432.4381 444.9222 433.4278 444.9222C434.0698 444.9222 433.9691 442.336 435.0595 440.0562C435.6009 438.9243 435.6964 438.0988 436.6912 438.0988C437.3282 438.0988 438.2219 438.1068 438.3229 438.1068C439.8536 438.1068 438.9816 413.4378 439.9547 413.4378C440.6133 413.4378 440.7135 421.7713 441.5864 430.0927C442.3452 437.3264 442.2475 444.5482 443.2181 444.5482C443.8793 444.5482 443.6377 439.5253 444.8499 434.7744C445.2694 433.1302 446.2038 431.758 446.4816 431.758C447.8355 431.758 447.1185 448.394 448.1133 448.394C448.7502 448.394 448.7736 437.8168 449.7451 437.8168C450.4053 437.8168 450.329 444.9049 451.3768 444.9049C451.9607 444.9049 452.4508 443.1331 453.0085 441.1944C454.0826 437.4603 454.3094 437.4412 454.6402 433.5593C455.9411 418.2966 455.4976 402.9053 456.2719 402.9053C457.1293 402.9053 456.6202 419.933 457.9037 436.8545C458.2519 441.4453 458.6965 445.9299 459.5354 445.9299C460.3282 445.9299 460.2285 437.3698 461.1671 437.3698C461.8603 437.3698 461.6743 443.5947 462.7989 443.5947C463.3061 443.5947 463.9933 442.5556 464.4306 441.1944C465.6251 437.4762 465.4597 433.4359 466.0623 433.4359C467.0914 433.4359 466.5384 446.8752 467.6941 446.8752C468.1701 446.8752 468.2564 441.5432 469.3258 441.5432C469.8881 441.5432 470.1601 443.9796 470.9575 443.9796C471.7918 443.9796 471.7873 441.3819 472.5892 441.3819C473.419 441.3819 473.3723 444.1042 474.221 444.1042C475.004 444.1042 475.2896 441.6727 475.8527 441.6727C476.9213 441.6727 477.1454 446.985 477.4844 446.985C478.7771 446.985 478.2443 425.8567 479.1161 425.8567C479.876 425.8567 479.3306 435.2794 480.7479 444.255C480.9623 445.6132 482.1415 446.5243 482.3796 446.5243C483.7732 446.5243 483.116 430.25 484.0113 430.25C484.7478 430.25 484.6221 443.605 485.6431 443.605C486.2539 443.605 486.0908 439.5148 487.2748 435.723C487.7225 434.2893 488.4995 433.1539 488.9065 433.1539C490.1312 433.1539 490.2204 442.1645 490.5382 442.1645C491.8521 442.1645 491.3329 404.3463 492.17 404.3463C492.9646 404.3463 492.4434 422.3683 493.8017 440.2414C494.0751 443.8389 494.5751 447.2874 495.4334 447.2874C496.2069 447.2874 495.8226 440.9779 497.0652 440.9779C497.4543 440.9779 498.125 441.391 498.6969 442.2038C499.7567 443.7101 499.5363 445.6161 500.3286 445.6161C501.168 445.6161 500.8505 441.9561 501.9603 441.9561C502.4822 441.9561 503.0166 442.1945 503.5921 442.8984C504.6484 444.1905 504.2807 445.9482 505.2238 445.9482C505.9125 445.9482 506.2822 445.1262 506.8555 444.0201C507.9139 441.9781 507.6631 441.8329 508.4872 439.6521C509.2948 437.5151 509.5455 435.3844 510.119 435.3844C511.1772 435.3844 510.8552 443.6563 511.7507 443.6563C512.487 443.6563 512.7646 436.9185 513.3824 436.9185C514.3964 436.9185 514.7126 448.178 515.0142 448.178C516.3443 448.178 515.722 398.0149 516.6459 398.0149C517.3538 398.0149 516.8694 417.3194 518.2776 436.4369C518.5011 439.4705 518.7949 442.317 519.9094 442.317C520.4266 442.317 521.1263 440.0024 521.5411 440.0024C522.758 440.0024 521.8293 448.1482 523.1728 448.1482C523.461 448.1482 524.3613 448.139 524.8045 447.4316C525.9931 445.5347 525.629 442.9397 526.4363 442.9397C527.2607 442.9397 527.388 447.5394 528.068 447.5394C529.0198 447.5394 528.8392 444.2108 529.6997 440.9055C530.4709 437.9432 530.8147 435.0043 531.3314 435.0043C532.4465 435.0043 531.5635 448.1161 532.9632 448.1161C533.1952 448.1161 534.1946 447.636 534.5949 446.6548C535.8263 443.6364 534.9279 442.334 536.2266 440.1169C536.5596 439.5484 537.5582 439.5484 537.8583 439.5484C539.1899 439.5484 538.7585 447.038 539.4901 447.038C540.3902 447.038 540.0475 437.7503 541.1218 437.7503C541.6792 437.7503 541.8249 440.104 542.7535 442.3629C543.4566 444.0728 544.0984 445.6878 544.3853 445.6878C545.7302 445.6878 545.2105 437.0434 546.017 428.3973C546.8422 419.5504 546.994 410.7018 547.6487 410.7018C548.6257 410.7018 548.0481 423.9873 549.2805 437.167C549.6798 441.4377 550.0072 445.6027 550.9122 445.6027C551.6389 445.6027 551.7826 438.8981 552.5439 438.8981C553.4144 438.8981 553.3957 446.618 554.1757 446.618C555.0274 446.618 554.9159 438.1566 555.8074 438.1566C556.5476 438.1566 556.8178 445.1228 557.4391 445.1228C558.4496 445.1228 558.3153 433.6003 559.0708 433.6003C559.947 433.6003 559.3516 446.9973 560.7026 446.9973C560.9833 446.9973 561.4414 444.7159 562.3343 444.7159C563.0731 444.7159 563.0924 446.3663 563.966 446.3663C564.7241 446.3663 564.8324 445.1861 565.5977 445.1861C566.4641 445.1861 566.3201 446.7779 567.2295 446.7779C567.9519 446.7779 568.23 445.9927 568.8612 445.9927C569.8617 445.9927 570.3379 448.3539 570.4929 448.3539C571.9696 448.3539 571.2006 421.0713 572.1246 421.0713C572.8323 421.0713 572.2427 441.1859 573.7563 441.9402C573.8744 441.999 574.8954 441.9402 575.3881 441.999C576.5272 442.135 576.9079 445.4028 577.0198 445.4028C578.5396 445.4028 577.7749 394.1787 578.6516 394.1787C579.4066 394.1787 578.835 438.2855 580.2833 438.2855C580.4667 438.2855 581.4104 432.9387 581.915 432.9387C583.0422 432.9387 582.1068 442.9214 583.5468 445.3191C583.7385 445.6383 584.8701 445.6383 585.1785 445.6383C586.5018 445.6383 585.8621 438.6919 586.8102 438.6919C587.4939 438.6919 587.3388 441.2976 588.442 443.572C588.9706 444.6619 589.1736 445.4206 590.0737 445.4206C590.8053 445.4206 591.5257 445.2081 591.7054 444.2567C593.1574 436.57 592.4457 428.1445 593.3371 428.1445C594.0775 428.1445 593.5762 441.4965 594.9688 441.4965C595.2079 441.4965 596.2799 439.8621 596.6006 439.8621C597.9116 439.8621 597.635 449.1613 598.2323 449.1613C599.2667 449.1613 598.9517 432.8924 599.864 432.8924C600.5834 432.8924 600.2191 445.6804 601.4957 445.6804C601.8508 445.6804 602.0913 442.4875 603.1275 442.4875C603.723 442.4875 603.863 443.746 604.7592 443.746C605.4947 443.746 606.2274 443.746 606.3909 443.3017C607.8592 439.312 607.1887 428.2028 608.0226 428.2028C608.8204 428.2028 608.3796 442.6394 609.6544 442.6394C610.0113 442.6394 611.0264 440.9152 611.2861 438.9135C612.6581 428.3414 612.1254 428.2044 612.9178 417.4919C613.7571 406.1456 613.9141 394.7959 614.5496 394.7959C615.5458 394.7959 614.9179 412.6603 616.1813 430.4335C616.5496 435.6152 616.7351 435.6319 617.813 440.7055C618.3669 443.3123 618.5505 445.7943 619.4448 445.7943C620.1822 445.7943 620.4434 441.7009 621.0765 441.7009C622.0752 441.7009 622.6748 448.4586 622.7082 448.4586C624.3065 448.4586 623.5187 116.1044 624.34 116.1044C625.1504 116.1044 624.3878 444.0649 625.9717 444.0649C626.0195 444.0649 626.6355 434.2981 627.6034 434.2981C628.2672 434.2981 628.0516 440.89 629.2351 440.89C629.6833 440.89 630.5219 440.1117 630.8669 438.9023C632.1536 434.3918 631.9032 429.4503 632.4986 429.4503C633.5349 429.4503 632.8384 446.0638 634.1303 446.0638C634.4701 446.0638 634.8581 441.9883 635.762 441.9883C636.4899 441.9883 636.9287 445.1241 637.3937 445.1241C638.5605 445.1241 637.9117 436.4061 639.0255 436.4061C639.5434 436.4061 640.0563 438.2288 640.6572 440.1938C641.688 443.5643 640.9726 445.1649 642.2889 447.0771C642.6043 447.5352 643.6363 447.5352 643.9207 447.5352C645.268 447.5352 644.3917 443.4721 645.5524 439.6721C646.0234 438.1302 647.1841 436.8514 647.1841 436.8514" fill="transparent" stroke="#5470c6" stroke-width="2" stroke-linejoin="bevel" class="zr0-cls-6"></path>
</g>
<path d="M1 0A1 1 0 1 1 1 -0.0001" transform="matrix(2,0,0,2,72.8159,111.3957)" fill="#fff" stroke="#5470c6" class="zr0-cls-7"></path>
<path d="M1 0A1 1 0 1 1 1 -0.0001" transform="matrix(2,0,0,2,102.187,231.5248)" fill="#fff" stroke="#5470c6" class="zr0-cls-7"></path>
<path d="M1 0A1 1 0 1 1 1 -0.0001" transform="matrix(2,0,0,2,131.5581,320.4222)" fill="#fff" stroke="#5470c6" class="zr0-cls-7"></path>
<path d="M1 0A1 1 0 1 1 1 -0.0001" transform="matrix(2,0,0,2,160.9292,381.6565)" fill="#fff" stroke="#5470c6" class="zr0-cls-7"></path>
<path d="M1 0A1 1 0 1 1 1 -0.0001" transform="matrix(2,0,0,2,190.3003,285.8232)" fill="#fff" stroke="#5470c6" class="zr0-cls-7"></path>
<path d="M1 0A1 1 0 1 1 1 -0.0001" transform="matrix(2,0,0,2,219.6714,393.2557)" fill="#fff" stroke="#5470c6" class="zr0-cls-7"></path>
<path d="M1 0A1 1 0 1 1 1 -0.0001" transform="matrix(2,0,0,2,249.0425,390.6363)" fill="#fff" stroke="#5470c6" class="zr0-cls-7"></path>
<path d="M1 0A1 1 0 1 1 1 -0.0001" transform="matrix(2,0,0,2,278.4136,428.6019)" fill="#fff" stroke="#5470c6" class="zr0-cls-7"></path>
<path d="M1 0A1 1 0 1 1 1 -0.0001" transform="matrix(2,0,0,2,307.7847,416.9204)" fill="#fff" stroke="#5470c6" class="zr0-cls-7"></path>
<path d="M1 0A1 1 0 1 1 1 -0.0001" transform="matrix(2,0,0,2,337.1558,436.6053)" fill="#fff" stroke="#5470c6" class="zr0-cls-7"></path>
<path d="M1 0A1 1 0 1 1 1 -0.0001" transform="matrix(2,0,0,2,366.5269,440.8957)" fill="#fff" stroke="#5470c6" class="zr0-cls-7"></path>
<path d="M1 0A1 1 0 1 1 1 -0.0001" transform="matrix(2,0,0,2,395.898,440.0891)" fill="#fff" stroke="#5470c6" class="zr0-cls-7"></path>
<path d="M1 0A1 1 0 1 1 1 -0.0001" transform="matrix(2,0,0,2,425.2691,425.2893)" fill="#fff" stroke="#5470c6" class="zr0-cls-7"></path>
<path d="M1 0A1 1 0 1 1 1 -0.0001" transform="matrix(2,0,0,2,454.6402,433.5593)" fill="#fff" stroke="#5470c6" class="zr0-cls-7"></path>
<path d="M1 0A1 1 0 1 1 1 -0.0001" transform="matrix(2,0,0,2,484.0113,430.25)" fill="#fff" stroke="#5470c6" class="zr0-cls-7"></path>
<path d="M1 0A1 1 0 1 1 1 -0.0001" transform="matrix(2,0,0,2,513.3824,436.9185)" fill="#fff" stroke="#5470c6" class="zr0-cls-7"></path>
<path d="M1 0A1 1 0 1 1 1 -0.0001" transform="matrix(2,0,0,2,542.7535,442.3629)" fill="#fff" stroke="#5470c6" class="zr0-cls-7"></path>
<path d="M1 0A1 1 0 1 1 1 -0.0001" transform="matrix(2,0,0,2,572.1246,421.0713)" fill="#fff" stroke="#5470c6" class="zr0-cls-7"></path>
<path d="M1 0A1 1 0 1 1 1 -0.0001" transform="matrix(2,0,0,2,601.4957,445.6804)" fill="#fff" stroke="#5470c6" class="zr0-cls-7"></path>
<path d="M1 0A1 1 0 1 1 1 -0.0001" transform="matrix(2,0,0,2,630.8669,438.9023)" fill="#fff" stroke="#5470c6" class="zr0-cls-7"></path>
<defs >
<clipPath id="zr0-c0">
<path d="M71 59l578 0l0 392l-578 0Z" fill="#000" class="zr0-cls-5"></path>
</clipPath>
</defs>
<style ><![CDATA[
.zr0-cls-4:hover {
pointer-events:none;
}
.zr0-cls-5:hover {
cursor:pointer;
fill:rgba(0,0,0,1);
}
.zr0-cls-6:hover {
cursor:pointer;
}
.zr0-cls-7:hover {
cursor:pointer;
fill:rgba(255,255,255,1);
}

]]>

</style>
</svg>