<svg width="720" height="520" xmlns="http://www.w3.org/2000/svg" xmlns:xlink="http://www.w3.org/1999/xlink" version="1.1" baseProfile="full" viewBox="0 0 720 520">
<rect width="720" height="520" x="0" y="0" fill="none"></rect>
<path d="M72 450.5L648 450.5" fill="transparent" stroke="#E0E6F1" class="zr0-cls-0"></path>
<path d="M72 394.5L648 394.5" fill="transparent" stroke="#E0E6F1" class="zr0-cls-0"></path>
<path d="M72 338.5L648 338.5" fill="transparent" stroke="#E0E6F1" class="zr0-cls-0"></path>
<path d="M72 283.5L648 283.5" fill="transparent" stroke="#E0E6F1" class="zr0-cls-0"></path>
<path d="M72 227.5L648 227.5" fill="transparent" stroke="#E0E6F1" class="zr0-cls-0"></path>
<path d="M72 171.5L648 171.5" fill="transparent" stroke="#E0E6F1" class="zr0-cls-0"></path>
<path d="M72 115.5L648 115.5" fill="transparent" stroke="#E0E6F1" class="zr0-cls-0"></path>
<path d="M72 60.5L648 60.5" fill="transparent" stroke="#E0E6F1" class="zr0-cls-0"></path>
<path d="M72 450.5L648 450.5" fill="transparent" stroke="#6E7079" stroke-linecap="round" class="zr0-cls-0"></path>
<path d="M72.5 450L72.5 455" fill="transparent" stroke="#6E7079" class="zr0-cls-0"></path>
<path d="M101.5 450L101.5 455" fill="transparent" stroke="#6E7079" class="zr0-cls-0"></path>
<path d="M130.5 450L130.5 455" fill="transparent" stroke="#6E7079" class="zr0-cls-0"></path>
<path d="M160.5 450L160.5 455" fill="transparent" stroke="#6E7079" class="zr0-cls-0"></path>
<path d="M189.5 450L189.5 455" fill="transparent" stroke="#6E7079" class="zr0-cls-0"></path>
<path d="M219.5 450L219.5 455" fill="transparent" stroke="#6E7079" class="zr0-cls-0"></path>
<path d="M248.5 450L248.5 455" fill="transparent" stroke="#6E7079" class="zr0-cls-0"></path>
<path d="M277.5 450L277.5 455" fill="transparent" stroke="#6E7079" class="zr0-cls-0"></path>
<path d="M307.5 450L307.5 455" fill="transparent" stroke="#6E7079" class="zr0-cls-0"></path>
<path d="M336.5 450L336.5 455" fill="transparent" stroke="#6E7079" class="zr0-cls-0"></path>
<path d="M365.5 450L365.5 455" fill="transparent" stroke="#6E7079" class="zr0-cls-0"></path>
<path d="M395.5 450L395.5 455" fill="transparent" stroke="#6E7079" class="zr0-cls-0"></path>
<path d="M424.5 450L424.5 455" fill="transparent" stroke="#6E7079" class="zr0-cls-0"></path>
<path d="M454.5 450L454.5 455" fill="transparent" stroke="#6E7079" class="zr0-cls-0"></path>
<path d="M483.5 450L483.5 455" fill="transparent" stroke="#6E7079" class="zr0-cls-0"></path>
<path d="M512.5 450L512.5 455" fill="transparent" stroke="#6E7079" class="zr0-cls-0"></path>
<path d="M542.5 450L542.5 455" fill="transparent" stroke="#6E7079" class="zr0-cls-0"></path>
<path d="M571.5 450L571.5 455" fill="transparent" stroke="#6E7079" class="zr0-cls-0"></path>
<path d="M600.5 450L600.5 455" fill="transparent" stroke="#6E7079" class="zr0-cls-0"></path>
<path d="M630.5 450L630.5 455" fill="transparent" stroke="#6E7079" class="zr0-cls-0"></path>
<path d="M648.5 450L648.5 455" fill="transparent" stroke="#6E7079" class="zr0-cls-0"></path>
<text dominant-baseline="central" text-anchor="end" style="font-size:12px;font-family:sans-serif;" transform="translate(64 450)" fill="#6E7079">0</text>
<text dominant-baseline="central" text-anchor="end" style="font-size:12px;font-family:sans-serif;" transform="translate(64 394.2857)" fill="#6E7079">0.3</text>
<text dominant-baseline="central" text-anchor="end" style="font-size:12px;font-family:sans-serif;" transform="translate(64 338.5714)" fill="#6E7079">0.6</text>
<text dominant-baseline="central" text-anchor="end" style="font-size:12px;font-family:sans-serif;" transform="translate(64 282.8571)" fill="#6E7079">0.9</text>
<text dominant-baseline="central" text-anchor="end" style="font-size:12px;font-family:sans-serif;" transform="translate(64 227.1429)" fill="#6E7079">1.2</text>
<text dominant-baseline="central" text-anchor="end" style="font-size:12px;font-family:sans-serif;" transform="translate(64 171.4286)" fill="#6E7079">1.5</text>
<text dominant-baseline="central" text-anchor="end" style="font-size:12px;font-family:sans-serif;" transform="translate(64 115.7143)" fill="#6E7079">1.8</text>
<text dominant-baseline="central" text-anchor="end" style="font-size:12px;font-family:sans-serif;" transform="translate(64 60)" fill="#6E7079">2.1</text>
<text dominant-baseline="central" text-anchor="middle" style="font-size:12px;font-family:sans-serif;" y="6" transform="translate(72.8159 458)" fill="#6E7079">0</text>
<text dominant-baseline="central" text-anchor="middle" style="font-size:12px;font-family:sans-serif;" y="6" transform="translate(102.187 458)" fill="#6E7079">18</text>
<text dominant-baseline="central" text-anchor="middle" style="font-size:12px;font-family:sans-serif;" y="6" transform="translate(131.5581 458)" fill="#6E7079">36</text>
<text dominant-baseline="central" text-anchor="middle" style="font-size:12px;font-family:sans-serif;" y="6" transform="translate(160.9292 458)" fill="#6E7079">54</text>
<text dominant-baseline="central" text-anchor="middle" style="font-size:12px;font-family:sans-serif;" y="6" transform="translate(190.3003 458)" fill="#6E7079">72</text>
<text dominant-baseline="central" text-anchor="middle" style="font-size:12px;font-family:sans-serif;" y="6" transform="translate(219.6714 458)" fill="#6E7079">90</text>
<text dominant-baseline="central" text-anchor="middle" style="font-size:12px;font-family:sans-serif;" y="6" transform="translate(249.0425 458)" fill="#6E7079">108</text>
<text dominant-baseline="central" text-anchor="middle" style="font-size:12px;font-family:sans-serif;" y="6" transform="translate(278.4136 458)" fill="#6E7079">126</text>
<text dominant-baseline="central" text-anchor="middle" style="font-size:12px;font-family:sans-serif;" y="6" transform="translate(307.7847 458)" fill="#6E7079">144</text>
<text dominant-baseline="central" text-anchor="middle" style="font-size:12px;font-family:sans-serif;" y="6" transform="translate(337.1558 458)" fill="#6E7079">162</text>
<text dominant-baseline="central" text-anchor="middle" style="font-size:12px;font-family:sans-serif;" y="6" transform="translate(366.5269 458)" fill="#6E7079">180</text>
<text dominant-baseline="central" text-anchor="middle" style="font-size:12px;font-family:sans-serif;" y="6" transform="translate(395.898 458)" fill="#6E7079">198</text>
<text dominant-baseline="central" text-anchor="middle" style="font-size:12px;font-family:sans-serif;" y="6" transform="translate(425.2691 458)" fill="#6E7079">216</text>
<text dominant-baseline="central" text-anchor="middle" style="font-size:12px;font-family:sans-serif;" y="6" transform="translate(454.6402 458)" fill="#6E7079">234</text>
<text dominant-baseline="central" text-anchor="middle" style="font-size:12px;font-family:sans-serif;" y="6" transform="translate(484.0113 458)" fill="#6E7079">252</text>
<text dominant-baseline="central" text-anchor="middle" style="font-size:12px;font-family:sans-serif;" y="6" transform="translate(513.3824 458)" fill="#6E7079">270</text>
<text dominant-baseline="central" text-anchor="middle" style="font-size:12px;font-family:sans-serif;" y="6" transform="translate(542.7535 458)" fill="#6E7079">288</text>
<text dominant-baseline="central" text-anchor="middle" style="font-size:12px;font-family:sans-serif;" y="6" transform="translate(572.1246 458)" fill="#6E7079">306</text>
<text dominant-baseline="central" text-anchor="middle" style="font-size:12px;font-family:sans-serif;" y="6" transform="translate(601.4958 458)" fill="#6E7079">324</text>
<text dominant-baseline="central" text-anchor="middle" style="font-size:12px;font-family:sans-serif;" y="6" transform="translate(630.8669 458)" fill="#6E7079">342</text>
<g clip-path="url(#zr0-c0)">
<path d="M72.8159 112.3946C72.8159 112.3946 73.5418 107.6744 74.4476 107.6744C75.1735 107.6744 75.6282 109.3936 76.0793 111.329C77.2599 116.3939 76.3849 121.675 77.7111 121.675C78.0166 121.675 78.9172 119.8967 79.3428 119.8967C80.5489 119.8967 80.1375 126.5389 80.9745 126.5389C81.7693 126.5389 81.8226 120.2522 82.6062 120.2522C83.4543 120.2522 83.2566 123.7212 84.238 127.0892C84.8883 129.3212 85.4473 129.1744 85.8697 131.4524C87.0791 137.975 86.3704 138.1357 87.5014 144.6904C88.0022 147.5926 88.3774 147.5123 89.1331 150.3662C90.0091 153.6742 90.4175 157.0142 90.7649 157.0142C92.0492 157.0142 91.1076 144.3131 92.3966 131.7596C92.7394 128.4213 93.7097 125.2306 94.0283 125.2306C95.3415 125.2306 94.2509 139.2085 95.6601 152.9207C95.8826 155.0865 96.1816 155.1767 97.2918 156.9867C97.8133 157.837 98.4846 157.353 98.9235 158.2413C100.1163 160.6551 99.5604 163.591 100.5552 163.591C101.1921 163.591 101.5698 162.0764 102.187 160.4043C103.2015 157.6558 103.3063 154.7499 103.8187 154.7499C104.938 154.7499 104.7692 167.5029 105.4504 167.5029C106.401 167.5029 106.517 149.6368 107.0822 149.6368C108.1487 149.6368 107.4205 183.4512 108.7139 183.4512C109.0522 183.4512 108.9922 178.6754 110.3456 174.7475C110.6239 173.94 111.7921 173.94 111.9773 173.94C113.4238 173.94 112.8235 188.0643 113.6091 188.0643C114.4552 188.0643 114.5007 172.8356 115.2408 172.8356C116.1325 172.8356 115.9968 182.0321 116.8725 191.2171C117.6286 199.147 117.6341 207.0654 118.5042 207.0654C119.2658 207.0654 119.2996 200.1392 120.136 193.218C120.9313 186.6369 121.377 180.0607 121.7677 180.0607C123.0087 180.0607 121.8368 222.1434 123.3994 222.1434C123.4685 222.1434 124.905 222.1393 125.0312 221.2484C126.5368 210.6141 125.4346 210.1086 126.6629 199.0931C127.0664 195.4746 127.8322 191.9803 128.2946 191.9803C129.464 191.9803 128.8063 201.2149 129.9263 210.3627C130.438 214.542 131.0809 214.4518 131.5581 218.6346C132.7126 228.7547 131.9485 238.9684 133.1898 238.9684C133.5802 238.9684 134.3721 232.7634 134.8215 232.7634C136.0038 232.7634 136.0645 249.5604 136.4533 249.5604C137.6962 249.5604 136.9606 195.6306 138.085 195.6306C138.5923 195.6306 139.1301 207.7621 139.7167 219.9177C140.7618 241.5749 140.2432 263.2561 141.3484 263.2561C141.8749 263.2561 142.2358 252.9645 142.9802 242.6624C143.8675 230.3818 144.0997 218.0908 144.6119 218.0908C145.7315 218.0908 144.6738 245.3624 146.2436 271.8996C146.3056 272.9467 147.6744 273.2593 147.8754 273.2593C149.3061 273.2593 148.5435 265.7217 149.5071 258.2233C150.1752 253.0241 150.873 247.8642 151.1388 247.8642C152.5047 247.8642 151.706 301.7187 152.7705 301.7187C153.3378 301.7187 153.4189 273.0552 154.4023 273.0552C155.0506 273.0552 155.1225 291.9129 156.034 291.9129C156.7542 291.9129 156.6999 284.459 157.6657 277.0455C158.3317 271.9338 158.354 271.9297 159.2975 266.8627C159.9857 263.1664 159.9889 263.1579 160.9292 259.519C161.6207 256.8429 162.0706 254.2328 162.5609 254.2328C163.7023 254.2328 163.8265 260.583 164.1926 267.007C165.4582 289.2133 165.0094 311.4933 165.8244 311.4933C166.6412 311.4933 165.884 266.9041 167.4561 266.9041C167.5157 266.9041 168.9872 266.9041 169.0878 267.3522C170.6189 274.171 169.3419 280.3193 170.7195 293.0504C170.9736 295.3986 171.882 295.194 172.3513 297.5108C173.5137 303.2495 173.5034 303.3029 173.983 309.1614C175.1351 323.2343 174.5061 337.3737 175.6147 337.3737C176.1378 337.3737 176.7469 330.785 177.2465 324.1402C178.3786 309.0818 177.6458 309.0075 178.8782 293.9674C179.2775 289.0944 180.1688 284.3141 180.5099 284.3141C181.8005 284.3141 180.8946 302.8564 182.1416 321.3177C182.5264 327.0133 183.3444 332.6279 183.7734 332.6279C184.9762 332.6279 184.6951 316.6325 185.4051 300.6275C186.3268 279.8502 186.5827 259.0634 187.0368 259.0634C188.2144 259.0634 187.4163 366.901 188.6685 366.901C189.0481 366.901 189.7262 350.588 190.3003 334.2563C191.3579 304.1681 191.2125 274.0612 191.932 274.0612C192.8442 274.0612 192.1685 350.3909 193.5637 350.3909C193.8002 350.3909 193.8761 337.5563 195.1955 337.5563C195.5078 337.5563 196.6404 338.6471 196.8272 340.1484C198.2721 351.7591 197.0754 363.7802 198.4589 363.7802C198.7072 363.7802 199.9238 361.9623 200.0907 359.8557C201.5556 341.3578 201.0086 341.2174 201.7224 322.5711C202.6403 298.5904 202.5065 274.6017 203.3541 274.6017C204.1383 274.6017 204.0293 296.7959 204.9858 318.9776C205.661 334.6343 205.3373 350.2785 206.6176 350.2785C206.969 350.2785 207.8776 341.8297 208.2493 341.8297C209.5093 341.8297 208.5856 370.9558 209.881 370.9558C210.2174 370.9558 210.7473 363.5597 211.5127 363.5597C212.379 363.5597 212.6129 371.975 213.1445 371.975C214.2446 371.975 214.1526 354.3091 214.7762 354.3091C215.7843 354.3091 215.2315 368.6625 216.4079 382.942C216.8633 388.4687 217.5528 393.9215 218.0397 393.9215C219.1845 393.9215 218.8923 367.8725 219.6714 367.8725C220.5241 367.8725 220.7686 396.3925 221.3031 396.3925C222.4003 396.3925 221.3615 366.7326 222.9348 337.7829C222.9932 336.7093 224.5072 336.3458 224.5666 336.3458C226.1389 336.3458 224.9926 393.8687 226.1983 393.8687C226.6243 393.8687 227.0775 383.739 227.83 373.5999C228.7092 361.7556 228.1158 349.9019 229.4618 349.9019C229.7475 349.9019 230.7423 354.6741 231.0935 354.6741C232.3741 354.6741 232.3472 336.3552 232.7252 336.3552C233.9789 336.3552 233.6517 397.3232 234.3569 397.3232C235.2834 397.3232 234.8375 317.2216 235.9887 317.2216C236.4692 317.2216 236.5566 333.9425 237.6204 350.6284C238.1884 359.5376 238.5223 368.412 239.2521 368.412C240.1541 368.412 240.3055 346.401 240.8839 346.401C241.9372 346.401 241.4504 366.499 242.5156 386.5678C243.0821 397.2416 242.8636 407.8861 244.1473 407.8861C244.4954 407.8861 245.2628 402.3236 245.779 402.3236C246.8945 402.3236 247.0193 414.7419 247.4108 414.7419C248.651 414.7419 247.9612 375.097 249.0425 375.097C249.5929 375.097 249.8102 385.1663 250.6742 395.2274C251.4419 404.1659 251.8394 413.0961 252.306 413.0961C253.4711 413.0961 252.7265 390.6767 253.9377 368.3134C254.3582 360.5488 255.1527 352.8403 255.5694 352.8403C256.7844 352.8403 255.8342 398.1749 257.2011 398.1749C257.4659 398.1749 258.2537 393.8919 258.8329 389.5401C259.8854 381.6306 260.2109 381.6303 260.4646 373.6523C261.8426 330.3264 261.4176 286.9323 262.0963 286.9323C263.0493 286.9323 262.2132 347.8816 263.7281 408.6992C263.8449 413.392 265.1591 417.953 265.3598 417.953C266.7909 417.953 266.1014 350.9473 266.9915 350.9473C267.7331 350.9473 267.1879 406.766 268.6232 406.766C268.8196 406.766 269.0109 399.303 270.2549 399.303C270.6427 399.303 271.5841 399.9182 271.8867 401.0368C273.2158 405.9506 272.9731 411.3678 273.5184 411.3678C274.6048 411.3678 274.0646 390.5955 275.1501 390.5955C275.6964 390.5955 275.8564 400.9523 276.7819 400.9523C277.4882 400.9523 277.9103 393.1183 278.4136 393.1183C279.5421 393.1183 278.836 410.9864 280.0453 410.9864C280.4677 410.9864 281.228 408.0282 281.6771 404.9356C282.8598 396.7902 282.5802 388.5103 283.3088 388.5103C284.2119 388.5103 284.2461 408.9049 284.9405 408.9049C285.8778 408.9049 285.0316 381.9787 286.5722 381.3374C286.6633 381.2995 288.1146 381.2995 288.204 381.2995C289.7463 381.2995 288.374 395.546 289.8357 409.4073C290.0057 411.0195 291.3631 412.2465 291.4674 412.2465C292.9949 412.2465 292.0481 364.3107 293.0992 364.3107C293.6798 364.3107 293.4167 377.6146 294.7309 390.758C295.0484 393.9335 295.1799 394.0522 296.3626 396.9485C296.8116 398.048 297.8755 397.5589 297.9943 398.7496C299.5072 413.9039 298.9164 429.6385 299.6261 429.6385C300.5481 429.6385 299.9911 389.485 301.2578 389.485C301.6228 389.485 302.2124 395.2011 302.8895 400.9507C303.8441 409.056 303.7012 417.1949 304.5212 417.1949C305.3329 417.1949 304.8956 401.118 306.153 401.118C306.5274 401.118 306.8937 405.6445 307.7847 405.6445C308.5255 405.6445 308.8558 403.9022 309.4164 401.9921C310.4875 398.3433 310.3693 394.5267 311.0482 394.5267C312.001 394.5267 312.1828 399.7921 312.6799 405.1277C313.8145 417.3051 313.1145 429.5527 314.3116 429.5527C314.7462 429.5527 314.941 425.1395 315.9433 420.818C316.5727 418.1046 317.0708 415.4828 317.5751 415.4828C318.7026 415.4828 318.5809 427.851 319.2068 427.851C320.2127 427.851 319.7023 417.8155 320.8385 407.8667C321.334 403.528 321.1039 399.2761 322.4702 399.2761C322.7357 399.2761 323.561 399.2761 324.102 399.7479C325.1927 400.699 325.2803 401.125 325.7337 402.759C326.912 407.0055 326.6609 411.5088 327.3654 411.5088C328.2926 411.5088 328.4019 399.9093 328.9972 399.9093C330.0336 399.9093 329.7279 420.2397 330.6289 420.2397C331.3597 420.2397 331.5845 403.7773 332.2606 403.7773C333.2162 403.7773 333.1833 427.101 333.8924 427.101C334.8151 427.101 334.8486 411.9161 335.5241 396.7182C336.4804 375.2013 336.0536 375.1782 337.1558 353.6716C337.6853 343.3388 338.4243 333.0396 338.7875 333.0396C340.056 333.0396 339.4479 405.3009 340.4193 405.3009C341.0796 405.3009 341.373 356.1918 342.051 356.1918C343.0047 356.1918 342.1775 425.2864 343.6827 425.2864C343.8092 425.2864 344.0683 422.1284 345.3145 419.7129C345.7 418.9655 346.7832 419.7129 346.9462 418.9606C348.4149 412.1798 348.0253 410.9245 348.5779 402.8483C349.657 387.0791 349.3694 371.2696 350.2096 371.2696C351.0011 371.2696 350.4909 386.2281 351.8414 401.0136C352.1226 404.0928 353.0146 403.9395 353.4731 406.9989C354.6463 414.828 353.9148 422.7905 355.1048 422.7905C355.5466 422.7905 356.0681 417.1277 356.7365 417.1277C357.6998 417.1277 358.0494 425.4617 358.3683 425.4617C359.6811 425.4617 359.2761 390.5405 360 390.5405C360.9078 390.5405 360.8979 434.3487 361.6317 434.3487C362.5296 434.3487 362.2848 380.7334 363.2635 380.7334C363.9166 380.7334 363.4811 416.4952 364.8952 416.4952C365.1128 416.4952 366.1344 413.9484 366.5269 411.2324C367.7661 402.6571 367.3848 393.9126 368.1586 393.9126C369.0165 393.9126 369.3412 413.1293 369.7904 413.1293C370.973 413.1293 370.6785 362.3776 371.4221 362.3776C372.3103 362.3776 371.7507 423.0117 373.0538 423.0117C373.3825 423.0117 374.004 407.802 374.6855 407.802C375.6357 407.802 375.6598 429.0653 376.3173 429.0653C377.2915 429.0653 376.976 397.5118 377.949 397.5118C378.6077 397.5118 378.7038 418.8409 379.5807 418.8409C380.3355 418.8409 380.612 400.5028 381.2125 400.5028C382.2437 400.5028 382.2959 432.0758 382.8442 432.0758C383.9277 432.0758 383.6667 369.6207 384.4759 369.6207C385.2984 369.6207 384.8115 433.0933 386.1076 433.0933C386.4432 433.0933 386.256 418.7091 387.7394 416.7355C387.8877 416.5382 388.5721 416.7143 389.3711 416.5382C390.2039 416.3546 390.831 416.5382 391.0028 416.0161C392.4628 411.5804 392.0692 401.5507 392.6346 401.5507C393.7009 401.5507 393.4812 428.9615 394.2663 428.9615C395.1129 428.9615 395.0046 399.3984 395.898 399.3984C396.6363 399.3984 396.7872 423.8127 397.5298 423.8127C398.419 423.8127 398.3621 394.556 399.1615 394.556C399.9938 394.556 399.3745 425.0213 400.7932 425.0213C401.0062 425.0213 401.4445 422.7984 402.4249 420.7408C403.0762 419.3739 403.1517 418.1723 404.0567 418.1723C404.7834 418.1723 405.3467 419.9911 405.6884 419.9911C406.9784 419.9911 406.6101 410.9118 407.3201 410.9118C408.2418 410.9118 408.2187 422.7757 408.9518 422.7757C409.8504 422.7757 409.5786 408.1903 410.5836 408.1903C411.2104 408.1903 411.5308 417.1977 412.2153 417.1977C413.1625 417.1977 413.0125 404.6365 413.847 404.6365C414.6442 404.6365 414.7399 410.6214 415.4788 416.6254C416.3717 423.8817 416.3972 431.1571 417.1105 431.1571C418.0289 431.1571 418.4376 421.8061 418.7422 412.4006C420.0693 371.4285 419.2751 330.4018 420.3739 330.4018C420.9068 330.4018 421.2759 350.2677 422.0057 370.1401C422.9077 394.7026 422.3845 394.7372 423.6374 419.2716C424.0162 426.6901 424.8094 434.046 425.2691 434.046C426.4411 434.046 426.0257 396.1881 426.9008 396.1881C427.6574 396.1881 427.3134 428.9046 428.5326 428.9046C428.9451 428.9046 429.4914 417.9426 430.1643 417.9426C431.1231 417.9426 430.8499 433.6507 431.796 433.6507C432.4816 433.6507 432.6475 427.9925 433.4278 422.3246C434.2792 416.1393 434.2274 416.1322 435.0595 409.9442C435.8591 403.998 436.0627 398.0561 436.6912 398.0561C437.6944 398.0561 436.9763 417.1402 438.3229 417.1402C438.608 417.1402 439.6291 413.428 439.9547 413.428C441.2608 413.428 440.3617 421.604 441.5864 429.6112C441.9934 432.272 442.8148 434.764 443.2181 434.764C444.4465 434.764 443.8622 418.3844 444.8499 418.3844C445.4939 418.3844 445.0652 428.8459 446.4816 428.9936C446.6969 429.0161 447.9576 429.0161 448.1133 429.0161C449.5893 429.0161 448.8022 413.6349 449.7451 413.6349C450.434 413.6349 450.8394 424.8182 451.3768 424.8182C452.4711 424.8182 452.059 401.8614 453.0085 401.8614C453.6907 401.8614 453.1913 418.3181 454.6402 418.3181C454.8231 418.3181 456.1485 418.0289 456.2719 417.0173C457.7803 404.6537 457.2508 391.5675 457.9037 391.5675C458.8826 391.5675 458.9378 429.7711 459.5354 429.7711C460.5695 429.7711 460.2654 363.6229 461.1671 363.6229C461.8971 363.6229 461.2175 417.1629 462.7989 417.1629C462.8492 417.1629 464.2762 416.6682 464.4306 416.6682C465.9079 416.6682 464.7598 432.8963 466.0623 432.8963C466.3915 432.8963 466.5701 430.7238 467.6941 429.1108C468.2019 428.3821 468.9865 428.213 469.3258 428.213C470.6182 428.213 470.0328 435.1173 470.9575 435.1173C471.6646 435.1173 471.9526 432.5764 472.5892 429.944C473.5843 425.8294 473.7518 421.6234 474.221 421.6234C475.3835 421.6234 474.7335 442.5693 475.8527 442.5693C476.3652 442.5693 476.4767 437.7845 477.4844 433.0872C478.1084 430.1784 478.7375 430.3017 479.1161 427.357C480.3692 417.6121 480.0837 417.5431 480.7479 407.708C481.7154 393.3798 481.7761 379.0304 482.3796 379.0304C483.4078 379.0304 482.5449 427.9369 484.0113 427.9369C484.1767 427.9369 484.9924 422.6667 485.6431 422.6667C486.6241 422.6667 486.7283 430.8235 487.2748 430.8235C488.36 430.8235 487.9833 414.3863 488.9065 414.3863C489.615 414.3863 490.3442 426.9574 490.5382 426.9574C491.976 426.9574 491.3784 333.0221 492.17 333.0221C493.0101 333.0221 492.3546 432.7222 493.8017 432.7222C493.9864 432.7222 494.1431 420.1015 495.4334 420.1015C495.7749 420.1015 496.7082 421.4217 497.0652 423.0471C498.3399 428.8508 497.4633 434.9596 498.6969 434.9596C499.0951 434.9596 500.1481 433.3562 500.3286 431.4377C501.7798 416.0157 501.1381 400.2785 501.9603 400.2785C502.7698 400.2785 502.4793 430.9514 503.5921 430.9514C504.1111 430.9514 504.0376 423.7555 505.2238 416.7184C505.6694 414.0749 506.7931 414.2759 506.8555 411.5902C508.4248 344.0938 507.7406 276.3541 508.4872 276.3541C509.3723 276.3541 508.7837 436.6571 510.119 436.6571C510.4154 436.6571 510.9782 401.1022 511.7507 401.1022C512.6099 401.1022 512.6642 440.6533 513.3824 440.6533C514.296 440.6533 514.1474 390.3301 515.0142 390.3301C515.7792 390.3301 515.22 434.7404 516.6459 434.7404C516.8517 434.7404 517.3828 428.5354 518.2776 428.5354C519.0146 428.5354 518.8275 431.1878 519.9094 433.5609C520.4593 434.7672 521.159 435.6943 521.5411 435.6943C522.7908 435.6943 522.2381 431.3513 523.1728 427.0613C523.8698 423.8623 523.836 423.8396 524.8045 420.7162C525.4677 418.5774 526.0031 416.5369 526.4363 416.5369C527.6349 416.5369 527.1724 428.8435 528.068 428.8435C528.8041 428.8435 528.6655 418.7705 529.6997 418.7705C530.2972 418.7705 530.7246 421.5558 531.3314 424.4357C532.3563 429.2995 532.2359 434.2578 532.9632 434.2578C533.8677 434.2578 533.5054 428.0646 534.5949 421.9824C535.1371 418.9554 535.7786 416.0393 536.2266 416.0393C537.4103 416.0393 537.0818 432.2417 537.8583 432.2417C538.7135 432.2417 538.6128 414.3826 539.4901 414.3826C540.2445 414.3826 539.9807 429.7178 541.1218 429.7178C541.6124 429.7178 542.1763 423.2917 542.7535 423.2917C543.808 423.2917 543.5 435.2918 544.3853 435.2918C545.1317 435.2918 545.0555 425.2107 546.017 425.2107C546.6872 425.2107 546.3452 429.1949 547.6487 432.1405C547.9769 432.8821 549.1813 432.8821 549.2805 432.8821C550.813 432.8821 549.617 405.2413 550.9122 405.2413C551.2487 405.2413 552.1382 412.2489 552.5439 412.2489C553.77 412.2489 553.5677 390.5621 554.1757 390.5621C555.1994 390.5621 554.4125 408.9461 555.8074 427.149C556.0442 430.2398 556.3972 433.1495 557.4391 433.1495C558.0289 433.1495 557.9594 430.0307 559.0708 430.0307C559.5911 430.0307 560.4033 430.0307 560.7026 430.2607C562.035 431.2843 561.6139 437.4139 562.3343 437.4139C563.2456 437.4139 562.6785 432.6197 563.966 428.2778C564.3102 427.117 565.3664 427.5995 565.5977 426.4085C566.9981 419.1996 566.1551 411.4781 567.2295 411.4781C567.7868 411.4781 568.2848 415.2477 568.8612 419.096C569.9165 426.1414 569.3437 433.2654 570.4929 433.2654C570.9754 433.2654 571.3326 430.3912 572.1246 427.5039C572.9643 424.4427 573.2275 421.3684 573.7563 421.3684C574.8593 421.3684 574.1649 428.0431 575.3881 434.5092C575.7966 436.6685 576.5065 438.6191 577.0198 438.6191C578.1382 438.6191 577.6843 429.1248 578.6516 429.1248C579.316 429.1248 579.0093 435.5378 580.2833 435.5378C580.6411 435.5378 581.5626 435.4512 581.915 434.6482C583.1943 431.7336 582.6521 428.1026 583.5468 428.1026C584.2838 428.1026 584.681 433.4158 585.1785 433.4158C586.3127 433.4158 586.0567 420.8477 586.8102 420.8477C587.6885 420.8477 587.0361 435.5308 588.442 435.5308C588.6678 435.5308 589.7494 434.9154 590.0737 433.8071C591.3811 429.339 590.9685 424.378 591.7054 424.378C592.6002 424.378 592.8849 435.8821 593.3371 435.8821C594.5166 435.8821 593.7734 405.6217 594.9688 405.6217C595.4052 405.6217 596.1024 411.0582 596.6006 416.5626C597.7342 429.0883 597.1445 441.6819 598.2323 441.6819C598.7762 441.6819 598.9784 429.2006 599.864 429.2006C600.6102 429.2006 600.4813 439.6799 601.4957 439.6799C602.113 439.6799 602.1875 433.436 603.1275 433.436C603.8192 433.436 603.6838 435.8212 604.7592 437.8961C605.3155 438.9693 606.2243 439.7322 606.3909 439.7322C607.856 439.7322 607.1677 418.196 608.0226 418.196C608.7994 418.196 608.665 437.7502 609.6544 437.7502C610.2967 437.7502 609.944 425.1169 611.2861 425.1169C611.5757 425.1169 612.1549 426.1867 612.9178 427.3279C613.7867 428.6274 614.4321 429.9981 614.5496 429.9981C616.0638 429.9981 614.7517 409.75 616.1813 389.7067C616.3835 386.8718 617.5731 384.2417 617.813 384.2417C619.2049 384.2417 617.9719 400.9402 619.4448 417.2862C619.6036 419.0493 620.0837 419.0027 621.0765 420.4598C621.7154 421.3976 622.6804 422.0761 622.7082 422.0761C624.3121 422.0761 623.5529 289.5684 624.34 289.5684C625.1846 289.5684 624.4349 360.7439 625.9717 431.776C626.0667 436.166 626.5144 436.1741 627.6034 440.4126C628.1461 442.5249 628.7696 444.4775 629.2351 444.4775C630.4013 444.4775 629.4532 433.6276 630.8669 433.6276C631.0849 433.6276 631.8808 434.0764 632.4986 434.0764C633.5125 434.0764 633.1398 432.7402 634.1303 431.8287C634.7715 431.2386 635.059 431.6078 635.762 431.0732C636.6908 430.3668 636.4297 429.3466 637.3937 429.3466C638.0614 429.3466 638.8132 429.3466 639.0255 429.5564C640.445 430.9592 640.0063 440.4362 640.6572 440.4362C641.638 440.4362 641.1841 432.144 642.2889 423.941C642.8159 420.0288 642.9407 416.2057 643.9207 416.2057C644.5725 416.2057 645.1157 418.6225 645.5524 421.2046C646.7474 428.2692 647.1841 435.4991 647.1841 435.4991" fill="transparent" stroke="#5470c6" stroke-width="2" stroke-linejoin="bevel" class="zr0-cls-2"></path>
</g>
<path d="M1 0A1 1 0 1 1 1 -0.0001" transform="matrix(2,0,0,2,72.8159,112.3946)" fill="#fff" stroke="#5470c6" class="zr0-cls-3"></path>
<path d="M1 0A1 1 0 1 1 1 -0.0001" transform="matrix(2,0,0,2,102.187,160.4043)" fill="#fff" stroke="#5470c6" class="zr0-cls-3"></path>
<path d="M1 0A1 1 0 1 1 1 -0.0001" transform="matrix(2,0,0,2,131.5581,218.6346)" fill="#fff" stroke="#5470c6" class="zr0-cls-3"></path>
<path d="M1 0A1 1 0 1 1 1 -0.0001" transform="matrix(2,0,0,2,160.9292,259.519)" fill="#fff" stroke="#5470c6" class="zr0-cls-3"></path>
<path d="M1 0A1 1 0 1 1 1 -0.0001" transform="matrix(2,0,0,2,190.3003,334.2563)" fill="#fff" stroke="#5470c6" class="zr0-cls-3"></path>
<path d="M1 0A1 1 0 1 1 1 -0.0001" transform="matrix(2,0,0,2,219.6714,367.8725)" fill="#fff" stroke="#5470c6" class="zr0-cls-3"></path>
<path d="M1 0A1 1 0 1 1 1 -0.0001" transform="matrix(2,0,0,2,249.0425,375.097)" fill="#fff" stroke="#5470c6" class="zr0-cls-3"></path>
<path d="M1 0A1 1 0 1 1 1 -0.0001" transform="matrix(2,0,0,2,278.4136,393.1183)" fill="#fff" stroke="#5470c6" class="zr0-cls-3"></path>
<path d="M1 0A1 1 0 1 1 1 -0.0001" transform="matrix(2,0,0,2,307.7847,405.6445)" fill="#fff" stroke="#5470c6" class="zr0-cls-3"></path>
<path d="M1 0A1 1 0 1 1 1 -0.0001" transform="matrix(2,0,0,2,337.1558,353.6716)" fill="#fff" stroke="#5470c6" class="zr0-cls-3"></path>
<path d="M1 0A1 1 0 1 1 1 -0.0001" transform="matrix(2,0,0,2,366.5269,411.2324)" fill="#fff" stroke="#5470c6" class="zr0-cls-3"></path>
<path d="M1 0A1 1 0 1 1 1 -0.0001" transform="matrix(2,0,0,2,395.898,399.3984)" fill="#fff" stroke="#5470c6" class="zr0-cls-3"></path>
<path d="M1 0A1 1 0 1 1 1 -0.0001" transform="matrix(2,0,0,2,425.2691,434.046)" fill="#fff" stroke="#5470c6" class="zr0-cls-3"></path>
<path d="M1 0A1 1 0 1 1 1 -0.0001" transform="matrix(2,0,0,2,454.6402,418.3181)" fill="#fff" stroke="#5470c6" class="zr0-cls-3"></path>
<path d="M1 0A1 1 0 1 1 1 -0.0001" transform="matrix(2,0,0,2,484.0113,427.9369)" fill="#fff" stroke="#5470c6" class="zr0-cls-3"></path>
<path d="M1 0A1 1 0 1 1 1 -0.0001" transform="matrix(2,0,0,2,513.3824,440.6533)" fill="#fff" stroke="#5470c6" class="zr0-cls-3"></path>
<path d="M1 0A1 1 0 1 1 1 -0.0001" transform="matrix(2,0,0,2,542.7535,423.2917)" fill="#fff" stroke="#5470c6" class="zr0-cls-3"></path>
<path d="M1 0A1 1 0 1 1 1 -0.0001" transform="matrix(2,0,0,2,572.1246,427.5039)" fill="#fff" stroke="#5470c6" class="zr0-cls-3"></path>
<path d="M1 0A1 1 0 1 1 1 -0.0001" transform="matrix(2,0,0,2,601.4957,439.6799)" fill="#fff" stroke="#5470c6" class="zr0-cls-3"></path>
<path d="M1 0A1 1 0 1 1 1 -0.0001" transform="matrix(2,0,0,2,630.8669,433.6276)" fill="#fff" stroke="#5470c6" class="zr0-cls-3"></path>
<defs >
<clipPath id="zr0-c0">
<path d="M71 59l578 0l0 392l-578 0Z" fill="#000" class="zr0-cls-1"></path>
</clipPath>
</defs>
<style ><![CDATA[
.zr0-cls-0:hover {
pointer-events:none;
}
.zr0-cls-1:hover {
cursor:pointer;
fill:rgba(0,0,0,1);
}
.zr0-cls-2:hover {
cursor:pointer;
}
.zr0-cls-3:hover {
cursor:pointer;
fill:rgba(255,255,255,1);
}

]]>

</style>
</svg>