<svg width="720" height="520" xmlns="http://www.w3.org/2000/svg" xmlns:xlink="http://www.w3.org/1999/xlink" version="1.1" baseProfile="full" viewBox="0 0 720 520">
<rect width="720" height="520" x="0" y="0" fill="none"></rect>
<path d="M72 450.5L648 450.5" fill="transparent" stroke="#E0E6F1" class="zr0-cls-0"></path>
<path d="M72 394.5L648 394.5" fill="transparent" stroke="#E0E6F1" class="zr0-cls-0"></path>
<path d="M72 338.5L648 338.5" fill="transparent" stroke="#E0E6F1" class="zr0-cls-0"></path>
<path d="M72 283.5L648 283.5" fill="transparent" stroke="#E0E6F1" class="zr0-cls-0"></path>
<path d="M72 227.5L648 227.5" fill="transparent" stroke="#E0E6F1" class="zr0-cls-0"></path>
<path d="M72 171.5L648 171.5" fill="transparent" stroke="#E0E6F1" class="zr0-cls-0"></path>
<path d="M72 115.5L648 115.5" fill="transparent" stroke="#E0E6F1" class="zr0-cls-0"></path>
<path d="M72 60.5L648 60.5" fill="transparent" stroke="#E0E6F1" class="zr0-cls-0"></path>
<path d="M72 450.5L648 450.5" fill="transparent" stroke="#6E7079" stroke-linecap="round" class="zr0-cls-0"></path>
<path d="M72.5 450L72.5 455" fill="transparent" stroke="#6E7079" class="zr0-cls-0"></path>
<path d="M101.5 450L101.5 455" fill="transparent" stroke="#6E7079" class="zr0-cls-0"></path>
<path d="M130.5 450L130.5 455" fill="transparent" stroke="#6E7079" class="zr0-cls-0"></path>
<path d="M160.5 450L160.5 455" fill="transparent" stroke="#6E7079" class="zr0-cls-0"></path>
<path d="M189.5 450L189.5 455" fill="transparent" stroke="#6E7079" class="zr0-cls-0"></path>
<path d="M219.5 450L219.5 455" fill="transparent" stroke="#6E7079" class="zr0-cls-0"></path>
<path d="M248.5 450L248.5 455" fill="transparent" stroke="#6E7079" class="zr0-cls-0"></path>
<path d="M277.5 450L277.5 455" fill="transparent" stroke="#6E7079" class="zr0-cls-0"></path>
<path d="M307.5 450L307.5 455" fill="transparent" stroke="#6E7079" class="zr0-cls-0"></path>
<path d="M336.5 450L336.5 455" fill="transparent" stroke="#6E7079" class="zr0-cls-0"></path>
<path d="M365.5 450L365.5 455" fill="transparent" stroke="#6E7079" class="zr0-cls-0"></path>
<path d="M395.5 450L395.5 455" fill="transparent" stroke="#6E7079" class="zr0-cls-0"></path>
<path d="M424.5 450L424.5 455" fill="transparent" stroke="#6E7079" class="zr0-cls-0"></path>
<path d="M454.5 450L454.5 455" fill="transparent" stroke="#6E7079" class="zr0-cls-0"></path>
<path d="M483.5 450L483.5 455" fill="transparent" stroke="#6E7079" class="zr0-cls-0"></path>
<path d="M512.5 450L512.5 455" fill="transparent" stroke="#6E7079" class="zr0-cls-0"></path>
<path d="M542.5 450L542.5 455" fill="transparent" stroke="#6E7079" class="zr0-cls-0"></path>
<path d="M571.5 450L571.5 455" fill="transparent" stroke="#6E7079" class="zr0-cls-0"></path>
<path d="M600.5 450L600.5 455" fill="transparent" stroke="#6E7079" class="zr0-cls-0"></path>
<path d="M630.5 450L630.5 455" fill="transparent" stroke="#6E7079" class="zr0-cls-0"></path>
<path d="M648.5 450L648.5 455" fill="transparent" stroke="#6E7079" class="zr0-cls-0"></path>
<text dominant-baseline="central" text-anchor="end" style="font-size:12px;font-family:sans-serif;" transform="translate(64 450)" fill="#6E7079">0</text>
<text dominant-baseline="central" text-anchor="end" style="font-size:12px;font-family:sans-serif;" transform="translate(64 394.2857)" fill="#6E7079">0.3</text>
<text dominant-baseline="central" text-anchor="end" style="font-size:12px;font-family:sans-serif;" transform="translate(64 338.5714)" fill="#6E7079">0.6</text>
<text dominant-baseline="central" text-anchor="end" style="font-size:12px;font-family:sans-serif;" transform="translate(64 282.8571)" fill="#6E7079">0.9</text>
<text dominant-baseline="central" text-anchor="end" style="font-size:12px;font-family:sans-serif;" transform="translate(64 227.1429)" fill="#6E7079">1.2</text>
<text dominant-baseline="central" text-anchor="end" style="font-size:12px;font-family:sans-serif;" transform="translate(64 171.4286)" fill="#6E7079">1.5</text>
<text dominant-baseline="central" text-anchor="end" style="font-size:12px;font-family:sans-serif;" transform="translate(64 115.7143)" fill="#6E7079">1.8</text>
<text dominant-baseline="central" text-anchor="end" style="font-size:12px;font-family:sans-serif;" transform="translate(64 60)" fill="#6E7079">2.1</text>
<text dominant-baseline="central" text-anchor="middle" style="font-size:12px;font-family:sans-serif;" y="6" transform="translate(72.8159 458)" fill="#6E7079">0</text>
<text dominant-baseline="central" text-anchor="middle" style="font-size:12px;font-family:sans-serif;" y="6" transform="translate(102.187 458)" fill="#6E7079">18</text>
<text dominant-baseline="central" text-anchor="middle" style="font-size:12px;font-family:sans-serif;" y="6" transform="translate(131.5581 458)" fill="#6E7079">36</text>
<text dominant-baseline="central" text-anchor="middle" style="font-size:12px;font-family:sans-serif;" y="6" transform="translate(160.9292 458)" fill="#6E7079">54</text>
<text dominant-baseline="central" text-anchor="middle" style="font-size:12px;font-family:sans-serif;" y="6" transform="translate(190.3003 458)" fill="#6E7079">72</text>
<text dominant-baseline="central" text-anchor="middle" style="font-size:12px;font-family:sans-serif;" y="6" transform="translate(219.6714 458)" fill="#6E7079">90</text>
<text dominant-baseline="central" text-anchor="middle" style="font-size:12px;font-family:sans-serif;" y="6" transform="translate(249.0425 458)" fill="#6E7079">108</text>
<text dominant-baseline="central" text-anchor="middle" style="font-size:12px;font-family:sans-serif;" y="6" transform="translate(278.4136 458)" fill="#6E7079">126</text>
<text dominant-baseline="central" text-anchor="middle" style="font-size:12px;font-family:sans-serif;" y="6" transform="translate(307.7847 458)" fill="#6E7079">144</text>
<text dominant-baseline="central" text-anchor="middle" style="font-size:12px;font-family:sans-serif;" y="6" transform="translate(337.1558 458)" fill="#6E7079">162</text>
<text dominant-baseline="central" text-anchor="middle" style="font-size:12px;font-family:sans-serif;" y="6" transform="translate(366.5269 458)" fill="#6E7079">180</text>
<text dominant-baseline="central" text-anchor="middle" style="font-size:12px;font-family:sans-serif;" y="6" transform="translate(395.898 458)" fill="#6E7079">198</text>
<text dominant-baseline="central" text-anchor="middle" style="font-size:12px;font-family:sans-serif;" y="6" transform="translate(425.2691 458)" fill="#6E7079">216</text>
<text dominant-baseline="central" text-anchor="middle" style="font-size:12px;font-family:sans-serif;" y="6" transform="translate(454.6402 458)" fill="#6E7079">234</text>
<text dominant-baseline="central" text-anchor="middle" style="font-size:12px;font-family:sans-serif;" y="6" transform="translate(484.0113 458)" fill="#6E7079">252</text>
<text dominant-baseline="central" text-anchor="middle" style="font-size:12px;font-family:sans-serif;" y="6" transform="translate(513.3824 458)" fill="#6E7079">270</text>
<text dominant-baseline="central" text-anchor="middle" style="font-size:12px;font-family:sans-serif;" y="6" transform="translate(542.7535 458)" fill="#6E7079">288</text>
<text dominant-baseline="central" text-anchor="middle" style="font-size:12px;font-family:sans-serif;" y="6" transform="translate(572.1246 458)" fill="#6E7079">306</text>
<text dominant-baseline="central" text-anchor="middle" style="font-size:12px;font-family:sans-serif;" y="6" transform="translate(601.4958 458)" fill="#6E7079">324</text>
<text dominant-baseline="central" text-anchor="middle" style="font-size:12px;font-family:sans-serif;" y="6" transform="translate(630.8669 458)" fill="#6E7079">342</text>
<g clip-path="url(#zr0-c0)">
<path d="M72.8159 88.3299C72.8159 88.3299 73.1185 99.9625 74.4476 111.3948C74.7503 113.9982 75.7164 113.8053 76.0793 116.4013C77.3481 125.477 76.718 134.7381 77.7111 134.7381C78.3497 134.7381 78.0664 128.7185 79.3428 123.0126C79.6981 121.4242 80.057 120.1494 80.9745 120.1494C81.6887 120.1494 82.3841 120.8916 82.6062 122.1287C84.0158 129.9784 82.9475 138.3232 84.238 138.3232C84.5792 138.3232 85.5827 136.4585 85.8697 134.3407C87.2145 124.4162 86.9141 114.2386 87.5014 114.2386C88.5458 114.2386 87.7353 150.067 89.1331 150.067C89.3671 150.067 90.1346 144.2913 90.7649 144.2913C91.7663 144.2913 91.3005 153.6875 92.3966 153.6875C92.9322 153.6875 93.7871 149.3228 94.0283 149.3228C95.4188 149.3228 94.7376 176.1278 95.6601 176.1278C96.3694 176.1278 95.9346 165.7025 97.2918 155.5425C97.5663 153.4874 98.7935 151.6976 98.9235 151.6976C100.4252 151.6976 99.3464 199.9008 100.5552 199.9008C100.9781 199.9008 101.0849 183.1083 102.187 183.1083C102.7167 183.1083 103.3411 191.0518 103.8187 191.0518C104.9728 191.0518 105.153 171.5238 105.4504 171.5238C106.7847 171.5238 106.0359 259.4072 107.0822 259.4072C107.6677 259.4072 107.4135 234.7843 108.7139 210.2409C109.0452 203.9875 109.5197 204.026 110.3456 197.8137C111.1515 191.7519 111.3382 185.6928 111.9773 185.6928C112.9699 185.6928 112.4855 195.1962 113.6091 204.6138C114.1173 208.8734 114.8915 208.7736 115.2408 213.0473C116.5232 228.7357 115.9875 228.7965 116.8725 244.5379C117.6192 257.8179 117.8601 271.0901 118.5042 271.0901C119.4918 271.0901 119.0605 230.3391 120.136 230.3391C120.6922 230.3391 120.9282 240.8557 121.7677 251.3685C122.56 261.2901 122.6786 261.2812 123.3994 271.208C124.3103 283.7526 124.1395 283.765 125.0312 296.3112C125.7713 306.7254 126.2385 317.1288 126.6629 317.1288C127.8702 317.1288 127.4955 257.7493 128.2946 257.7493C129.1272 257.7493 129.0214 319.6226 129.9263 319.6226C130.6531 319.6226 130.1707 294.7175 131.5581 269.9388C131.8024 265.5746 132.9948 261.3367 133.1898 261.3367C134.6265 261.3367 133.6758 293.5925 134.8215 325.8202C135.3075 339.4897 135.4475 353.1311 136.4533 353.1311C137.0793 353.1311 137.6084 344.6782 138.085 336.1794C139.2401 315.5817 139.0245 294.938 139.7167 294.938C140.6562 294.938 139.9146 323.0066 141.3484 350.925C141.5463 354.7781 142.706 358.481 142.9802 358.481C144.3377 358.481 143.7861 320.2381 144.6119 320.2381C145.4179 320.2381 144.7304 339.1298 146.2436 357.563C146.3621 359.0068 147.0479 359.9921 147.8754 359.9921C148.6796 359.9921 149.307 359.049 149.5071 357.6624C150.9388 347.7381 150.5601 337.3703 151.1388 337.3703C152.1918 337.3703 151.9412 374.3766 152.7705 374.3766C153.5729 374.3766 153.6093 338.5741 154.4023 338.5741C155.241 338.5741 154.4968 357.8225 156.034 376.445C156.1285 377.5899 156.8099 378.1088 157.6657 378.1088C158.4417 378.1088 158.7033 376.7663 159.2975 376.7663C160.335 376.7663 160.6355 380.0755 160.9292 380.0755C162.2672 380.0755 162.02 363.3481 162.5609 363.3481C163.6517 363.3481 163.1435 397.2032 164.1926 397.2032C164.7752 397.2032 164.7386 387.7924 165.8244 378.4522C166.3704 373.7551 167.1197 369.1287 167.4561 369.1287C168.7514 369.1287 168.1392 405.534 169.0878 405.534C169.7709 405.534 169.5964 392.408 170.7195 379.3437C171.2281 373.4282 171.6013 367.5744 172.3513 367.5744C173.2331 367.5744 173.0602 374.5268 173.983 381.4502C174.692 386.7692 174.9785 386.7321 175.6147 392.0593C176.6102 400.3947 176.7322 408.7753 177.2465 408.7753C178.364 408.7753 177.792 372.3126 178.8782 372.3126C179.4237 372.3126 179.1291 381.6172 180.5099 390.5716C180.7608 392.1985 181.7348 391.8797 182.1416 393.4751C183.3666 398.2788 183.2628 403.3698 183.7734 403.3698C184.8946 403.3698 184.0015 381.4078 185.4051 381.4078C185.6333 381.4078 186.8975 382.8226 187.0368 384.5942C188.5292 403.5734 187.5225 422.9095 188.6685 422.9095C189.1542 422.9095 189.1677 414.7723 190.3003 406.7407C190.7994 403.2011 190.6646 399.7672 191.932 399.7672C192.2963 399.7672 192.8989 401.0222 193.5637 401.0222C194.5307 401.0222 195.0644 399.9878 195.1955 398.5117C196.6962 381.6056 196.2628 364.2577 196.8272 364.2577C197.8945 364.2577 197.1131 429.0806 198.4589 429.0806C198.7448 429.0806 199.543 422.2656 200.0907 415.4025C201.1748 401.8159 200.9617 388.1812 201.7224 388.1812C202.5934 388.1812 202.0435 419.3626 203.3541 419.3626C203.6753 419.3626 203.7337 415.3881 204.9858 411.8876C205.3654 410.8266 206.4094 411.351 206.6176 410.2395C208.0411 402.6399 207.691 394.4654 208.2493 394.4654C209.3227 394.4654 208.8036 424.9137 209.881 424.9137C210.4353 424.9137 210.4196 409.313 211.5127 409.313C212.0513 409.313 211.7999 415.7048 213.1445 416.8676C213.4316 417.1159 214.2286 416.8676 214.7762 417.1159C215.8603 417.6075 215.6158 419.9468 216.4079 419.9468C217.2475 419.9468 217.324 416.8923 218.0397 416.8923C218.9557 416.8923 219.2084 418.8583 219.6714 421.0132C220.8401 426.4525 220.599 432.0808 221.3031 432.0808C222.2308 432.0808 221.8433 424.7096 222.9348 417.4321C223.475 413.8306 224.2661 413.949 224.5666 410.3228C225.8978 394.2568 225.5354 378.0475 226.1983 378.0475C227.1671 378.0475 226.4774 401.7038 227.83 425.2509C228.1091 430.1091 229.0951 434.8581 229.4618 434.8581C230.7268 434.8581 230.2724 401.2748 231.0935 401.2748C231.9041 401.2748 231.7483 434.4284 232.7252 434.4284C233.38 434.4284 233.7505 423.3476 234.3569 412.2423C235.3822 393.4656 234.6766 374.6645 235.9887 374.6645C236.3083 374.6645 237.3569 379.1132 237.6204 383.6803C238.9886 407.3903 238.0622 431.2187 239.2521 431.2187C239.6939 431.2187 240.096 413.6346 240.8839 413.6346C241.7278 413.6346 241.0613 432.481 242.5156 432.481C242.693 432.481 243.369 431.6995 244.1473 430.849C245.0007 429.9165 245.1797 430.0125 245.779 428.9151C246.8115 427.0246 246.9362 426.9882 247.4108 424.8731C248.5679 419.7166 248.1684 414.372 249.0425 414.372C249.8001 414.372 249.9979 418.8829 250.6742 423.4365C251.6297 429.8697 251.6129 436.3456 252.306 436.3456C253.2447 436.3456 253.6362 427.6005 253.9377 418.7969C255.2679 379.9501 254.533 341.0448 255.5694 341.0448C256.1647 341.0448 256.3683 363.3646 257.2011 385.6832C258 407.0913 257.7587 428.498 258.8329 428.498C259.3904 428.498 259.5962 406.3166 260.4646 406.3166C261.228 406.3166 260.8874 416.1231 262.0963 425.8008C262.5191 429.1855 262.9585 429.1104 263.7281 432.4416C264.5903 436.1739 264.9513 439.9277 265.3598 439.9277C266.5831 439.9277 266.0741 417.0377 266.9915 417.0377C267.7059 417.0377 268.2632 434.8329 268.6232 434.8329C269.8949 434.8329 269.0888 371.745 270.2549 371.745C270.7205 371.745 271.0862 384.3163 271.8867 396.8895C272.7179 409.9453 273.0161 423.003 273.5184 423.003C274.6478 423.003 274.0527 364.197 275.1501 364.197C275.6844 364.197 275.9815 378.4929 276.7819 392.7905C277.6132 407.6409 276.9485 407.8279 278.4136 422.493C278.5802 424.1605 279.8968 425.4558 280.0453 425.4558C281.5285 425.4558 280.3467 391.7183 281.6771 391.7183C281.9784 391.7183 282.9571 395.3918 283.3088 399.1932C284.5889 413.0314 283.431 426.9975 284.9405 426.9975C285.0627 426.9975 285.6359 425.9465 286.5722 425.4418C287.2676 425.0669 288.0051 425.4418 288.204 425.0669C289.6369 422.3659 289.2158 413.1138 289.8357 413.1138C290.8475 413.1138 289.9615 430.2282 291.4674 432.7365C291.5932 432.946 292.7512 432.946 293.0992 432.946C294.383 432.946 294.2691 427.0988 294.7309 427.0988C295.9008 427.0988 295.5517 442.3912 296.3626 442.3912C297.1834 442.3912 297.0537 426.9095 297.9943 426.9095C298.6854 426.9095 298.9485 438.23 299.6261 438.23C300.5802 438.23 300.8399 430.2463 301.2578 422.2081C302.4716 398.8601 302.0281 398.8312 302.8895 375.4576C303.6599 354.5541 303.9812 333.6539 304.5212 333.6539C305.6129 333.6539 304.8895 375.9504 306.153 418.2086C306.5213 430.5259 306.2547 442.8049 307.7847 442.8049C307.8865 442.8049 309.1794 442.8049 309.4164 442.6457C310.8111 441.7091 310.683 437.9411 311.0482 433.1375C312.3148 416.4732 311.1339 415.658 312.6799 399.7098C312.7656 398.8254 314.2378 399.7098 314.3116 398.8254C315.8695 380.159 315.3328 359.6876 315.9433 359.6876C316.9646 359.6876 316.1786 392.4902 317.5751 425.192C317.8103 430.7 318.8402 436.1072 319.2068 436.1072C320.472 436.1072 319.9345 398.0489 320.8385 398.0489C321.5662 398.0489 321.4357 428.6664 322.4702 428.6664C323.0674 428.6664 323.2623 411.0445 324.102 411.0445C324.8941 411.0445 324.3717 419.5252 325.7337 427.6594C326.0034 429.27 326.9433 428.9554 327.3654 430.5341C328.575 435.0578 328.271 439.8643 328.9972 439.8643C329.9027 439.8643 329.5355 428.1662 330.6289 428.1662C331.1672 428.1662 331.5047 430.9403 332.2606 433.7469C333.1364 436.9985 333.5795 440.2825 333.8924 440.2825C335.2112 440.2825 334.108 411.9378 335.5241 411.9378C335.7397 411.9378 336.793 415.9417 337.1558 415.9417C338.4247 415.9417 338.3047 400.9081 338.7875 400.9081C339.9365 400.9081 339.2611 436.8564 340.4193 436.8564C340.8928 436.8564 340.7501 429.4042 342.051 422.2322C342.3819 420.4081 343.5235 420.7152 343.6827 418.8641C345.1553 401.739 344.6891 384.2798 345.3145 384.2798C346.3208 384.2798 345.5001 439.9681 346.9462 439.9681C347.1318 439.9681 347.8553 433.0051 348.5779 433.0051C349.487 433.0051 349.5298 441.8528 350.2096 441.8528C351.1615 441.8528 350.413 429.3623 351.8414 429.3623C352.0448 429.3623 352.6444 430.1073 353.4731 430.1073C354.2761 430.1073 354.787 429.5081 355.1048 429.5081C356.4187 429.5081 356.0924 436.5065 356.7365 436.5065C357.7241 436.5065 357.7068 425.6113 358.3683 425.6113C359.3386 425.6113 359.2386 441.6887 360 441.6887C360.8703 441.6887 360.7184 423.2884 361.6317 423.2884C362.3501 423.2884 362.9807 437.7269 363.2635 437.7269C364.6125 437.7269 363.943 368.4143 364.8952 368.4143C365.5747 368.4143 365.3424 393.1643 366.5269 417.8698C366.9741 427.1961 367.3673 436.478 368.1586 436.478C368.9991 436.478 368.8591 416.7061 369.7904 416.7061C370.4909 416.7061 370.3796 424.1578 371.4221 431.5399C372.0113 435.7119 372.0015 435.7444 373.0538 439.8145C373.6332 442.0554 374.0103 444.1619 374.6855 444.1619C375.642 444.1619 375.0111 437.7907 376.3173 437.7907C376.6428 437.7907 377.9084 437.9472 377.949 437.9472C379.5402 437.9472 378.755 373.6801 379.5807 373.6801C380.3868 373.6801 379.641 405.3541 381.2125 436.4142C381.2727 437.6047 382.7258 438.1815 382.8442 438.1815C384.3575 438.1815 383.4286 407.4866 384.4759 407.4866C385.0603 407.4866 385.2613 424.5591 386.1076 424.5591C386.893 424.5591 387.1257 408.729 387.7394 408.729C388.7574 408.729 388.7004 435.0798 389.3711 435.0798C390.3322 435.0798 390.1342 397.2819 391.0028 397.2819C391.7659 397.2819 391.3138 430.4764 392.6346 430.4764C392.9455 430.4764 393.6678 422.8241 394.2663 422.8241C395.2996 422.8241 394.5841 436.2343 395.898 436.2343C396.2158 436.2343 397.0955 433.4032 397.5298 433.4032C398.7272 433.4032 398.18 442.2638 399.1615 442.2638C399.8117 442.2638 399.8151 436.5218 400.7932 436.5218C401.4468 436.5218 402.1386 440.1615 402.4249 440.1615C403.7703 440.1615 402.7278 421.4911 404.0567 421.4911C404.3596 421.4911 405.2302 423.3658 405.6884 425.4391C406.8619 430.7494 406.6061 436.2583 407.3201 436.2583C408.2378 436.2583 408.1509 429.276 408.9518 422.2903C409.7826 415.0449 409.857 407.796 410.5836 407.796C411.4887 407.796 411.0503 416.9009 412.2153 425.8945C412.6821 429.4981 412.7493 429.5461 413.847 432.9904C414.3811 434.6661 414.8281 434.4937 415.4788 436.1346C416.4598 438.6085 416.6826 441.22 417.1105 441.22C418.3143 441.22 417.6605 426.2833 418.7422 426.2833C419.2923 426.2833 419.1772 433.7479 420.3739 433.7479C420.809 433.7479 421.4988 432.7725 422.0057 431.5002C423.1305 428.6766 422.9615 425.5561 423.6374 425.5561C424.5932 425.5561 424.3612 434.1182 425.2691 434.1182C425.9929 434.1182 426.2567 427.3641 426.9008 427.3641C427.8884 427.3641 427.258 432.8032 428.5326 437.8907C428.8898 439.3164 429.4913 439.0651 430.1643 440.3905C431.123 442.2783 431.3582 444.317 431.796 444.317C432.9899 444.317 431.9993 432.8376 433.4278 432.8376C433.6311 432.8376 434.7563 432.8376 435.0595 433.0844C436.3881 434.1662 436.2784 440.1306 436.6912 440.1306C437.9102 440.1306 437.1587 418.8348 438.3229 418.8348C438.7904 418.8348 439.4119 423.0047 439.9547 427.2534C441.0436 435.7772 440.111 436.7073 441.5864 444.3798C441.7427 445.1929 443.1524 445.1929 443.2181 445.1929C444.7841 445.1929 443.8467 401.7952 444.8499 401.7952C445.4784 401.7952 445.1723 415.4532 446.4816 428.9591C446.804 432.2845 446.8575 435.4578 448.1133 435.4578C448.4893 435.4578 448.8453 434.291 449.7451 434.291C450.4771 434.291 451.1782 434.291 451.3768 434.3232C452.8099 434.5558 452.0013 445.9882 453.0085 445.9882C453.633 445.9882 453.693 442.3921 454.6402 438.8687C455.3247 436.3228 455.6095 433.8496 456.2719 433.8496C457.2413 433.8496 457.0737 441.3981 457.9037 441.3981C458.7055 441.3981 458.2719 434.1182 459.5354 434.1182C459.9037 434.1182 460.8439 435.5555 461.1671 435.5555C462.4756 435.5555 462.1427 426.9065 462.7989 426.9065C463.7744 426.9065 464.1331 439.8904 464.4306 439.8904C465.7648 439.8904 465.1021 381.2328 466.0623 381.2328C466.7339 381.2328 466.4301 401.7764 467.6941 422.2405C468.0619 428.1955 468.2533 428.2081 469.3258 434.0711C469.8851 437.1287 470.3684 440.0817 470.9575 440.0817C472.0002 440.0817 471.9448 434.6519 472.5892 429.1798C473.5766 420.7956 472.8757 412.3692 474.221 412.3692C474.5074 412.3692 475.6309 413.806 475.8527 415.5732C477.2626 426.8082 476.1209 427.0967 477.4844 438.3737C477.7526 440.5919 478.4385 442.5635 479.1161 442.5635C480.0702 442.5635 480.5493 439.5977 480.7479 436.4475C482.1811 413.7047 481.6136 390.7775 482.3796 390.7775C483.2454 390.7775 482.8924 442.4051 484.0113 442.4051C484.5241 442.4051 484.8521 418.7916 485.6431 418.7916C486.4839 418.7916 486.1335 443.9 487.2748 443.9C487.7653 443.9 487.8694 433.2101 488.9065 433.2101C489.5011 433.2101 489.4008 436.3592 490.5382 439.191C491.0325 440.4215 491.1651 441.3347 492.17 441.3347C492.7969 441.3347 492.9888 440.9315 493.8017 440.9315C494.6206 440.9315 495.1121 441.3837 495.4334 441.3837C496.7439 441.3837 496.2173 434.6738 497.0652 434.6738C497.849 434.6738 498.1234 440.846 498.6969 440.846C499.7552 440.846 499.514 435.0118 500.3286 429.1772C501.1457 423.3251 501.4292 417.4726 501.9603 417.4726C503.0609 417.4726 502.0646 441.9042 503.5921 441.9042C503.6963 441.9042 504.8186 441.5434 505.2238 441.5434C506.4504 441.5434 506.531 446.3325 506.8555 446.3325C508.1627 446.3325 507.5099 426.0179 508.4872 426.0179C509.1416 426.0179 508.6666 439.5638 510.119 439.5638C510.2984 439.5638 511.7056 439.5638 511.7507 439.1425C513.3373 424.3178 512.6051 379.8727 513.3824 379.8727C514.2368 379.8727 513.7317 445.0237 515.0142 445.0237C515.3634 445.0237 515.7323 427.3521 516.6459 427.3521C517.3641 427.3521 517.0069 441.2077 518.2776 441.2077C518.6386 441.2077 518.9444 439.3141 519.9094 437.5958C520.5761 436.4086 520.745 435.3968 521.5411 435.3968C522.3767 435.3968 522.6627 437.763 523.1728 437.763C524.2945 437.763 524.1487 431.6565 524.8045 431.6565C525.7804 431.6565 525.953 440.9193 526.4363 440.9193C527.5847 440.9193 526.7886 418.631 528.068 418.631C528.4203 418.631 529.1529 421.5426 529.6997 424.5639C530.7846 430.5579 530.5878 436.6616 531.3314 436.6616C532.2196 436.6616 532.1367 422.1721 532.9632 422.1721C533.7685 422.1721 533.1411 431.3856 534.5949 436.285C534.7728 436.8845 535.8926 436.8845 536.2266 436.8845C537.5243 436.8845 537.3738 430.3321 537.8583 430.3321C539.0056 430.3321 538.2977 446.2382 539.4901 446.2382C539.9294 446.2382 540.2007 440.578 541.1218 440.578C541.8324 440.578 541.7794 444.8193 542.7535 444.8193C543.4112 444.8193 543.6391 443.5596 544.3853 442.2213C545.2709 440.6329 545.3364 440.6501 546.017 438.9659C546.9682 436.6119 547.5134 436.6776 547.6487 434.1448C549.1451 406.1528 548.3411 377.9164 549.2805 377.9164C549.9728 377.9164 549.8803 398.6436 550.9122 419.3476C551.512 431.3837 551.1002 443.3967 552.5439 443.3967C552.7319 443.3967 553.102 440.714 554.1757 440.714C554.7337 440.714 555.5511 440.7526 555.8074 440.7526C557.1828 440.7526 556.6121 436.4478 557.4391 432.1473C558.2438 427.9625 558.5505 423.782 559.0708 423.782C560.1822 423.782 559.3547 432.9924 560.7026 441.9144C560.9864 443.7932 561.4993 445.3835 562.3343 445.3835C563.1311 445.3835 562.9509 443.5969 563.966 442.1092C564.5827 441.2053 565.1288 441.5734 565.5977 440.6002C566.7606 438.1865 566.5872 435.3353 567.2295 435.3353C568.219 435.3353 567.6447 443.6693 568.8612 443.6693C569.2765 443.6693 569.6824 441.2733 570.4929 441.2733C571.3141 441.2733 571.2733 443.7156 572.1246 443.7156C572.905 443.7156 573.0349 441.5742 573.7563 441.5742C574.6666 441.5742 574.3505 444.5533 575.3881 444.5533C575.9823 444.5533 576.794 444.3983 577.0198 443.4948C578.4257 437.8701 577.2287 436.3007 578.6516 431.497C578.8604 430.7917 580.1024 430.7917 580.2833 430.7917C581.7341 430.7917 580.5973 444.9574 581.915 444.9574C582.2291 444.9574 582.6197 443.3922 583.5468 441.9766C584.2514 440.9007 584.5497 441.0892 585.1785 439.9746C586.1814 438.1967 586.2448 436.1916 586.8102 436.1916C587.8765 436.1916 587.3967 443.7878 588.442 443.7878C589.0284 443.7878 588.8951 439.7456 590.0737 439.7456C590.5269 439.7456 591.2727 440.1293 591.7054 440.1293C592.9044 440.1293 592.1295 435.8005 593.3371 435.7799C593.7613 435.7727 594.7702 435.7727 594.9688 435.7727C596.402 435.7727 596.0136 447.4358 596.6006 447.4358C597.6454 447.4358 597.0499 426.5381 598.2323 426.5381C598.6816 426.5381 598.5138 432.8477 599.864 434.334C600.1456 434.6439 601.0948 434.334 601.4957 434.6439C602.7265 435.5953 601.8955 439.474 603.1275 439.474C603.5273 439.474 604.455 439.2017 604.7592 439.2017C606.0867 439.2017 605.5714 446.2322 606.3909 446.2322C607.2031 446.2322 607.031 439.2685 608.0226 439.2685C608.6628 439.2685 609.1132 443.5877 609.6544 443.5877C610.7449 443.5877 610.5672 434.4292 611.2861 434.4292C612.1989 434.4292 611.9592 446.1266 612.9178 446.1266C613.5909 446.1266 613.1862 437.9975 614.5496 437.9975C614.8179 437.9975 615.9198 438.0023 616.1813 438.0023C617.5516 438.0023 617.0312 429.608 617.813 429.608C618.663 429.608 618.4573 434.223 619.4448 438.7597C620.089 441.7195 620.6339 444.601 621.0765 444.601C622.2656 444.601 621.8684 436.4916 622.7082 428.3873C623.5002 420.744 623.6583 413.1056 624.34 413.1056C625.2901 413.1056 624.8399 423.8246 625.9717 434.4643C626.4716 439.1635 626.9388 443.7834 627.6034 443.7834C628.5705 443.7834 628.2546 430.1146 629.2351 430.1146C629.8864 430.1146 629.5735 434.8525 630.8669 439.1111C631.2052 440.2252 631.9572 439.818 632.4986 440.86C633.589 442.9589 633.0598 443.2736 634.1303 445.3929C634.6915 446.5041 635.5595 447.321 635.762 447.321C637.1912 447.321 636.2733 429.5758 637.3937 429.5758C637.905 429.5758 638.3191 437.5416 639.0255 437.5416C639.9508 437.5416 640.1043 427.0174 640.6572 427.0174C641.736 427.0174 641.2144 447.7297 642.2889 447.7297C642.8462 447.7297 642.9343 442.3714 643.9207 437.0797C644.566 433.6177 644.8827 430.2224 645.5524 430.2224C646.5145 430.2224 647.1841 440.2156 647.1841 440.2156" fill="transparent" stroke="rgb(84,112,198)" stroke-width="2" stroke-linejoin="bevel" class="zr0-cls-2"></path>
</g>
<path d="M1 0A1 1 0 1 1 1 -0.0001" transform="matrix(2,0,0,2,72.8159,88.3299)" fill="#fff" stroke="#5470c6" class="zr0-cls-3"></path>
<path d="M1 0A1 1 0 1 1 1 -0.0001" transform="matrix(2,0,0,2,102.187,183.1083)" fill="#fff" stroke="#5470c6" class="zr0-cls-3"></path>
<path d="M1 0A1 1 0 1 1 1 -0.0001" transform="matrix(2,0,0,2,131.5581,269.9388)" fill="#fff" stroke="#5470c6" class="zr0-cls-3"></path>
<path d="M1 0A1 1 0 1 1 1 -0.0001" transform="matrix(2,0,0,2,160.9292,380.0755)" fill="#fff" stroke="#5470c6" class="zr0-cls-3"></path>
<path d="M1 0A1 1 0 1 1 1 -0.0001" transform="matrix(2,0,0,2,190.3003,406.7407)" fill="#fff" stroke="#5470c6" class="zr0-cls-3"></path>
<path d="M1 0A1 1 0 1 1 1 -0.0001" transform="matrix(2,0,0,2,219.6714,421.0132)" fill="#fff" stroke="#5470c6" class="zr0-cls-3"></path>
<path d="M1 0A1 1 0 1 1 1 -0.0001" transform="matrix(2,0,0,2,249.0425,414.372)" fill="#fff" stroke="#5470c6" class="zr0-cls-3"></path>
<path d="M1 0A1 1 0 1 1 1 -0.0001" transform="matrix(2,0,0,2,278.4136,422.493)" fill="#fff" stroke="#5470c6" class="zr0-cls-3"></path>
<path d="M1 0A1 1 0 1 1 1 -0.0001" transform="matrix(2,0,0,2,307.7847,442.8049)" fill="#fff" stroke="#5470c6" class="zr0-cls-3"></path>
<path d="M1 0A1 1 0 1 1 1 -0.0001" transform="matrix(2,0,0,2,337.1558,415.9417)" fill="#fff" stroke="#5470c6" class="zr0-cls-3"></path>
<path d="M1 0A1 1 0 1 1 1 -0.0001" transform="matrix(2,0,0,2,366.5269,417.8698)" fill="#fff" stroke="#5470c6" class="zr0-cls-3"></path>
<path d="M1 0A1 1 0 1 1 1 -0.0001" transform="matrix(2,0,0,2,395.898,436.2343)" fill="#fff" stroke="#5470c6" class="zr0-cls-3"></path>
<path d="M1 0A1 1 0 1 1 1 -0.0001" transform="matrix(2,0,0,2,425.2691,434.1182)" fill="#fff" stroke="#5470c6" class="zr0-cls-3"></path>
<path d="M1 0A1 1 0 1 1 1 -0.0001" transform="matrix(2,0,0,2,454.6402,438.8687)" fill="#fff" stroke="#5470c6" class="zr0-cls-3"></path>
<path d="M1 0A1 1 0 1 1 1 -0.0001" transform="matrix(2,0,0,2,484.0113,442.4051)" fill="#fff" stroke="#5470c6" class="zr0-cls-3"></path>
<path d="M1 0A1 1 0 1 1 1 -0.0001" transform="matrix(2,0,0,2,513.3824,379.8727)" fill="#fff" stroke="#5470c6" class="zr0-cls-3"></path>
<path d="M1 0A1 1 0 1 1 1 -0.0001" transform="matrix(2,0,0,2,542.7535,444.8193)" fill="#fff" stroke="#5470c6" class="zr0-cls-3"></path>
<path d="M1 0A1 1 0 1 1 1 -0.0001" transform="matrix(2,0,0,2,572.1246,443.7156)" fill="#fff" stroke="#5470c6" class="zr0-cls-3"></path>
<path d="M1 0A1 1 0 1 1 1 -0.0001" transform="matrix(2,0,0,2,601.4957,434.6439)" fill="#fff" stroke="#5470c6" class="zr0-cls-3"></path>
<path d="M1 0A1 1 0 1 1 1 -0.0001" transform="matrix(2,0,0,2,630.8669,439.1111)" fill="#fff" stroke="#5470c6" class="zr0-cls-3"></path>
<defs >
<clipPath id="zr0-c0">
<path d="M71 59l578 0l0 392l-578 0Z" fill="#000" class="zr0-cls-1"></path>
</clipPath>
</defs>
<style ><![CDATA[
.zr0-cls-0:hover {
pointer-events:none;
}
.zr0-cls-1:hover {
cursor:pointer;
fill:rgba(0,0,0,1);
}
.zr0-cls-2:hover {
cursor:pointer;
}
.zr0-cls-3:hover {
cursor:pointer;
fill:rgba(255,255,255,1);
}

]]>

</style>
</svg>