<svg width="720" height="520" xmlns="http://www.w3.org/2000/svg" xmlns:xlink="http://www.w3.org/1999/xlink" version="1.1" baseProfile="full" viewBox="0 0 720 520">
<rect width="720" height="520" x="0" y="0" fill="none"></rect>
<path d="M72 450.5L648 450.5" fill="transparent" stroke="#E0E6F1" class="zr0-cls-8"></path>
<path d="M72 394.5L648 394.5" fill="transparent" stroke="#E0E6F1" class="zr0-cls-8"></path>
<path d="M72 338.5L648 338.5" fill="transparent" stroke="#E0E6F1" class="zr0-cls-8"></path>
<path d="M72 283.5L648 283.5" fill="transparent" stroke="#E0E6F1" class="zr0-cls-8"></path>
<path d="M72 227.5L648 227.5" fill="transparent" stroke="#E0E6F1" class="zr0-cls-8"></path>
<path d="M72 171.5L648 171.5" fill="transparent" stroke="#E0E6F1" class="zr0-cls-8"></path>
<path d="M72 115.5L648 115.5" fill="transparent" stroke="#E0E6F1" class="zr0-cls-8"></path>
<path d="M72 60.5L648 60.5" fill="transparent" stroke="#E0E6F1" class="zr0-cls-8"></path>
<path d="M72 450.5L648 450.5" fill="transparent" stroke="#6E7079" stroke-linecap="round" class="zr0-cls-8"></path>
<path d="M72.5 450L72.5 455" fill="transparent" stroke="#6E7079" class="zr0-cls-8"></path>
<path d="M101.5 450L101.5 455" fill="transparent" stroke="#6E7079" class="zr0-cls-8"></path>
<path d="M130.5 450L130.5 455" fill="transparent" stroke="#6E7079" class="zr0-cls-8"></path>
<path d="M160.5 450L160.5 455" fill="transparent" stroke="#6E7079" class="zr0-cls-8"></path>
<path d="M189.5 450L189.5 455" fill="transparent" stroke="#6E7079" class="zr0-cls-8"></path>
<path d="M219.5 450L219.5 455" fill="transparent" stroke="#6E7079" class="zr0-cls-8"></path>
<path d="M248.5 450L248.5 455" fill="transparent" stroke="#6E7079" class="zr0-cls-8"></path>
<path d="M277.5 450L277.5 455" fill="transparent" stroke="#6E7079" class="zr0-cls-8"></path>
<path d="M307.5 450L307.5 455" fill="transparent" stroke="#6E7079" class="zr0-cls-8"></path>
<path d="M336.5 450L336.5 455" fill="transparent" stroke="#6E7079" class="zr0-cls-8"></path>
<path d="M365.5 450L365.5 455" fill="transparent" stroke="#6E7079" class="zr0-cls-8"></path>
<path d="M395.5 450L395.5 455" fill="transparent" stroke="#6E7079" class="zr0-cls-8"></path>
<path d="M424.5 450L424.5 455" fill="transparent" stroke="#6E7079" class="zr0-cls-8"></path>
<path d="M454.5 450L454.5 455" fill="transparent" stroke="#6E7079" class="zr0-cls-8"></path>
<path d="M483.5 450L483.5 455" fill="transparent" stroke="#6E7079" class="zr0-cls-8"></path>
<path d="M512.5 450L512.5 455" fill="transparent" stroke="#6E7079" class="zr0-cls-8"></path>
<path d="M542.5 450L542.5 455" fill="transparent" stroke="#6E7079" class="zr0-cls-8"></path>
<path d="M571.5 450L571.5 455" fill="transparent" stroke="#6E7079" class="zr0-cls-8"></path>
<path d="M600.5 450L600.5 455" fill="transparent" stroke="#6E7079" class="zr0-cls-8"></path>
<path d="M630.5 450L630.5 455" fill="transparent" stroke="#6E7079" class="zr0-cls-8"></path>
<path d="M648.5 450L648.5 455" fill="transparent" stroke="#6E7079" class="zr0-cls-8"></path>
<text dominant-baseline="central" text-anchor="end" style="font-size:12px;font-family:sans-serif;" transform="translate(64 450)" fill="#6E7079">0</text>
<text dominant-baseline="central" text-anchor="end" style="font-size:12px;font-family:sans-serif;" transform="translate(64 394.2857)" fill="#6E7079">0.3</text>
<text dominant-baseline="central" text-anchor="end" style="font-size:12px;font-family:sans-serif;" transform="translate(64 338.5714)" fill="#6E7079">0.6</text>
<text dominant-baseline="central" text-anchor="end" style="font-size:12px;font-family:sans-serif;" transform="translate(64 282.8571)" fill="#6E7079">0.9</text>
<text dominant-baseline="central" text-anchor="end" style="font-size:12px;font-family:sans-serif;" transform="translate(64 227.1429)" fill="#6E7079">1.2</text>
<text dominant-baseline="central" text-anchor="end" style="font-size:12px;font-family:sans-serif;" transform="translate(64 171.4286)" fill="#6E7079">1.5</text>
<text dominant-baseline="central" text-anchor="end" style="font-size:12px;font-family:sans-serif;" transform="translate(64 115.7143)" fill="#6E7079">1.8</text>
<text dominant-baseline="central" text-anchor="end" style="font-size:12px;font-family:sans-serif;" transform="translate(64 60)" fill="#6E7079">2.1</text>
<text dominant-baseline="central" text-anchor="middle" style="font-size:12px;font-family:sans-serif;" y="6" transform="translate(72.8159 458)" fill="#6E7079">0</text>
<text dominant-baseline="central" text-anchor="middle" style="font-size:12px;font-family:sans-serif;" y="6" transform="translate(102.187 458)" fill="#6E7079">18</text>
<text dominant-baseline="central" text-anchor="middle" style="font-size:12px;font-family:sans-serif;" y="6" transform="translate(131.5581 458)" fill="#6E7079">36</text>
<text dominant-baseline="central" text-anchor="middle" style="font-size:12px;font-family:sans-serif;" y="6" transform="translate(160.9292 458)" fill="#6E7079">54</text>
<text dominant-baseline="central" text-anchor="middle" style="font-size:12px;font-family:sans-serif;" y="6" transform="translate(190.3003 458)" fill="#6E7079">72</text>
<text dominant-baseline="central" text-anchor="middle" style="font-size:12px;font-family:sans-serif;" y="6" transform="translate(219.6714 458)" fill="#6E7079">90</text>
<text dominant-baseline="central" text-anchor="middle" style="font-size:12px;font-family:sans-serif;" y="6" transform="translate(249.0425 458)" fill="#6E7079">108</text>
<text dominant-baseline="central" text-anchor="middle" style="font-size:12px;font-family:sans-serif;" y="6" transform="translate(278.4136 458)" fill="#6E7079">126</text>
<text dominant-baseline="central" text-anchor="middle" style="font-size:12px;font-family:sans-serif;" y="6" transform="translate(307.7847 458)" fill="#6E7079">144</text>
<text dominant-baseline="central" text-anchor="middle" style="font-size:12px;font-family:sans-serif;" y="6" transform="translate(337.1558 458)" fill="#6E7079">162</text>
<text dominant-baseline="central" text-anchor="middle" style="font-size:12px;font-family:sans-serif;" y="6" transform="translate(366.5269 458)" fill="#6E7079">180</text>
<text dominant-baseline="central" text-anchor="middle" style="font-size:12px;font-family:sans-serif;" y="6" transform="translate(395.898 458)" fill="#6E7079">198</text>
<text dominant-baseline="central" text-anchor="middle" style="font-size:12px;font-family:sans-serif;" y="6" transform="translate(425.2691 458)" fill="#6E7079">216</text>
<text dominant-baseline="central" text-anchor="middle" style="font-size:12px;font-family:sans-serif;" y="6" transform="translate(454.6402 458)" fill="#6E7079">234</text>
<text dominant-baseline="central" text-anchor="middle" style="font-size:12px;font-family:sans-serif;" y="6" transform="translate(484.0113 458)" fill="#6E7079">252</text>
<text dominant-baseline="central" text-anchor="middle" style="font-size:12px;font-family:sans-serif;" y="6" transform="translate(513.3824 458)" fill="#6E7079">270</text>
<text dominant-baseline="central" text-anchor="middle" style="font-size:12px;font-family:sans-serif;" y="6" transform="translate(542.7535 458)" fill="#6E7079">288</text>
<text dominant-baseline="central" text-anchor="middle" style="font-size:12px;font-family:sans-serif;" y="6" transform="translate(572.1246 458)" fill="#6E7079">306</text>
<text dominant-baseline="central" text-anchor="middle" style="font-size:12px;font-family:sans-serif;" y="6" transform="translate(601.4958 458)" fill="#6E7079">324</text>
<text dominant-baseline="central" text-anchor="middle" style="font-size:12px;font-family:sans-serif;" y="6" transform="translate(630.8669 458)" fill="#6E7079">342</text>
<g clip-path="url(#zr0-c0)">
<path d="M72.8159 111.5494C72.8159 111.5494 73.4367 115.6011 74.4476 119.5464C75.0685 121.9696 75.5307 121.8486 76.0793 124.2864C77.1624 129.0996 76.5528 134.0484 77.7111 134.0484C78.1845 134.0484 78.1804 130.5267 79.3428 130.3465C79.8121 130.2738 80.4105 130.3465 80.9745 130.2738C82.0423 130.1361 82.4475 127.6469 82.6062 127.6469C84.0793 127.6469 83.2366 156.3071 84.238 156.3071C84.8683 156.3071 85.1298 138.3101 85.8697 138.3101C86.7616 138.3101 86.5349 149.1851 87.5014 160.0322C88.1666 167.4976 87.7343 174.9352 89.1331 174.9352C89.3661 174.9352 90.1917 174.1351 90.7649 173.046C91.8234 171.0347 91.6746 170.9216 92.3966 168.7342C93.3064 165.9779 93.8213 163.1587 94.0283 163.1587C95.453 163.1587 94.39 203.1006 95.6601 203.1006C96.0217 203.1006 96.0412 191.8355 97.2918 191.8355C97.673 191.8355 98.6841 193.1973 98.9235 194.8972C100.3158 204.7817 99.7922 215.0044 100.5552 215.0044C101.4239 215.0044 101.2871 192.0983 102.187 192.0983C102.9189 192.0983 102.8475 210.705 103.8187 210.705C104.4792 210.705 104.9447 198.1064 105.4504 198.1064C106.5765 198.1064 106.589 226.347 107.0822 226.347C108.2207 226.347 107.8795 161.0635 108.7139 161.0635C109.5112 161.0635 109.2592 192.2651 110.3456 223.4454C110.8909 239.0953 110.6134 254.724 111.9773 254.724C112.2451 254.724 113.3934 251.8532 113.6091 248.7954C115.0251 228.7156 113.9531 208.4489 115.2408 208.4489C115.5848 208.4489 116.482 213.7388 116.8725 219.1139C118.1137 236.198 116.9777 236.545 118.5042 253.3673C118.6095 254.5268 119.8988 255.0774 120.136 255.0774C121.5306 255.0774 121.1722 241.2722 121.7677 241.2722C122.8039 241.2722 122.0786 253.4309 123.3994 265.4067C123.7103 268.2254 124.7698 270.8612 125.0312 270.8612C126.4015 270.8612 125.3571 241.0576 126.6629 241.0576C126.9889 241.0576 128.092 244.6153 128.2946 248.3282C129.7238 274.52 128.8925 300.8671 129.9263 300.8671C130.5242 300.8671 130.4404 285.6645 131.5581 270.5135C132.0722 263.5445 132.8097 256.6271 133.1898 256.6271C134.4414 256.6271 133.835 302.6388 134.8215 302.6388C135.4667 302.6388 135.4071 272.576 136.4533 272.576C137.0389 272.576 137.701 289.3503 138.085 289.3503C139.3327 289.3503 138.9941 234.6124 139.7167 234.6124C140.6258 234.6124 140.2911 303.4862 141.3484 303.4862C141.9228 303.4862 141.8024 266.0963 142.9802 266.0963C143.4342 266.0963 144.2455 273.2305 144.6119 280.4306C145.8772 305.2926 144.6658 330.2203 146.2436 330.2203C146.2975 330.2203 147.8167 330.2203 147.8754 329.7387C149.4485 316.8163 147.9499 306.5785 149.5071 284.1147C149.5817 283.0389 151.0674 282.6596 151.1388 282.6596C152.6992 282.6596 151.569 330.4269 152.7705 330.4269C153.2007 330.4269 153.7834 321.9244 154.4023 313.3915C155.4151 299.4257 155.4402 285.4296 156.034 285.4296C157.0719 285.4296 156.4473 334.3618 157.6657 334.3618C158.079 334.3618 158.6188 326.11 159.2975 317.8349C160.2506 306.2131 160.3385 294.5682 160.9292 294.5682C161.9702 294.5682 161.3506 315.1337 162.5609 335.6384C162.9823 342.7767 163.3282 349.8541 164.1926 349.8541C164.96 349.8541 165.0908 343.5652 165.8244 337.257C166.7226 329.5324 166.5635 321.7884 167.4561 321.7884C168.1952 321.7884 167.6551 329.2786 169.0878 334.5657C169.2868 335.3002 170.4742 334.5657 170.7195 335.3002C172.106 339.4512 172.0794 345.2811 172.3513 345.2811C173.7111 345.2811 173.3245 294.7192 173.983 294.7192C174.9562 294.7192 174.8508 369.4687 175.6147 369.4687C176.4825 369.4687 176.2738 284.5559 177.2465 284.5559C177.9055 284.5559 177.4431 342.0758 178.8782 342.0758C179.0748 342.0758 180.25 334.3638 180.5099 334.3638C181.8818 334.3638 180.9711 375.9407 182.1416 375.9407C182.6029 375.9407 182.6525 367.7343 183.7734 359.6263C184.2842 355.9311 184.8306 352.3342 185.4051 352.3342C186.4623 352.3342 186.0974 359.1786 187.0368 365.9881C187.7291 371.0055 187.4624 371.1165 188.6685 375.988C189.0941 377.7067 190.0736 379.1686 190.3003 379.1686C191.7054 379.1686 191.0675 357.0685 191.932 357.0685C192.6993 357.0685 192.8855 376.6688 193.5637 376.6688C194.5173 376.6688 194.3221 349.0645 195.1955 349.0645C195.9539 349.0645 195.7106 361.0761 196.8272 373.0224C197.3423 378.5331 197.528 383.9785 198.4589 383.9785C199.1597 383.9785 199.6979 379.9454 200.0907 375.8019C201.3296 362.7315 200.8072 349.5508 201.7224 349.5508C202.4389 349.5508 202.4086 359.8268 203.3541 370.0782C204.0403 377.5183 203.5726 377.7923 204.9858 384.934C205.2043 386.038 206.5085 386.5697 206.6176 386.5697C208.1403 386.5697 207.6565 354.3419 208.2493 354.3419C209.2883 354.3419 208.8297 410.8786 209.881 410.8786C210.4614 410.8786 209.9872 379.6945 211.5127 379.6945C211.6189 379.6945 213.0027 381.1304 213.1445 381.1304C214.6344 381.1304 214.3068 358.3429 214.7762 358.3429C215.9386 358.3429 215.2393 414.8954 216.4079 414.8954C216.8711 414.8954 217.3048 403.7197 218.0397 392.5332C218.9365 378.8814 219.0163 365.2189 219.6714 365.2189C220.6481 365.2189 220.9092 405.9855 221.3031 405.9855C222.5409 405.9855 221.9692 277.8099 222.9348 277.8099C223.6009 277.8099 223.2648 322.0292 224.5666 366.2042C224.8965 377.401 224.9423 388.5534 226.1983 388.5534C226.574 388.5534 226.998 385.2985 227.83 382.0518C228.6298 378.9311 228.5868 375.8187 229.4618 375.8187C230.2185 375.8187 230.8984 381.1469 231.0935 381.1469C232.5302 381.1469 232.087 340.1322 232.7252 340.1322C233.7187 340.1322 232.8934 404.0044 234.3569 404.0044C234.5251 404.0044 235.6708 400.494 235.9887 396.8444C237.3026 381.7568 236.9807 366.53 237.6204 366.53C238.6124 366.53 237.9933 413.5807 239.2521 413.5807C239.6251 413.5807 240.1148 399.7286 240.8839 399.7286C241.7465 399.7286 241.4765 415.2887 242.5156 415.2887C243.1082 415.2887 243.3737 406.5161 244.1473 406.5161C245.0054 406.5161 245.3553 416.2779 245.779 416.2779C246.987 416.2779 246.5789 388.1098 247.4108 388.1098C248.2106 388.1098 247.5267 402.0165 249.0425 415.1901C249.1584 416.1979 250.488 415.4848 250.6742 416.4725C252.1198 424.1406 251.796 432.5018 252.306 432.5018C253.4277 432.5018 253.5151 414.8122 253.9377 397.0982C255.1468 346.4192 254.7646 295.7159 255.5694 295.7159C256.3963 295.7159 255.6902 347.8739 257.2011 399.8834C257.3219 404.0405 257.5502 404.2215 258.8329 408.0491C259.1819 409.0909 259.659 409.622 260.4646 409.622C261.2907 409.622 261.682 407.9671 262.0963 407.9671C263.3138 407.9671 262.9304 411.2786 263.7281 414.5988C264.5622 418.0709 264.8446 421.5517 265.3598 421.5517C266.4764 421.5517 265.6668 406.1583 266.9915 406.1583C267.2985 406.1583 268.305 407.6061 268.6232 409.3525C269.9367 416.5604 269.3241 424.0669 270.2549 424.0669C270.9559 424.0669 271.3069 413.0384 271.8867 413.0384C272.9386 413.0384 273.0407 433.1994 273.5184 433.1994C274.6725 433.1994 274.2979 384.3556 275.1501 384.3556C275.9296 384.3556 275.462 429.0222 276.7819 429.0222C277.0937 429.0222 277.5844 418.5891 278.4136 418.5891C279.2161 418.5891 278.7432 428.677 280.0453 428.677C280.375 428.677 281.4058 427.9061 281.6771 426.6693C283.0375 420.4666 282.7652 420.2594 283.3088 413.798C284.397 400.8619 284.3332 387.8742 284.9405 387.8742C285.9649 387.8742 285.0014 419.5378 286.5722 431.6544C286.6331 432.124 288.0305 432.124 288.204 432.124C289.6622 432.124 288.7551 417.945 289.8357 417.945C290.3869 417.945 291.01 425.0398 291.4674 425.0398C292.6417 425.0398 292.4389 406.4208 293.0992 406.4208C294.0707 406.4208 294.1516 433.8759 294.7309 433.8759C295.7833 433.8759 295.1717 383.9363 296.3626 383.9363C296.8034 383.9363 297.3411 393.1363 297.9943 402.3603C298.9729 416.1791 298.8928 430.0218 299.6261 430.0218C300.5246 430.0218 300.1722 396.1066 301.2578 396.1066C301.804 396.1066 302.0304 404.6139 302.8895 413.1124C303.6621 420.7544 303.0691 421.1578 304.5212 428.3876C304.7008 429.2815 305.9434 428.4763 306.153 429.3598C307.5751 435.3546 306.5255 442.1442 307.7847 442.1442C308.1572 442.1442 308.9 440.5206 309.4164 438.6981C310.5317 434.7626 310.0534 434.6161 311.0482 430.6281C311.6851 428.0748 311.8033 428.1003 312.6799 425.6156C313.435 423.4755 313.4391 421.3785 314.3116 421.3785C315.0709 421.3785 315.9104 424.977 315.9433 424.977C317.5421 424.977 316.7756 233.4244 317.5751 233.4244C318.4073 233.4244 317.6194 432.8219 319.2068 432.8219C319.2511 432.8219 319.782 427.5005 320.8385 427.5005C321.4138 427.5005 322.1087 430.0544 322.4702 430.0544C323.7405 430.0544 323.5774 419.5316 324.102 419.5316C325.2091 419.5316 324.2375 441.9465 325.7337 441.9465C325.8693 441.9465 327.2619 441.7194 327.3654 440.7287C328.8936 426.1105 328.1927 410.7286 328.9972 410.7286C329.8244 410.7286 329.59 441.58 330.6289 441.58C331.2218 441.58 330.8524 432.5813 332.2606 424.0253C332.4841 422.6672 333.7319 423.1226 333.8924 421.7517C335.3636 409.1847 334.8384 396.1494 335.5241 396.1494C336.4701 396.1494 335.6202 431.5053 337.1558 431.5053C337.2519 431.5053 338.4249 430.0058 338.7875 430.0058C340.0566 430.0058 340.1037 437.5876 340.4193 437.5876C341.7355 437.5876 340.8624 405.2753 342.051 405.2753C342.4942 405.2753 343.0847 411.2279 343.6827 417.2274C344.7165 427.5992 343.89 438.0178 345.3145 438.0178C345.5217 438.0178 346.0002 435.4602 346.9462 435.4602C347.632 435.4602 348.4821 436.935 348.5779 436.935C350.1139 436.935 349.2975 401.6949 350.2096 401.6949C350.9292 401.6949 351.1752 429.4771 351.8414 429.4771C352.8069 429.4771 352.7221 389.1749 353.4731 389.1749C354.3538 389.1749 353.9205 436.4481 355.1048 436.4481C355.5523 436.4481 355.8591 418.6516 356.7365 418.6516C357.4908 418.6516 357.1356 426.3831 358.3683 433.9279C358.7673 436.3701 359.3253 438.6255 360 438.6255C360.957 438.6255 360.4842 431.763 361.6317 431.763C362.116 431.763 362.5123 432.9696 363.2635 434.2527C364.1441 435.7571 364.4262 437.3379 364.8952 437.3379C366.0579 437.3379 365.4484 428.8412 366.5269 428.8412C367.0802 428.8412 367.2541 432.9687 368.1586 432.9687C368.8859 432.9687 369.5025 429.795 369.7904 429.795C371.1342 429.795 370.3744 446.3745 371.4221 446.3745C372.0062 446.3745 371.7582 437.2309 373.0538 437.2309C373.3899 437.2309 373.9731 438.0389 374.6855 439.0037C375.6048 440.2484 376.0394 441.6498 376.3173 441.6498C377.6711 441.6498 376.8655 426.593 377.949 426.593C378.4972 426.593 378.2772 430.6782 379.5807 434.0799C379.909 434.9365 380.6087 434.3916 381.2125 435.1096C382.2405 436.3322 381.7942 436.7842 382.8442 437.9612C383.4259 438.6133 383.8252 438.1671 384.4759 438.7679C385.4569 439.6734 385.9189 440.9738 386.1076 440.9738C387.5507 440.9738 386.5652 430.4637 387.7394 420.0541C388.1969 415.9975 389.0227 412.0414 389.3711 412.0414C390.6544 412.0414 389.484 427.4073 391.0028 442.1187C391.1157 443.2117 392.0475 443.6502 392.6346 443.6502C393.6792 443.6502 393.1151 440.0176 394.2663 440.0176C394.7468 440.0176 395.8053 440.334 395.898 440.334C397.437 440.334 396.7417 412.7914 397.5298 412.7914C398.3734 412.7914 397.8826 442.2838 399.1615 442.2838C399.5144 442.2838 400.0945 438.3118 400.7932 434.298C401.7263 428.9378 401.7033 423.5358 402.4249 423.5358C403.3351 423.5358 403.0931 430.3737 404.0567 437.1682C404.7248 441.8797 405.2554 446.5479 405.6884 446.5479C406.8871 446.5479 406.4839 420.242 407.3201 420.242C408.1156 420.242 408.085 445.2622 408.9518 445.2622C409.7168 445.2622 409.2903 434.1425 410.5836 423.1963C410.922 420.3316 411.7642 417.6404 412.2153 417.6404C413.396 417.6404 412.5784 425.2886 413.847 432.7088C414.2101 434.8325 414.7058 434.7021 415.4788 436.7281C416.3375 438.9788 416.9966 441.2624 417.1105 441.2624C418.6283 441.2624 417.8319 377.052 418.7422 377.052C419.4636 377.052 418.9728 402.5578 420.3739 427.9295C420.6045 432.1051 421.5298 436.1466 422.0057 436.1466C423.1615 436.1466 422.7916 415.8666 423.6374 415.8666C424.4233 415.8666 424.4908 434.7015 425.2691 434.7015C426.1225 434.7015 426.24 414.038 426.9008 414.038C427.8717 414.038 427.5708 444.4478 428.5326 444.4478C429.2025 444.4478 429.2898 423.3001 430.1643 423.3001C430.9215 423.3001 430.4257 441.5929 431.796 441.5929C432.0575 441.5929 432.318 438.4918 433.4278 438.4918C433.9497 438.4918 434.8049 438.4918 435.0595 438.7244C436.4366 439.9826 436.3116 447.4888 436.6912 447.4888C437.9434 447.4888 437.8354 432.8206 438.3229 418.1263C439.4672 383.6365 439.2312 349.1207 439.9547 349.1207C440.8629 349.1207 440.0057 392.6925 441.5864 435.7563C441.6374 437.1469 442.2299 437.0957 443.2181 438.0295C443.8616 438.6376 444.4676 438.8401 444.8499 438.8401C446.0993 438.8401 445.7169 435.9901 446.4816 433.1128C447.3487 429.8501 447.5172 426.5601 448.1133 426.5601C449.1489 426.5601 448.5158 432.4916 449.7451 438.1771C450.1475 440.0384 450.4849 441.6538 451.3768 441.6538C452.1166 441.6538 452.3935 440.3768 453.0085 438.9174C454.0252 436.5046 453.7102 433.9094 454.6402 433.9094C455.3419 433.9094 455.3737 435.7636 456.2719 437.533C457.0054 438.9777 456.9052 440.3376 457.9037 440.3376C458.537 440.3376 458.9571 439.0834 459.5354 439.0834C460.5888 439.0834 460.1375 440.9318 461.1671 442.4586C461.7693 443.3515 462.2055 443.9228 462.7989 443.9228C463.8372 443.9228 463.8396 442.2667 464.4306 440.4507C465.4714 437.2523 465.2686 437.1777 466.0623 433.894C466.9003 430.4272 467.2676 426.9497 467.6941 426.9497C468.8994 426.9497 467.8236 447.0463 469.3258 447.0463C469.4554 447.0463 470.7935 447.0463 470.9575 446.4438C472.4252 441.0537 471.7117 430.9692 472.5892 430.9692C473.3435 430.9692 473.3939 444.2437 474.221 444.2437C475.0257 444.2437 474.408 434.5747 475.8527 431.3335C476.0397 430.9138 477.2982 430.9138 477.4844 430.9138C478.9299 430.9138 478.3102 443.8884 479.1161 443.8884C479.9419 443.8884 479.7783 430.59 480.7479 430.59C481.4101 430.59 481.5077 435.1031 482.3796 439.5944C483.1394 443.5082 483.8421 447.4001 484.0113 447.4001C485.4738 447.4001 484.7992 378.5156 485.6431 378.5156C486.4309 378.5156 485.6909 442.8239 487.2748 442.8239C487.3226 442.8239 488.7816 442.7042 488.9065 441.7688C490.4133 430.4854 489.7816 418.3862 490.5382 418.3862C491.4133 418.3862 491.1 445.4457 492.17 445.4457C492.7317 445.4457 492.9406 431.309 493.8017 431.309C494.5723 431.309 494.6178 443.9381 495.4334 443.9381C496.2495 443.9381 495.6608 431.3031 497.0652 431.3031C497.2925 431.3031 498.2614 431.6725 498.6969 432.565C499.8931 435.0167 499.6197 435.25 500.3286 437.9914C501.2514 441.5601 501.3604 445.1852 501.9603 445.1852C502.9921 445.1852 502.6751 432.6046 503.5921 432.6046C504.3068 432.6046 504.7751 442.3569 505.2238 442.3569C506.4068 442.3569 506.0092 416.3359 506.8555 416.3359C507.6409 416.3359 507.2929 440.473 508.4872 440.473C508.9246 440.473 508.7937 435.8045 510.119 431.7654C510.4254 430.8315 511.4858 430.5271 511.7507 430.5271C513.1175 430.5271 512.2066 435.852 513.3824 440.968C513.8384 442.9518 513.8472 444.6858 515.0142 444.7268C515.4789 444.7431 516.0633 444.7268 516.6459 444.7431C517.695 444.7725 517.3882 447.1867 518.2776 447.1867C519.0199 447.1867 519.4964 446.4802 519.9094 445.3565C521.1281 442.0397 520.2176 440.1251 521.5411 438.3057C521.8494 437.8819 523.1135 438.3057 523.1728 437.8819C524.7452 426.6365 523.9206 393.1811 524.8045 393.1811C525.5523 393.1811 524.9992 412.2005 526.4363 430.9893C526.631 433.5351 526.8331 435.1429 528.068 435.8503C528.4648 436.0776 529.2865 435.8503 529.6997 436.0776C530.9182 436.7478 530.5739 438.3461 531.3314 440.6532C532.2057 443.3158 532.3586 446.0169 532.9632 446.0169C533.9904 446.0169 534.1762 441.371 534.5949 436.6328C535.8079 422.9054 535.406 409.0858 536.2266 409.0858C537.0377 409.0858 536.4241 422.8599 537.8583 436.3121C538.0558 438.1645 538.7969 439.6949 539.4901 439.6949C540.4286 439.6949 540.2703 437.2745 541.1218 434.8795C541.902 432.6853 541.8168 432.6433 542.7535 430.5166C543.4485 428.9388 543.9232 427.4703 544.3853 427.4703C545.5549 427.4703 545.2761 436.0656 546.017 436.0656C546.9079 436.0656 546.9594 425.6718 547.6487 425.6718C548.5911 425.6718 547.8817 433.0851 549.2805 439.9614C549.5134 441.1065 550.5961 441.7146 550.9122 441.7146C552.2278 441.7146 551.6859 436.7891 552.5439 431.8783C553.3177 427.4494 553.7044 423.0354 554.1757 423.0354C555.3361 423.0354 554.575 445.1179 555.8074 445.1179C556.2067 445.1179 556.6188 438.13 557.4391 438.13C558.2505 438.13 558.4219 445.0384 559.0708 445.0384C560.0536 445.0384 559.6804 434.4118 560.7026 434.4118C561.3122 434.4118 561.281 437.6042 562.3343 440.6125C562.9127 442.2645 562.8679 442.6751 563.966 443.7325C564.4996 444.2462 565.1196 444.2462 565.5977 444.2462C566.7513 444.2462 566.7782 442.4552 567.2295 440.4553C568.41 435.2238 567.8028 435.0658 568.8612 429.7833C569.4346 426.9216 570.0554 424.1669 570.4929 424.1669C571.6871 424.1669 570.6973 440.0458 572.1246 440.0458C572.329 440.0458 573.4691 439.5165 573.7563 438.4449C575.1008 433.43 574.4883 427.8727 575.3881 427.8727C576.1201 427.8727 575.7814 436.4201 577.0198 436.4201C577.4131 436.4201 578.1785 434.19 578.6516 434.19C579.8102 434.19 579.5507 440.7585 580.2833 440.7585C581.1825 440.7585 580.893 436.6292 581.915 432.6125C582.5248 430.216 583.1316 427.9321 583.5468 427.9321C584.7633 427.9321 584.0197 435.2159 585.1785 442.3638C585.6514 445.2814 585.7389 448.0631 586.8102 448.0631C587.3707 448.0631 587.3729 445.5219 588.442 445.4252C589.0046 445.3743 589.8938 445.4252 590.0737 445.3743C591.5255 444.9634 590.6226 432.2984 591.7054 432.2984C592.2543 432.2984 592.2481 438.7757 593.3371 438.7757C593.8798 438.7757 594.5247 435.8741 594.9688 435.8741C596.1564 435.8741 596.0604 444.6243 596.6006 444.6243C597.6921 444.6243 597.3034 426.7137 598.2323 426.7137C598.9351 426.7137 598.9973 440.2224 599.864 440.2224C600.629 440.2224 600.7796 428.3246 601.4957 428.3246C602.4113 428.3246 602.0969 443.5908 603.1275 443.5908C603.7287 443.5908 603.984 434.7842 604.7592 434.7842C605.6158 434.7842 605.038 444.5453 606.3909 444.5453C606.6697 444.5453 607.2535 443.3222 608.0226 443.3222C608.8852 443.3222 608.7601 444.9246 609.6544 444.9246C610.3919 444.9246 610.7662 443.9791 611.2861 443.9791C612.3979 443.9791 611.7652 447.667 612.9178 447.667C613.3969 447.667 614.2888 447.667 614.5496 447.2842C615.9205 445.2716 615.7004 442.9987 616.1813 438.6243C617.3321 428.1554 616.8653 417.5976 617.813 417.5976C618.4971 417.5976 618.438 432.7318 619.4448 432.7318C620.0697 432.7318 620.4705 423.4239 621.0765 423.4239C622.1022 423.4239 622.1741 439.3365 622.7082 439.3365C623.8059 439.3365 623.5087 406.5013 624.34 406.5013C625.1405 406.5013 624.5579 438.1199 625.9717 438.1199C626.1896 438.1199 626.6359 435.7517 627.6034 433.5206C628.2676 431.989 628.8283 430.5947 629.2351 430.5947C630.46 430.5947 629.6817 435.6876 630.8669 440.5496C631.3134 442.3814 631.4501 443.9823 632.4986 443.9823C633.0819 443.9823 633.6471 442.6376 634.1303 442.6376C635.2788 442.6376 635.453 447.3905 635.762 447.3905C637.0847 447.3905 636.483 425.941 637.3937 425.941C638.1148 425.941 637.8805 442.893 639.0255 442.893C639.5122 442.893 639.6793 435.8405 640.6572 435.8405C641.311 435.8405 641.0852 438.8634 642.2889 440.3963C642.7169 440.9413 643.1487 440.5748 643.9207 440.9413C644.7804 441.3493 645.2668 441.9453 645.5524 441.9453C646.8985 441.9453 647.1841 433.0644 647.1841 433.0644" fill="transparent" stroke="rgb(84,112,198)" stroke-width="2" stroke-linejoin="bevel" class="zr0-cls-10"></path>
</g>
<path d="M1 0A1 1 0 1 1 1 -0.0001" transform="matrix(2,0,0,2,72.8159,111.5494)" fill="#fff" stroke="#5470c6" class="zr0-cls-11"></path>
<path d="M1 0A1 1 0 1 1 1 -0.0001" transform="matrix(2,0,0,2,102.187,192.0983)" fill="#fff" stroke="#5470c6" class="zr0-cls-11"></path>
<path d="M1 0A1 1 0 1 1 1 -0.0001" transform="matrix(2,0,0,2,131.5581,270.5135)" fill="#fff" stroke="#5470c6" class="zr0-cls-11"></path>
<path d="M1 0A1 1 0 1 1 1 -0.0001" transform="matrix(2,0,0,2,160.9292,294.5682)" fill="#fff" stroke="#5470c6" class="zr0-cls-11"></path>
<path d="M1 0A1 1 0 1 1 1 -0.0001" transform="matrix(2,0,0,2,190.3003,379.1686)" fill="#fff" stroke="#5470c6" class="zr0-cls-11"></path>
<path d="M1 0A1 1 0 1 1 1 -0.0001" transform="matrix(2,0,0,2,219.6714,365.2189)" fill="#fff" stroke="#5470c6" class="zr0-cls-11"></path>
<path d="M1 0A1 1 0 1 1 1 -0.0001" transform="matrix(2,0,0,2,249.0425,415.1901)" fill="#fff" stroke="#5470c6" class="zr0-cls-11"></path>
<path d="M1 0A1 1 0 1 1 1 -0.0001" transform="matrix(2,0,0,2,278.4136,418.5891)" fill="#fff" stroke="#5470c6" class="zr0-cls-11"></path>
<path d="M1 0A1 1 0 1 1 1 -0.0001" transform="matrix(2,0,0,2,307.7847,442.1442)" fill="#fff" stroke="#5470c6" class="zr0-cls-11"></path>
<path d="M1 0A1 1 0 1 1 1 -0.0001" transform="matrix(2,0,0,2,337.1558,431.5053)" fill="#fff" stroke="#5470c6" class="zr0-cls-11"></path>
<path d="M1 0A1 1 0 1 1 1 -0.0001" transform="matrix(2,0,0,2,366.5269,428.8412)" fill="#fff" stroke="#5470c6" class="zr0-cls-11"></path>
<path d="M1 0A1 1 0 1 1 1 -0.0001" transform="matrix(2,0,0,2,395.898,440.334)" fill="#fff" stroke="#5470c6" class="zr0-cls-11"></path>
<path d="M1 0A1 1 0 1 1 1 -0.0001" transform="matrix(2,0,0,2,425.2691,434.7015)" fill="#fff" stroke="#5470c6" class="zr0-cls-11"></path>
<path d="M1 0A1 1 0 1 1 1 -0.0001" transform="matrix(2,0,0,2,454.6402,433.9094)" fill="#fff" stroke="#5470c6" class="zr0-cls-11"></path>
<path d="M1 0A1 1 0 1 1 1 -0.0001" transform="matrix(2,0,0,2,484.0113,447.4001)" fill="#fff" stroke="#5470c6" class="zr0-cls-11"></path>
<path d="M1 0A1 1 0 1 1 1 -0.0001" transform="matrix(2,0,0,2,513.3824,440.968)" fill="#fff" stroke="#5470c6" class="zr0-cls-11"></path>
<path d="M1 0A1 1 0 1 1 1 -0.0001" transform="matrix(2,0,0,2,542.7535,430.5166)" fill="#fff" stroke="#5470c6" class="zr0-cls-11"></path>
<path d="M1 0A1 1 0 1 1 1 -0.0001" transform="matrix(2,0,0,2,572.1246,440.0458)" fill="#fff" stroke="#5470c6" class="zr0-cls-11"></path>
<path d="M1 0A1 1 0 1 1 1 -0.0001" transform="matrix(2,0,0,2,601.4957,428.3246)" fill="#fff" stroke="#5470c6" class="zr0-cls-11"></path>
<path d="M1 0A1 1 0 1 1 1 -0.0001" transform="matrix(2,0,0,2,630.8669,440.5496)" fill="#fff" stroke="#5470c6" class="zr0-cls-11"></path>
<defs >
<clipPath id="zr0-c0">
<path d="M71 59l578 0l0 392l-578 0Z" fill="#000" class="zr0-cls-9"></path>
</clipPath>
</defs>
<style ><![CDATA[
.zr0-cls-8:hover {
pointer-events:none;
}
.zr0-cls-9:hover {
cursor:pointer;
fill:rgba(0,0,0,1);
}
.zr0-cls-10:hover {
cursor:pointer;
}
.zr0-cls-11:hover {
cursor:pointer;
fill:rgba(255,255,255,1);
}

]]>

</style>
</svg>