<svg width="720" height="520" xmlns="http://www.w3.org/2000/svg" xmlns:xlink="http://www.w3.org/1999/xlink" version="1.1" baseProfile="full" viewBox="0 0 720 520">
<rect width="720" height="520" x="0" y="0" fill="none"></rect>
<path d="M72 450.5L648 450.5" fill="transparent" stroke="#E0E6F1" class="zr0-cls-16"></path>
<path d="M72 394.5L648 394.5" fill="transparent" stroke="#E0E6F1" class="zr0-cls-16"></path>
<path d="M72 338.5L648 338.5" fill="transparent" stroke="#E0E6F1" class="zr0-cls-16"></path>
<path d="M72 283.5L648 283.5" fill="transparent" stroke="#E0E6F1" class="zr0-cls-16"></path>
<path d="M72 227.5L648 227.5" fill="transparent" stroke="#E0E6F1" class="zr0-cls-16"></path>
<path d="M72 171.5L648 171.5" fill="transparent" stroke="#E0E6F1" class="zr0-cls-16"></path>
<path d="M72 115.5L648 115.5" fill="transparent" stroke="#E0E6F1" class="zr0-cls-16"></path>
<path d="M72 60.5L648 60.5" fill="transparent" stroke="#E0E6F1" class="zr0-cls-16"></path>
<path d="M72 450.5L648 450.5" fill="transparent" stroke="#6E7079" stroke-linecap="round" class="zr0-cls-16"></path>
<path d="M72.5 450L72.5 455" fill="transparent" stroke="#6E7079" class="zr0-cls-16"></path>
<path d="M101.5 450L101.5 455" fill="transparent" stroke="#6E7079" class="zr0-cls-16"></path>
<path d="M130.5 450L130.5 455" fill="transparent" stroke="#6E7079" class="zr0-cls-16"></path>
<path d="M160.5 450L160.5 455" fill="transparent" stroke="#6E7079" class="zr0-cls-16"></path>
<path d="M189.5 450L189.5 455" fill="transparent" stroke="#6E7079" class="zr0-cls-16"></path>
<path d="M219.5 450L219.5 455" fill="transparent" stroke="#6E7079" class="zr0-cls-16"></path>
<path d="M248.5 450L248.5 455" fill="transparent" stroke="#6E7079" class="zr0-cls-16"></path>
<path d="M277.5 450L277.5 455" fill="transparent" stroke="#6E7079" class="zr0-cls-16"></path>
<path d="M307.5 450L307.5 455" fill="transparent" stroke="#6E7079" class="zr0-cls-16"></path>
<path d="M336.5 450L336.5 455" fill="transparent" stroke="#6E7079" class="zr0-cls-16"></path>
<path d="M365.5 450L365.5 455" fill="transparent" stroke="#6E7079" class="zr0-cls-16"></path>
<path d="M395.5 450L395.5 455" fill="transparent" stroke="#6E7079" class="zr0-cls-16"></path>
<path d="M424.5 450L424.5 455" fill="transparent" stroke="#6E7079" class="zr0-cls-16"></path>
<path d="M454.5 450L454.5 455" fill="transparent" stroke="#6E7079" class="zr0-cls-16"></path>
<path d="M483.5 450L483.5 455" fill="transparent" stroke="#6E7079" class="zr0-cls-16"></path>
<path d="M512.5 450L512.5 455" fill="transparent" stroke="#6E7079" class="zr0-cls-16"></path>
<path d="M542.5 450L542.5 455" fill="transparent" stroke="#6E7079" class="zr0-cls-16"></path>
<path d="M571.5 450L571.5 455" fill="transparent" stroke="#6E7079" class="zr0-cls-16"></path>
<path d="M600.5 450L600.5 455" fill="transparent" stroke="#6E7079" class="zr0-cls-16"></path>
<path d="M630.5 450L630.5 455" fill="transparent" stroke="#6E7079" class="zr0-cls-16"></path>
<path d="M648.5 450L648.5 455" fill="transparent" stroke="#6E7079" class="zr0-cls-16"></path>
<text dominant-baseline="central" text-anchor="end" style="font-size:12px;font-family:sans-serif;" transform="translate(64 450)" fill="#6E7079">0</text>
<text dominant-baseline="central" text-anchor="end" style="font-size:12px;font-family:sans-serif;" transform="translate(64 394.2857)" fill="#6E7079">0.3</text>
<text dominant-baseline="central" text-anchor="end" style="font-size:12px;font-family:sans-serif;" transform="translate(64 338.5714)" fill="#6E7079">0.6</text>
<text dominant-baseline="central" text-anchor="end" style="font-size:12px;font-family:sans-serif;" transform="translate(64 282.8571)" fill="#6E7079">0.9</text>
<text dominant-baseline="central" text-anchor="end" style="font-size:12px;font-family:sans-serif;" transform="translate(64 227.1429)" fill="#6E7079">1.2</text>
<text dominant-baseline="central" text-anchor="end" style="font-size:12px;font-family:sans-serif;" transform="translate(64 171.4286)" fill="#6E7079">1.5</text>
<text dominant-baseline="central" text-anchor="end" style="font-size:12px;font-family:sans-serif;" transform="translate(64 115.7143)" fill="#6E7079">1.8</text>
<text dominant-baseline="central" text-anchor="end" style="font-size:12px;font-family:sans-serif;" transform="translate(64 60)" fill="#6E7079">2.1</text>
<text dominant-baseline="central" text-anchor="middle" style="font-size:12px;font-family:sans-serif;" y="6" transform="translate(72.8159 458)" fill="#6E7079">0</text>
<text dominant-baseline="central" text-anchor="middle" style="font-size:12px;font-family:sans-serif;" y="6" transform="translate(102.187 458)" fill="#6E7079">18</text>
<text dominant-baseline="central" text-anchor="middle" style="font-size:12px;font-family:sans-serif;" y="6" transform="translate(131.5581 458)" fill="#6E7079">36</text>
<text dominant-baseline="central" text-anchor="middle" style="font-size:12px;font-family:sans-serif;" y="6" transform="translate(160.9292 458)" fill="#6E7079">54</text>
<text dominant-baseline="central" text-anchor="middle" style="font-size:12px;font-family:sans-serif;" y="6" transform="translate(190.3003 458)" fill="#6E7079">72</text>
<text dominant-baseline="central" text-anchor="middle" style="font-size:12px;font-family:sans-serif;" y="6" transform="translate(219.6714 458)" fill="#6E7079">90</text>
<text dominant-baseline="central" text-anchor="middle" style="font-size:12px;font-family:sans-serif;" y="6" transform="translate(249.0425 458)" fill="#6E7079">108</text>
<text dominant-baseline="central" text-anchor="middle" style="font-size:12px;font-family:sans-serif;" y="6" transform="translate(278.4136 458)" fill="#6E7079">126</text>
<text dominant-baseline="central" text-anchor="middle" style="font-size:12px;font-family:sans-serif;" y="6" transform="translate(307.7847 458)" fill="#6E7079">144</text>
<text dominant-baseline="central" text-anchor="middle" style="font-size:12px;font-family:sans-serif;" y="6" transform="translate(337.1558 458)" fill="#6E7079">162</text>
<text dominant-baseline="central" text-anchor="middle" style="font-size:12px;font-family:sans-serif;" y="6" transform="translate(366.5269 458)" fill="#6E7079">180</text>
<text dominant-baseline="central" text-anchor="middle" style="font-size:12px;font-family:sans-serif;" y="6" transform="translate(395.898 458)" fill="#6E7079">198</text>
<text dominant-baseline="central" text-anchor="middle" style="font-size:12px;font-family:sans-serif;" y="6" transform="translate(425.2691 458)" fill="#6E7079">216</text>
<text dominant-baseline="central" text-anchor="middle" style="font-size:12px;font-family:sans-serif;" y="6" transform="translate(454.6402 458)" fill="#6E7079">234</text>
<text dominant-baseline="central" text-anchor="middle" style="font-size:12px;font-family:sans-serif;" y="6" transform="translate(484.0113 458)" fill="#6E7079">252</text>
<text dominant-baseline="central" text-anchor="middle" style="font-size:12px;font-family:sans-serif;" y="6" transform="translate(513.3824 458)" fill="#6E7079">270</text>
<text dominant-baseline="central" text-anchor="middle" style="font-size:12px;font-family:sans-serif;" y="6" transform="translate(542.7535 458)" fill="#6E7079">288</text>
<text dominant-baseline="central" text-anchor="middle" style="font-size:12px;font-family:sans-serif;" y="6" transform="translate(572.1246 458)" fill="#6E7079">306</text>
<text dominant-baseline="central" text-anchor="middle" style="font-size:12px;font-family:sans-serif;" y="6" transform="translate(601.4958 458)" fill="#6E7079">324</text>
<text dominant-baseline="central" text-anchor="middle" style="font-size:12px;font-family:sans-serif;" y="6" transform="translate(630.8669 458)" fill="#6E7079">342</text>
<g clip-path="url(#zr0-c0)">
<path d="M72.8159 110.8743C72.8159 110.8743 74.1983 112.5856 74.4476 112.5856C75.8301 112.5856 75.3176 99.5729 76.0793 99.5729C76.9493 99.5729 77.0084 107.0061 77.7111 114.4611C78.6402 124.3192 78.2295 124.369 79.3428 134.1991C79.8612 138.7768 80.4814 143.2767 80.9745 143.2767C82.1131 143.2767 81.8317 122.0448 82.6062 122.0448C83.4634 122.0448 83.4951 145.553 84.238 145.553C85.1268 145.553 84.3353 117.407 85.8697 117.407C85.9671 117.407 87.4343 117.407 87.5014 118.1408C89.0661 135.2537 87.5963 159.8326 89.1331 159.8326C89.2281 159.8326 90.5596 159.085 90.7649 157.8377C92.1914 149.1688 90.9488 148.6173 92.3966 140.0001C92.5806 138.9051 93.9181 138.4134 94.0283 138.4134C95.5499 138.4134 94.5228 154.1343 95.6601 169.7999C96.1546 176.6118 96.0486 176.696 97.2918 183.3685C97.6803 185.4539 97.7903 185.6216 98.9235 187.3157C99.422 188.0609 100.4307 187.3461 100.5552 188.2471C102.0625 199.1544 101.6563 210.9325 102.187 210.9325C103.288 210.9325 102.3545 163.7736 103.8187 163.7736C103.9862 163.7736 105.3283 166.2309 105.4504 168.9203C106.96 202.1596 105.6626 235.631 107.0822 235.631C107.2944 235.631 108.4288 230.7634 108.7139 225.79C110.0605 202.3001 109.6504 178.7043 110.3456 178.7043C111.2822 178.7043 110.5509 242.1581 111.9773 242.1581C112.1826 242.1581 112.8657 237.6766 113.6091 233.1709C114.4974 227.7866 114.1288 227.7027 115.2408 222.3781C115.7605 219.8895 116.7127 217.5444 116.8725 217.5444C118.3444 217.5444 117.6654 264.504 118.5042 264.504C119.2971 264.504 119.4035 220.1256 120.136 220.1256C121.0352 220.1256 121.0108 247.3682 121.7677 274.6142C122.6426 306.1064 122.4057 337.602 123.3994 337.602C124.0374 337.602 123.4907 317.0905 125.0312 297.1826C125.1224 296.0033 126.5389 296.5997 126.6629 295.4276C128.1706 281.1768 127.8735 266.3369 128.2946 266.3369C129.5053 266.3369 128.9277 350.0912 129.9263 350.0912C130.5594 350.0912 130.3335 297.0143 131.5581 297.0143C131.9652 297.0143 132.7084 305.7826 133.1898 314.5948C134.3401 335.6493 133.4587 335.7361 134.8215 356.7477C135.0905 360.8943 135.9562 364.9112 136.4533 364.9112C137.5879 364.9112 136.7964 345.9772 138.085 345.9772C138.4281 345.9772 139.3855 348.2715 139.7167 350.7676C141.0172 360.5668 140.3246 370.5677 141.3484 370.5677C141.9563 370.5677 141.5541 362.2125 142.9802 358.8853C143.1858 358.4055 144.5326 358.4055 144.6119 358.4055C146.1644 358.4055 145.0972 391.6742 146.2436 391.6742C146.729 391.6742 146.8931 377.6665 147.8754 377.6665C148.5249 377.6665 148.631 386.8481 149.5071 386.8481C150.2627 386.8481 150.8352 378.9716 151.1388 378.9716C152.467 378.9716 151.5326 414.1251 152.7705 414.1251C153.1643 414.1251 153.0474 408.3135 154.4023 403.05C154.6791 401.9746 155.8225 401.4473 156.034 401.4473C157.4543 401.4473 157.1116 416.7208 157.6657 416.7208C158.7433 416.7208 158.4626 386.8958 159.2975 386.8958C160.0943 386.8958 159.6996 415.3573 160.9292 415.3573C161.3314 415.3573 161.7247 410.7631 162.5609 406.1764C163.3564 401.8126 163.5999 397.4562 164.1926 397.4562C165.2316 397.4562 164.6538 412.922 165.8244 412.922C166.2855 412.922 166.5769 409.9503 167.4561 407.0169C168.2087 404.5059 168.1816 402.033 169.0878 402.033C169.8133 402.033 170.1047 403.901 170.7195 405.9015C171.7365 409.2104 171.8193 409.2263 172.3513 412.6518C173.451 419.7336 173.0066 419.8069 173.983 426.916C174.6383 431.6874 174.7839 436.4128 175.6147 436.4128C176.4156 436.4128 176.9549 431.8973 177.2465 427.2686C178.5866 405.9939 177.7334 384.6062 178.8782 384.6062C179.3651 384.6062 179.5783 393.6603 180.5099 402.69C181.21 409.4754 181.5626 416.2365 182.1416 416.2365C183.1943 416.2365 183.0821 391.4874 183.7734 391.4874C184.7138 391.4874 184.2316 408.371 185.4051 425.1928C185.8633 431.7609 186.226 438.2672 187.0368 438.2672C187.8577 438.2672 188.1447 431.6746 188.6685 425.0291C189.7765 410.9734 189.3397 396.8649 190.3003 396.8649C190.9715 396.8649 190.7465 406.7444 191.932 416.5104C192.3782 420.1861 192.9857 420.0883 193.5637 423.7484C194.6174 430.4199 194.4143 437.1736 195.1955 437.1736C196.046 437.1736 195.8814 422.5381 196.8272 422.5381C197.5132 422.5381 197.0907 428.1431 198.4589 433.0939C198.7225 434.0475 199.6492 434.347 200.0907 434.347C201.2809 434.347 201.2386 431.7675 201.7224 429.0455C202.8703 422.5863 202.8364 415.9845 203.3541 415.9845C204.4681 415.9845 204.1573 444.2599 204.9858 444.2599C205.789 444.2599 205.3544 416.8553 206.6176 416.8553C206.9861 416.8553 207.0918 420.9055 208.2493 424.6964C208.7235 426.2496 209.1999 426.0561 209.881 427.5434C210.8316 429.6193 210.5283 431.8228 211.5127 431.8228C212.16 431.8228 212.6461 430.694 213.1445 429.2918C214.2778 426.1033 214.0807 422.6414 214.7762 422.6414C215.7125 422.6414 215.7001 431.7146 216.4079 431.7146C217.3318 431.7146 216.9857 419.7943 218.0397 419.7943C218.6174 419.7943 218.9819 422.9616 219.6714 426.1845C220.6136 430.5883 220.4694 435.0475 221.3031 435.0475C222.1011 435.0475 221.6207 426.577 222.9348 426.577C223.2524 426.577 224.0377 427.8746 224.5666 427.8746C225.6695 427.8746 225.2457 423.8446 226.1983 423.8446C226.8774 423.8446 227.2241 426.48 227.83 426.48C228.8559 426.48 228.9582 424.0584 229.4618 421.492C230.5899 415.7423 230.4919 409.8478 231.0935 409.8478C232.1236 409.8478 231.6048 419.9207 232.7252 429.9141C233.2365 434.4745 233.2119 438.9555 234.3569 438.9555C234.8436 438.9555 235.4452 437.2721 235.9887 435.4078C237.077 431.6741 236.8659 431.5957 237.6204 427.7594C238.4976 423.2989 238.1622 418.8141 239.2521 418.8141C239.794 418.8141 240.2148 420.8746 240.8839 423.0298C241.8466 426.1311 241.7982 426.1557 242.5156 429.327C243.4299 433.3691 243.0251 433.4943 244.1473 437.4565C244.6569 439.2555 245.5397 440.8494 245.779 440.8494C247.1715 440.8494 246.3871 419.0027 247.4108 419.0027C248.0188 419.0027 247.7139 431.9129 249.0425 431.9129C249.3456 431.9129 249.8064 430.6351 250.6742 429.4328C251.4381 428.3744 251.6746 427.3916 252.306 427.3916C253.3064 427.3916 253.7858 431.1978 253.9377 431.1978C255.4176 431.1978 254.6468 390.8752 255.5694 390.8752C256.2785 390.8752 256.1517 406.3797 257.2011 421.8497C257.7834 430.4323 258.3123 438.9804 258.8329 438.9804C259.9441 438.9804 259.6669 402.2811 260.4646 402.2811C261.2986 402.2811 260.795 440.6531 262.0963 440.6531C262.4267 440.6531 262.7697 435.8166 263.7281 431.0391C264.4015 427.6819 264.9433 427.7763 265.3598 424.3839C266.575 414.4853 266.2924 404.457 266.9915 404.457C267.9241 404.457 267.318 417.8436 268.6232 431.0781C268.9497 434.3886 269.266 437.5471 270.2549 437.5471C270.8977 437.5471 271.0443 433.5298 271.8867 433.5298C272.676 433.5298 272.9787 437.2508 273.5184 437.2508C274.6104 437.2508 274.4215 429.1938 275.1501 429.1938C276.0532 429.1938 276.0032 439.2507 276.7819 439.2507C277.635 439.2507 277.0368 428.2073 278.4136 428.2073C278.6685 428.2073 279.6441 428.5666 280.0453 429.4754C281.2758 432.2623 280.888 435.5988 281.6771 435.5988C282.5198 435.5988 282.7934 429.0302 283.3088 429.0302C284.4251 429.0302 284.1862 443.5991 284.9405 443.5991C285.8179 443.5991 285.6519 426.6257 286.5722 426.6257C287.2836 426.6257 287.1543 439.7036 288.204 439.7036C288.786 439.7036 288.7713 436.0574 289.8357 432.5808C290.4031 430.7276 290.7971 429.0439 291.4674 429.0439C292.4288 429.0439 292.3803 434.387 293.0992 434.387C294.012 434.387 293.8151 427.483 294.7309 427.483C295.4468 427.483 295.9106 430.0574 296.3626 432.7838C297.5423 439.8995 296.9742 447.1672 297.9943 447.1672C298.606 447.1672 298.3644 442.6936 299.6261 438.6425C299.9961 437.4544 300.8062 437.8515 301.2578 436.6887C302.438 433.6495 302.3626 430.2386 302.8895 430.2386C303.9944 430.2386 303.9593 444.0945 304.5212 444.0945C305.591 444.0945 305.0687 417.586 306.153 417.586C306.7004 417.586 306.9034 424.2494 307.7847 430.8954C308.5352 436.5549 308.5443 442.1969 309.4164 442.1969C310.176 442.1969 309.9989 432.3872 311.0482 432.3872C311.6307 432.3872 311.425 437.6618 312.6799 437.6618C313.0568 437.6618 313.8672 437.6618 314.3116 437.367C315.4989 436.5794 315.5286 435.4107 315.9433 433.2482C317.1604 426.9017 316.8054 420.349 317.5751 420.349C318.4371 420.349 317.9706 427.6847 319.2068 434.8192C319.6024 437.1024 319.7643 439.1843 320.8385 439.1843C321.396 439.1843 321.6875 438.3199 322.4702 437.3991C323.3192 436.4004 323.323 435.3452 324.102 435.3452C324.9547 435.3452 325.348 436.3496 325.7337 437.7082C326.9797 442.0963 326.2858 446.8387 327.3654 446.8387C327.9175 446.8387 328.2107 444.6227 328.9972 442.386C329.8424 439.9823 329.6287 439.8877 330.6289 437.558C331.2604 436.0871 331.2551 434.7849 332.2606 434.7849C332.8869 434.7849 333.1764 435.2593 333.8924 435.9483C334.8082 436.8296 335.2293 437.9254 335.5241 437.9254C336.861 437.9254 336.0147 426.4153 337.1558 426.4153C337.6464 426.4153 338.2229 428.7127 338.7875 431.14C339.8547 435.7278 339.1205 436.0299 340.4193 440.4455C340.7522 441.5774 341.7619 442.235 342.051 442.235C343.3936 442.235 342.7839 431.1088 343.6827 431.1088C344.4156 431.1088 345.0146 440.1317 345.3145 440.1317C346.6463 440.1317 346.0382 399.4384 346.9462 399.4384C347.67 399.4384 347.0383 431.8638 348.5779 431.8638C348.67 431.8638 349.9454 430.8096 350.2096 430.8096C351.5771 430.8096 350.4974 436.0664 351.8414 440.73C352.1291 441.7284 353.1571 442.1335 353.4731 442.1335C354.7888 442.1335 354.5839 437.7677 355.1048 433.3222C356.2156 423.8432 355.8747 414.2845 356.7365 414.2845C357.5065 414.2845 357.2631 422.8241 358.3683 431.2769C358.8948 435.3038 359.2388 439.2438 360 439.2438C360.8705 439.2438 360.8046 434.664 361.6317 430.0883C362.4363 425.637 362.7446 421.1898 363.2635 421.1898C364.3763 421.1898 363.7563 440.5258 364.8952 440.5258C365.388 440.5258 365.8248 432.2889 366.5269 432.2889C367.4565 432.2889 367.3547 443.2857 368.1586 443.2857C368.9865 443.2857 368.7441 431.954 369.7904 431.954C370.3759 431.954 370.59 438.1496 371.4221 438.1496C372.2218 438.1496 372.584 432.2123 373.0538 432.2123C374.2157 432.2123 373.6572 447.3499 374.6855 447.3499C375.2889 447.3499 375.5526 438.5675 376.3173 438.5675C377.1843 438.5675 377.164 448.5638 377.949 448.5638C378.7958 448.5638 378.1987 442.8059 379.5807 437.7604C379.8304 436.849 380.8569 437.5222 381.2125 436.6502C382.4886 433.5205 381.9283 429.7572 382.8442 429.7572C383.5601 429.7572 383.3828 432.5435 384.4759 435.0479C385.0145 436.2817 385.0958 436.646 386.1076 437.2337C386.7275 437.5937 387.6244 437.5937 387.7394 437.5937C389.2561 437.5937 388.6115 415.618 389.3711 415.618C390.2432 415.618 389.8792 440.8669 391.0028 440.8669C391.511 440.8669 391.3887 429.5417 392.6346 429.5417C393.0204 429.5417 393.4014 431.1423 394.2663 432.6878C395.0331 434.058 395.314 433.9269 395.898 435.373C396.9457 437.9672 396.3025 440.7682 397.5298 440.7682C397.9342 440.7682 398.7236 439.8802 399.1615 439.8802C400.3554 439.8802 400.5309 444.6756 400.7932 444.6756C402.1626 444.6756 401.5565 418.2857 402.4249 418.2857C403.1882 418.2857 402.6584 441.4659 404.0567 441.4659C404.2901 441.4659 405.0403 437.946 405.6884 437.946C406.672 437.946 406.162 440.9672 407.3201 443.6033C407.7938 444.6815 408.7645 445.3745 408.9518 445.3745C410.3962 445.3745 409.5088 426.8806 410.5836 426.8806C411.1405 426.8806 411.4712 431.61 412.2153 436.3619C413.1029 442.0303 413.1249 447.7213 413.847 447.7213C414.7566 447.7213 414.5577 433.3592 415.4788 433.3592C416.1895 433.3592 416.2779 444.3933 417.1105 444.3933C417.9096 444.3933 417.4364 433.8127 418.7422 433.8127C419.0682 433.8127 419.8615 434.7168 420.3739 435.9292C421.4932 438.5771 421.3586 441.5334 422.0057 441.5334C422.9904 441.5334 422.8297 432.8016 423.6374 432.8016C424.4615 432.8016 424.5653 441.7169 425.2691 441.7169C426.197 441.7169 426.066 429.8802 426.9008 429.8802C427.6978 429.8802 427.5907 441.1691 428.5326 441.1691C429.2224 441.1691 429.1485 437.0192 430.1643 432.9766C430.7802 430.5257 430.6261 428.1821 431.796 428.1821C432.2578 428.1821 433.0847 428.445 433.4278 429.3369C434.7165 432.6876 434.2734 432.9957 435.0595 436.6672C435.9052 440.6174 435.9572 444.5804 436.6912 444.5804C437.5889 444.5804 437.542 434.8346 438.3229 434.8346C439.1737 434.8346 438.6607 440.3489 439.9547 445.4746C440.2924 446.8122 441.3167 447.7613 441.5864 447.7613C442.9485 447.7613 442.3796 433.666 443.2181 433.666C444.0113 433.666 443.8081 446.989 444.8499 446.989C445.4398 446.989 445.5413 443.2441 446.4816 439.5643C447.1731 436.8582 447.5621 434.2172 448.1133 434.2172C449.1938 434.2172 449.1246 445.0532 449.7451 445.0532C450.7563 445.0532 450.3178 427.2688 451.3768 427.2688C451.9495 427.2688 452.1493 432.0368 453.0085 436.7892C453.7811 441.0626 453.7087 445.3203 454.6402 445.3203C455.3404 445.3203 455.2724 438.9989 456.2719 438.9989C456.9041 438.9989 457.1097 442.7915 457.9037 442.7915C458.7414 442.7915 458.377 438.7525 459.5354 438.7525C460.0087 438.7525 460.3238 439.1954 461.1671 439.4635C461.9556 439.7141 462.4664 439.4635 462.7989 439.7899C464.0981 441.0658 463.7441 446.0856 464.4306 446.0856C465.3758 446.0856 464.6828 437.9928 466.0623 437.2819C466.3145 437.1519 467.2184 437.1519 467.6941 437.1519C468.8502 437.1519 468.2408 440.7806 469.3258 440.7806C469.8725 440.7806 470.3249 439.6154 470.9575 439.6154C471.9566 439.6154 471.9749 440.8799 472.5892 442.3289C473.6067 444.7286 473.292 447.3128 474.221 447.3128C474.9237 447.3128 475.0167 443.6967 475.8527 443.6967C476.6484 443.6967 476.4279 445.5947 477.4844 447.1018C478.0596 447.9224 478.2867 448.3521 479.1161 448.3521C479.9184 448.3521 480.0987 447.9449 480.7479 447.2158C481.7305 446.1122 481.4783 445.8859 482.3796 444.6867C483.11 443.7149 483.3479 442.8739 484.0113 442.8739C484.9796 442.8739 485.0841 446.0375 485.6431 446.0375C486.7158 446.0375 486.4108 439.4043 487.2748 439.4043C488.0425 439.4043 488.0932 445.2502 488.9065 445.2502C489.725 445.2502 489.5414 439.3643 490.5382 439.3643C491.1732 439.3643 491.1572 442.8962 492.17 442.8962C492.789 442.8962 492.8841 441.8984 493.8017 441.1664C494.5159 440.5967 495.1054 441.1017 495.4334 440.293C496.7371 437.0791 495.8018 436.4363 497.0652 433.1213C497.4335 432.1548 498.4422 431.7301 498.6969 431.7301C500.074 431.7301 498.9123 443.2116 500.3286 443.2116C500.5441 443.2116 501.4477 442.5406 501.9603 442.5406C503.0795 442.5406 503.1578 446.0298 503.5921 446.0298C504.7896 446.0298 504.4502 435.5335 505.2238 435.5335C506.0819 435.5335 506.4657 447.2026 506.8555 447.2026C508.0975 447.2026 507.6518 409.6976 508.4872 409.6976C509.2835 409.6976 508.756 445.437 510.119 445.437C510.3878 445.437 510.784 438.5728 511.7507 438.5728C512.4157 438.5728 512.395 443.1438 513.3824 443.1438C514.0267 443.1438 514.2634 440.4301 515.0142 440.4301C515.8952 440.4301 515.6348 443.7687 516.6459 443.7687C517.2666 443.7687 517.4354 442.9427 518.2776 442.1745C519.0672 441.4544 519.2664 441.6271 519.9094 440.7921C520.8982 439.508 521.2915 439.5422 521.5411 437.9364C522.9232 429.0426 522.4984 419.7931 523.1728 419.7931C524.1301 419.7931 523.3511 432.8942 524.8045 445.5986C524.9829 447.1578 525.3717 447.49 526.4363 448.3204C527.0034 448.7628 527.8538 448.7628 528.068 448.7628C529.4855 448.7628 528.45 443.0846 529.6997 437.6957C530.0818 436.0481 530.9769 434.6899 531.3314 434.6899C532.6087 434.6899 531.5511 441.1835 532.9632 446.9034C533.1829 447.7932 533.9294 447.9093 534.5949 447.9093C535.5611 447.9093 535.9577 446.9951 536.2266 445.6551C537.5895 438.863 537.0645 431.6451 537.8583 431.6451C538.6962 431.6451 538.3428 446.4426 539.4901 446.4426C539.9746 446.4426 540.3076 440.3715 541.1218 440.3715C541.9393 440.3715 542.2752 446.4688 542.7535 446.4688C543.9069 446.4688 543.3027 431.3374 544.3853 431.3374C544.9344 431.3374 544.7287 435.4092 546.017 438.883C546.3604 439.8091 547.2486 440.1371 547.6487 440.1371C548.8803 440.1371 548.3585 434.0169 549.2805 434.0169C549.9903 434.0169 550.1909 436.285 550.9122 438.6125C551.8226 441.5505 552.0168 444.548 552.5439 444.548C553.6486 444.548 553.4237 431.7488 554.1757 431.7488C555.0554 431.7488 554.5487 446.7549 555.8074 446.7549C556.1804 446.7549 556.6143 442.5898 557.4391 442.5898C558.2461 442.5898 558.6594 446.6512 559.0708 446.6512C560.2911 446.6512 559.837 433.7715 560.7026 433.7715C561.4687 433.7715 561.1299 445.1459 562.3343 445.1459C562.7616 445.1459 563.2853 441.4092 563.966 441.4092C564.917 441.4092 564.6576 446.8674 565.5977 446.8674C566.2894 446.8674 566.6118 443.0067 567.2295 443.0067C568.2435 443.0067 568.3018 449.691 568.8612 449.691C569.9335 449.691 569.3752 443.0862 570.4929 436.6026C571.0069 433.621 571.6144 430.7606 572.1246 430.7606C573.2462 430.7606 572.4992 437.5008 573.7563 443.994C574.1309 445.9288 574.6062 447.6164 575.3881 447.6164C576.2379 447.6164 575.8539 445.018 577.0198 443.619C577.4856 443.0601 578.3934 443.619 578.6516 443.0601C580.0251 440.0867 579.5987 434.0298 580.2833 434.0298C581.2305 434.0298 580.6455 446.6216 581.915 446.6216C582.2773 446.6216 582.8535 443.3867 583.5468 443.3867C584.4852 443.3867 584.7351 448.0121 585.1785 448.0121C586.3668 448.0121 585.9721 434.9691 586.8102 434.9691C587.6038 434.9691 587.102 447.3083 588.442 447.3083C588.7337 447.3083 589.1598 446.1334 590.0737 445.1448C590.7915 444.3683 591.2374 443.778 591.7054 443.778C592.8691 443.778 592.9664 448.8129 593.3371 448.8129C594.5981 448.8129 593.9266 430.8825 594.9688 430.8825C595.5584 430.8825 595.4461 436.0064 596.6006 440.9358C597.0778 442.9735 597.1195 443.1212 598.2323 444.8168C598.7512 445.6074 599.5626 445.9081 599.864 445.9081C601.1943 445.9081 600.7754 437.3994 601.4957 437.3994C602.4071 437.3994 602.1746 448.2383 603.1275 448.2383C603.8064 448.2383 603.7658 440.6013 604.7592 440.6013C605.3976 440.6013 605.161 444.8594 606.3909 445.347C606.7927 445.5062 607.7981 445.5062 608.0226 445.5062C609.4298 445.5062 608.6586 435.3631 609.6544 435.3631C610.2903 435.3631 610.4412 438.548 611.2861 441.7175C612.0729 444.6688 611.7302 447.6047 612.9178 447.6047C613.3619 447.6047 613.7521 446.0063 614.5496 446.0063C615.3838 446.0063 615.9357 447.7522 616.1813 447.7522C617.5675 447.7522 616.9331 434.3596 617.813 434.3596C618.5648 434.3596 618.0253 445.7694 619.4448 445.7694C619.657 445.7694 620.4254 445.2159 621.0765 445.2159C622.0571 445.2159 622.5204 447.2339 622.7082 447.2339C624.1522 447.2339 623.4304 427.343 624.34 427.343C625.0622 427.343 624.7253 443.1067 625.9717 443.1067C626.357 443.1067 626.9212 438.4865 627.6034 438.4865C628.5529 438.4865 628.4971 445.1082 629.2351 445.1082C630.1289 445.1082 630.0577 437.0112 630.8669 437.0112C631.6894 437.0112 631.3656 441.2363 632.4986 445.2467C632.9973 447.0121 633.3198 448.5628 634.1303 448.5628C634.9515 448.5628 634.9038 445.1929 635.762 445.1929C636.5355 445.1929 636.5646 448.147 637.3937 448.147C638.1963 448.147 638.0977 446.6521 639.0255 445.3172C639.7295 444.3043 639.729 444.2468 640.6572 443.4515C641.3607 442.8487 642.0148 443.3684 642.2889 442.5209C643.6466 438.3232 642.8801 433.3611 643.9207 433.3611C644.5119 433.3611 644.5964 438.3897 645.5524 438.3897C646.2282 438.3897 647.1841 435.0279 647.1841 435.0279" fill="transparent" stroke="rgb(84,112,198)" stroke-width="2" stroke-linejoin="bevel" class="zr0-cls-18"></path>
</g>
<path d="M1 0A1 1 0 1 1 1 -0.0001" transform="matrix(2,0,0,2,72.8159,110.8743)" fill="#fff" stroke="#5470c6" class="zr0-cls-19"></path>
<path d="M1 0A1 1 0 1 1 1 -0.0001" transform="matrix(2,0,0,2,102.187,210.9325)" fill="#fff" stroke="#5470c6" class="zr0-cls-19"></path>
<path d="M1 0A1 1 0 1 1 1 -0.0001" transform="matrix(2,0,0,2,131.5581,297.0143)" fill="#fff" stroke="#5470c6" class="zr0-cls-19"></path>
<path d="M1 0A1 1 0 1 1 1 -0.0001" transform="matrix(2,0,0,2,160.9292,415.3573)" fill="#fff" stroke="#5470c6" class="zr0-cls-19"></path>
<path d="M1 0A1 1 0 1 1 1 -0.0001" transform="matrix(2,0,0,2,190.3003,396.8649)" fill="#fff" stroke="#5470c6" class="zr0-cls-19"></path>
<path d="M1 0A1 1 0 1 1 1 -0.0001" transform="matrix(2,0,0,2,219.6714,426.1845)" fill="#fff" stroke="#5470c6" class="zr0-cls-19"></path>
<path d="M1 0A1 1 0 1 1 1 -0.0001" transform="matrix(2,0,0,2,249.0425,431.9129)" fill="#fff" stroke="#5470c6" class="zr0-cls-19"></path>
<path d="M1 0A1 1 0 1 1 1 -0.0001" transform="matrix(2,0,0,2,278.4136,428.2073)" fill="#fff" stroke="#5470c6" class="zr0-cls-19"></path>
<path d="M1 0A1 1 0 1 1 1 -0.0001" transform="matrix(2,0,0,2,307.7847,430.8954)" fill="#fff" stroke="#5470c6" class="zr0-cls-19"></path>
<path d="M1 0A1 1 0 1 1 1 -0.0001" transform="matrix(2,0,0,2,337.1558,426.4153)" fill="#fff" stroke="#5470c6" class="zr0-cls-19"></path>
<path d="M1 0A1 1 0 1 1 1 -0.0001" transform="matrix(2,0,0,2,366.5269,432.2889)" fill="#fff" stroke="#5470c6" class="zr0-cls-19"></path>
<path d="M1 0A1 1 0 1 1 1 -0.0001" transform="matrix(2,0,0,2,395.898,435.373)" fill="#fff" stroke="#5470c6" class="zr0-cls-19"></path>
<path d="M1 0A1 1 0 1 1 1 -0.0001" transform="matrix(2,0,0,2,425.2691,441.7169)" fill="#fff" stroke="#5470c6" class="zr0-cls-19"></path>
<path d="M1 0A1 1 0 1 1 1 -0.0001" transform="matrix(2,0,0,2,454.6402,445.3203)" fill="#fff" stroke="#5470c6" class="zr0-cls-19"></path>
<path d="M1 0A1 1 0 1 1 1 -0.0001" transform="matrix(2,0,0,2,484.0113,442.8739)" fill="#fff" stroke="#5470c6" class="zr0-cls-19"></path>
<path d="M1 0A1 1 0 1 1 1 -0.0001" transform="matrix(2,0,0,2,513.3824,443.1438)" fill="#fff" stroke="#5470c6" class="zr0-cls-19"></path>
<path d="M1 0A1 1 0 1 1 1 -0.0001" transform="matrix(2,0,0,2,542.7535,446.4688)" fill="#fff" stroke="#5470c6" class="zr0-cls-19"></path>
<path d="M1 0A1 1 0 1 1 1 -0.0001" transform="matrix(2,0,0,2,572.1246,430.7606)" fill="#fff" stroke="#5470c6" class="zr0-cls-19"></path>
<path d="M1 0A1 1 0 1 1 1 -0.0001" transform="matrix(2,0,0,2,601.4957,437.3994)" fill="#fff" stroke="#5470c6" class="zr0-cls-19"></path>
<path d="M1 0A1 1 0 1 1 1 -0.0001" transform="matrix(2,0,0,2,630.8669,437.0112)" fill="#fff" stroke="#5470c6" class="zr0-cls-19"></path>
<defs >
<clipPath id="zr0-c0">
<path d="M71 59l578 0l0 392l-578 0Z" fill="#000" class="zr0-cls-17"></path>
</clipPath>
</defs>
<style ><![CDATA[
.zr0-cls-16:hover {
pointer-events:none;
}
.zr0-cls-17:hover {
cursor:pointer;
fill:rgba(0,0,0,1);
}
.zr0-cls-18:hover {
cursor:pointer;
}
.zr0-cls-19:hover {
cursor:pointer;
fill:rgba(255,255,255,1);
}

]]>

</style>
</svg>