<svg width="720" height="520" xmlns="http://www.w3.org/2000/svg" xmlns:xlink="http://www.w3.org/1999/xlink" version="1.1" baseProfile="full" viewBox="0 0 720 520">
<rect width="720" height="520" x="0" y="0" fill="none"></rect>
<path d="M72 450.5L648 450.5" fill="transparent" stroke="#E0E6F1" class="zr0-cls-12"></path>
<path d="M72 394.5L648 394.5" fill="transparent" stroke="#E0E6F1" class="zr0-cls-12"></path>
<path d="M72 338.5L648 338.5" fill="transparent" stroke="#E0E6F1" class="zr0-cls-12"></path>
<path d="M72 283.5L648 283.5" fill="transparent" stroke="#E0E6F1" class="zr0-cls-12"></path>
<path d="M72 227.5L648 227.5" fill="transparent" stroke="#E0E6F1" class="zr0-cls-12"></path>
<path d="M72 171.5L648 171.5" fill="transparent" stroke="#E0E6F1" class="zr0-cls-12"></path>
<path d="M72 115.5L648 115.5" fill="transparent" stroke="#E0E6F1" class="zr0-cls-12"></path>
<path d="M72 60.5L648 60.5" fill="transparent" stroke="#E0E6F1" class="zr0-cls-12"></path>
<path d="M72 450.5L648 450.5" fill="transparent" stroke="#6E7079" stroke-linecap="round" class="zr0-cls-12"></path>
<path d="M72.5 450L72.5 455" fill="transparent" stroke="#6E7079" class="zr0-cls-12"></path>
<path d="M101.5 450L101.5 455" fill="transparent" stroke="#6E7079" class="zr0-cls-12"></path>
<path d="M130.5 450L130.5 455" fill="transparent" stroke="#6E7079" class="zr0-cls-12"></path>
<path d="M160.5 450L160.5 455" fill="transparent" stroke="#6E7079" class="zr0-cls-12"></path>
<path d="M189.5 450L189.5 455" fill="transparent" stroke="#6E7079" class="zr0-cls-12"></path>
<path d="M219.5 450L219.5 455" fill="transparent" stroke="#6E7079" class="zr0-cls-12"></path>
<path d="M248.5 450L248.5 455" fill="transparent" stroke="#6E7079" class="zr0-cls-12"></path>
<path d="M277.5 450L277.5 455" fill="transparent" stroke="#6E7079" class="zr0-cls-12"></path>
<path d="M307.5 450L307.5 455" fill="transparent" stroke="#6E7079" class="zr0-cls-12"></path>
<path d="M336.5 450L336.5 455" fill="transparent" stroke="#6E7079" class="zr0-cls-12"></path>
<path d="M365.5 450L365.5 455" fill="transparent" stroke="#6E7079" class="zr0-cls-12"></path>
<path d="M395.5 450L395.5 455" fill="transparent" stroke="#6E7079" class="zr0-cls-12"></path>
<path d="M424.5 450L424.5 455" fill="transparent" stroke="#6E7079" class="zr0-cls-12"></path>
<path d="M454.5 450L454.5 455" fill="transparent" stroke="#6E7079" class="zr0-cls-12"></path>
<path d="M483.5 450L483.5 455" fill="transparent" stroke="#6E7079" class="zr0-cls-12"></path>
<path d="M512.5 450L512.5 455" fill="transparent" stroke="#6E7079" class="zr0-cls-12"></path>
<path d="M542.5 450L542.5 455" fill="transparent" stroke="#6E7079" class="zr0-cls-12"></path>
<path d="M571.5 450L571.5 455" fill="transparent" stroke="#6E7079" class="zr0-cls-12"></path>
<path d="M600.5 450L600.5 455" fill="transparent" stroke="#6E7079" class="zr0-cls-12"></path>
<path d="M630.5 450L630.5 455" fill="transparent" stroke="#6E7079" class="zr0-cls-12"></path>
<path d="M648.5 450L648.5 455" fill="transparent" stroke="#6E7079" class="zr0-cls-12"></path>
<text dominant-baseline="central" text-anchor="end" style="font-size:12px;font-family:sans-serif;" transform="translate(64 450)" fill="#6E7079">0</text>
<text dominant-baseline="central" text-anchor="end" style="font-size:12px;font-family:sans-serif;" transform="translate(64 394.2857)" fill="#6E7079">0.3</text>
<text dominant-baseline="central" text-anchor="end" style="font-size:12px;font-family:sans-serif;" transform="translate(64 338.5714)" fill="#6E7079">0.6</text>
<text dominant-baseline="central" text-anchor="end" style="font-size:12px;font-family:sans-serif;" transform="translate(64 282.8571)" fill="#6E7079">0.9</text>
<text dominant-baseline="central" text-anchor="end" style="font-size:12px;font-family:sans-serif;" transform="translate(64 227.1429)" fill="#6E7079">1.2</text>
<text dominant-baseline="central" text-anchor="end" style="font-size:12px;font-family:sans-serif;" transform="translate(64 171.4286)" fill="#6E7079">1.5</text>
<text dominant-baseline="central" text-anchor="end" style="font-size:12px;font-family:sans-serif;" transform="translate(64 115.7143)" fill="#6E7079">1.8</text>
<text dominant-baseline="central" text-anchor="end" style="font-size:12px;font-family:sans-serif;" transform="translate(64 60)" fill="#6E7079">2.1</text>
<text dominant-baseline="central" text-anchor="middle" style="font-size:12px;font-family:sans-serif;" y="6" transform="translate(72.8159 458)" fill="#6E7079">0</text>
<text dominant-baseline="central" text-anchor="middle" style="font-size:12px;font-family:sans-serif;" y="6" transform="translate(102.187 458)" fill="#6E7079">18</text>
<text dominant-baseline="central" text-anchor="middle" style="font-size:12px;font-family:sans-serif;" y="6" transform="translate(131.5581 458)" fill="#6E7079">36</text>
<text dominant-baseline="central" text-anchor="middle" style="font-size:12px;font-family:sans-serif;" y="6" transform="translate(160.9292 458)" fill="#6E7079">54</text>
<text dominant-baseline="central" text-anchor="middle" style="font-size:12px;font-family:sans-serif;" y="6" transform="translate(190.3003 458)" fill="#6E7079">72</text>
<text dominant-baseline="central" text-anchor="middle" style="font-size:12px;font-family:sans-serif;" y="6" transform="translate(219.6714 458)" fill="#6E7079">90</text>
<text dominant-baseline="central" text-anchor="middle" style="font-size:12px;font-family:sans-serif;" y="6" transform="translate(249.0425 458)" fill="#6E7079">108</text>
<text dominant-baseline="central" text-anchor="middle" style="font-size:12px;font-family:sans-serif;" y="6" transform="translate(278.4136 458)" fill="#6E7079">126</text>
<text dominant-baseline="central" text-anchor="middle" style="font-size:12px;font-family:sans-serif;" y="6" transform="translate(307.7847 458)" fill="#6E7079">144</text>
<text dominant-baseline="central" text-anchor="middle" style="font-size:12px;font-family:sans-serif;" y="6" transform="translate(337.1558 458)" fill="#6E7079">162</text>
<text dominant-baseline="central" text-anchor="middle" style="font-size:12px;font-family:sans-serif;" y="6" transform="translate(366.5269 458)" fill="#6E7079">180</text>
<text dominant-baseline="central" text-anchor="middle" style="font-size:12px;font-family:sans-serif;" y="6" transform="translate(395.898 458)" fill="#6E7079">198</text>
<text dominant-baseline="central" text-anchor="middle" style="font-size:12px;font-family:sans-serif;" y="6" transform="translate(425.2691 458)" fill="#6E7079">216</text>
<text dominant-baseline="central" text-anchor="middle" style="font-size:12px;font-family:sans-serif;" y="6" transform="translate(454.6402 458)" fill="#6E7079">234</text>
<text dominant-baseline="central" text-anchor="middle" style="font-size:12px;font-family:sans-serif;" y="6" transform="translate(484.0113 458)" fill="#6E7079">252</text>
<text dominant-baseline="central" text-anchor="middle" style="font-size:12px;font-family:sans-serif;" y="6" transform="translate(513.3824 458)" fill="#6E7079">270</text>
<text dominant-baseline="central" text-anchor="middle" style="font-size:12px;font-family:sans-serif;" y="6" transform="translate(542.7535 458)" fill="#6E7079">288</text>
<text dominant-baseline="central" text-anchor="middle" style="font-size:12px;font-family:sans-serif;" y="6" transform="translate(572.1246 458)" fill="#6E7079">306</text>
<text dominant-baseline="central" text-anchor="middle" style="font-size:12px;font-family:sans-serif;" y="6" transform="translate(601.4958 458)" fill="#6E7079">324</text>
<text dominant-baseline="central" text-anchor="middle" style="font-size:12px;font-family:sans-serif;" y="6" transform="translate(630.8669 458)" fill="#6E7079">342</text>
<g clip-path="url(#zr0-c0)">
<path d="M72.8159 111.8499C72.8159 111.8499 73.8283 119.5761 74.4476 127.3356C75.4601 140.0226 75.0178 140.0619 76.0793 152.743C76.6495 159.554 77.0341 159.5172 77.7111 166.3199C78.6659 175.9153 77.8391 183.2657 79.3428 185.5392C79.4709 185.7329 80.3905 185.7329 80.9745 185.7329C82.0223 185.7329 82.1631 183.2773 82.6062 183.2773C83.7949 183.2773 83.8357 187.0893 84.238 191.016C85.4674 203.0176 84.6828 215.1338 85.8697 215.1338C86.3145 215.1338 87.1576 206.222 87.5014 206.222C88.7893 206.222 88.5051 240.1219 89.1331 240.1219C90.1368 240.1219 89.5603 185.9082 90.7649 185.9082C91.192 185.9082 91.6054 195.4886 92.3966 205.073C93.2371 215.254 93.1847 225.4392 94.0283 225.4392C94.8164 225.4392 94.9364 206.4232 95.6601 206.4232C96.5681 206.4232 96.3792 218.3777 97.2918 230.3171C98.0109 239.7253 98.1831 239.7118 98.9235 249.1185C99.8148 260.4426 99.7252 271.7787 100.5552 271.7787C101.3569 271.7787 101.281 249.8975 102.187 249.8975C102.9127 249.8975 102.393 258.9026 103.8187 267.3987C104.0247 268.6262 105.1985 268.1282 105.4504 269.3447C106.8302 276.0082 106.6426 283.1587 107.0822 283.1587C108.2743 283.1587 107.4906 245.4655 108.7139 245.4655C109.1223 245.4655 109.4475 251.7233 110.3456 257.9572C111.0793 263.0498 111.3399 263.0144 111.9773 268.1185C112.9716 276.0799 112.5865 276.1318 113.6091 284.0882C114.2182 288.8283 114.3928 293.5115 115.2408 293.5115C116.0246 293.5115 116.278 284.8239 116.8725 284.8239C117.9097 284.8239 117.7241 292.4879 118.5042 300.1591C119.3558 308.533 119.5767 316.9142 120.136 316.9142C121.2084 316.9142 121.2115 284.6765 121.7677 284.6765C122.8433 284.6765 121.832 347.0767 123.3994 347.0767C123.4637 347.0767 124.8781 346.3547 125.0312 345.1051C126.5098 333.0378 125.8223 332.7723 126.6629 320.4429C127.454 308.8393 127.8521 297.239 128.2946 297.239C129.4838 297.239 128.7022 359.7284 129.9263 359.7284C130.3339 359.7284 130.6096 338.9818 131.5581 338.9818C132.2413 338.9818 132.5203 346.4192 133.1898 353.8838C134.152 364.6123 133.3576 364.8989 134.8215 375.3679C134.9893 376.568 136.2764 377.222 136.4533 377.222C137.9081 377.222 137.4063 367.1049 138.085 356.9688C139.038 342.7349 139.0903 328.4821 139.7167 328.4821C140.722 328.4821 140.1702 351.3856 141.3484 374.2424C141.8019 383.0402 142.2106 391.7914 142.9802 391.7914C143.8423 391.7914 143.8578 372.1145 144.6119 372.1145C145.4895 372.1145 144.8861 383.6929 146.2436 395.0347C146.5179 397.3259 147.7111 399.3805 147.8754 399.3805C149.3428 399.3805 148.5163 357.9507 149.5071 357.9507C150.148 357.9507 150.2941 371.339 151.1388 384.7235C151.9258 397.1931 151.4229 397.2936 152.7705 409.659C153.0547 412.2661 154.0871 414.6684 154.4023 414.6684C155.7189 414.6684 155.3222 392.7174 156.034 392.7174C156.9539 392.7174 156.2788 421.1193 157.6657 421.1193C157.9106 421.1193 158.924 418.8403 159.2975 416.3693C160.5557 408.0437 159.4945 399.526 160.9292 399.526C161.1262 399.526 162.4692 400.0389 162.5609 401.1813C164.1009 420.3639 163.1579 440.1759 164.1926 440.1759C164.7896 440.1759 164.6179 428.8916 165.8244 417.7173C166.2496 413.7783 166.2806 409.9492 167.4561 409.9492C167.9123 409.9492 168.7762 411.0765 169.0878 412.5625C170.408 418.8585 170.1429 425.5133 170.7195 425.5133C171.7746 425.5133 171.6837 401.6846 172.3513 401.6846C173.3154 401.6846 172.942 436.1405 173.983 436.1405C174.5737 436.1405 174.6675 416.6359 175.6147 416.6359C176.2992 416.6359 175.8785 430.6849 177.2465 430.6849C177.5102 430.6849 178.1583 428.5 178.8782 428.5C179.79 428.5 180.0619 431.5443 180.5099 431.5443C181.6936 431.5443 181.5579 422.5656 182.1416 422.5656C183.1897 422.5656 182.4318 438.8687 183.7734 438.8687C184.0636 438.8687 184.7671 437.3687 185.4051 435.7228C186.3988 433.1592 186.1731 433.0704 187.0368 430.4496C187.8048 428.1195 188.1918 425.8212 188.6685 425.8212C189.8235 425.8212 188.8684 435.4163 190.3003 437.5985C190.5002 437.9032 191.8204 437.9032 191.932 437.9032C193.4522 437.9032 192.3142 415.3464 193.5637 415.3464C193.946 415.3464 194.2857 418.7338 195.1955 422.0692C195.9174 424.7161 196.1328 424.6576 196.8272 427.311C197.7646 430.8933 197.356 434.5406 198.4589 434.5406C198.9877 434.5406 199.4808 431.3839 200.0907 431.3839C201.1125 431.3839 201.1216 437.1097 201.7224 437.1097C202.7534 437.1097 202.3556 427.0234 203.3541 427.0234C203.9873 427.0234 204.2473 430.1406 204.9858 433.2944C205.8791 437.1088 205.9856 440.9598 206.6176 440.9598C207.6173 440.9598 207.081 428.6694 208.2493 428.6694C208.7127 428.6694 209.4786 430.8952 209.881 433.3089C211.1104 440.6834 210.6939 448.2458 211.5127 448.2458C212.3256 448.2458 212.0642 433.42 213.1445 433.42C213.6959 433.42 213.9678 440.8575 214.7762 440.8575C215.5995 440.8575 215.7816 433.2758 216.4079 433.2758C217.4133 433.2758 217.336 445.6173 218.0397 445.6173C218.9677 445.6173 218.4296 429.2797 219.6714 429.2797C220.0613 429.2797 220.5986 431.6928 221.3031 434.1706C222.2303 437.4314 222.4684 440.7568 222.9348 440.7568C224.1002 440.7568 223.813 423.8824 224.5666 423.8824C225.4447 423.8824 224.7095 434.1478 226.1983 443.57C226.3412 444.4743 227.5416 444.5354 227.83 444.5354C229.1733 444.5354 228.6765 440.2019 229.4618 435.8574C230.3083 431.1738 230.553 426.479 231.0935 426.479C232.1847 426.479 232.1169 445.6277 232.7252 445.6277C233.7486 445.6277 233.4579 413.3369 234.3569 413.3369C235.0897 413.3369 234.7031 439.6386 235.9887 439.6386C236.3348 439.6386 237.0634 432.7326 237.6204 432.7326C238.6952 432.7326 238.4498 446.329 239.2521 446.329C240.0815 446.329 240.0137 432.2667 240.8839 432.2667C241.6454 432.2667 241.8346 444.5485 242.5156 444.5485C243.4664 444.5485 243.2725 427.3267 244.1473 427.3267C244.9042 427.3267 244.7742 442.2036 245.779 442.2036C246.4059 442.2036 246.6055 433.01 247.4108 433.01C248.2372 433.01 247.8048 437.8941 249.0425 442.4531C249.4365 443.9044 250.426 445.0306 250.6742 445.0306C252.0577 445.0306 251.4496 428.1048 252.306 428.1048C253.0813 428.1048 252.6874 443.4128 253.9377 443.4128C254.3191 443.4128 254.4906 441.0495 255.5694 439.0084C256.1224 437.9621 256.7894 437.238 257.2011 437.238C258.4211 437.238 258.391 444.1825 258.8329 444.1825C260.0227 444.1825 259.7255 425.0428 260.4646 425.0428C261.3572 425.0428 260.9709 448.1828 262.0963 448.1828C262.6027 448.1828 262.3773 437.8739 263.7281 437.8739C264.0091 437.8739 264.5302 439.3066 265.3598 439.3066C266.1619 439.3066 266.1911 437.9854 266.9915 437.9854C267.8229 437.9854 267.6911 439.2647 268.6232 439.4322C269.3228 439.5579 270.0047 439.5579 270.2549 439.5579C271.6365 439.5579 271.1156 430.6702 271.8867 430.6702C272.7474 430.6702 272.1766 440.6239 273.5184 440.6239C273.8083 440.6239 274.3355 439.9028 275.1501 439.179C275.9672 438.4531 276.4377 437.7245 276.7819 437.7245C278.0694 437.7245 277.6977 445.7384 278.4136 445.7384C279.3294 445.7384 278.9553 435.4048 280.0453 435.4048C280.587 435.4048 281.0014 437.8338 281.6771 440.3408C282.6331 443.8881 282.9326 447.5135 283.3088 447.5135C284.5643 447.5135 283.8908 423.0151 284.9405 423.0151C285.5226 423.0151 285.4049 436.5308 286.5722 436.5308C287.0366 436.5308 287.5131 431.3664 288.204 431.3664C289.1448 431.3664 289.3348 438.5586 289.8357 438.5586C290.9665 438.5586 290.6844 421.9882 291.4674 421.9882C292.3162 421.9882 291.7725 431.1048 293.0992 439.9636C293.4043 442.001 293.5609 443.405 294.7309 443.7806C295.1926 443.9288 295.7938 443.9288 296.3626 443.9288C297.4255 443.9288 297.1426 441.3381 297.9943 441.3381C298.7743 441.3381 299.1474 443.6182 299.6261 443.6182C300.7791 443.6182 300.3643 437.0645 301.2578 437.0645C301.9961 437.0645 302.0041 442.4013 302.8895 442.4013C303.6359 442.4013 303.4226 440.012 304.5212 437.9893C305.0543 437.0078 305.8363 436.3931 306.153 436.3931C307.468 436.3931 306.4029 442.8149 307.7847 445.7306C308.0347 446.2581 309.223 446.2581 309.4164 446.2581C310.8547 446.2581 310.1838 433.6161 311.0482 433.6161C311.8155 433.6161 311.2998 439.5447 312.6799 444.8147C312.9316 445.7756 314.0932 446.078 314.3116 446.078C315.7249 446.078 315.0419 432.8263 315.9433 432.8263C316.6736 432.8263 316.431 438.2589 317.5751 443.5193C318.0627 445.7614 318.8441 447.8313 319.2068 447.8313C320.4758 447.8313 319.7868 431.7838 320.8385 431.7838C321.4185 431.7838 321.5965 440.5272 322.4702 440.5272C323.2283 440.5272 323.3723 432.9851 324.102 432.9851C325.004 432.9851 324.6216 442.3839 325.7337 442.3839C326.2534 442.3839 326.5621 440.3146 327.3654 438.2357C328.1939 436.0917 328.5758 433.9379 328.9972 433.9379C330.2075 433.9379 329.1768 446.5651 330.6289 447.0399C330.8085 447.0986 331.6859 447.0986 332.2606 447.0986C333.3177 447.0986 333.2528 445.9267 333.8924 444.5774C334.8846 442.4841 334.8703 440.2133 335.5241 440.2133C336.502 440.2133 336.0159 446.9885 337.1558 446.9885C337.6476 446.9885 338.3677 445.8848 338.7875 444.4633C339.9995 440.3597 339.6647 435.9384 340.4193 435.9384C341.2964 435.9384 340.7948 441.086 342.051 445.8949C342.4265 447.3324 342.8114 448.4313 343.6827 448.4313C344.4431 448.4313 344.6839 447.5084 345.3145 446.366C346.3156 444.5522 346.3268 442.5188 346.9462 442.5188C347.9586 442.5188 348.2117 449.1522 348.5779 449.1522C349.8434 449.1522 349.2599 425.6024 350.2096 425.6024C350.8916 425.6024 350.4332 434.2715 351.8414 442.4759C352.0649 443.7785 352.5162 444.6164 353.4731 444.6164C354.1479 444.6164 354.2599 443.6465 355.1048 443.6465C355.8916 443.6465 356.1371 443.7293 356.7365 444.3262C357.7688 445.3539 357.3557 445.8207 358.3683 446.8957C358.9874 447.5529 359.7887 447.7906 360 447.7906C361.4204 447.7906 360.1989 439.6724 361.6317 435.39C361.8307 434.7953 362.4278 434.7953 363.2635 434.7953C364.0595 434.7953 364.5179 434.7953 364.8952 435.0674C366.1496 435.9719 366.038 440.3197 366.5269 440.3197C367.6698 440.3197 367.3441 427.5669 368.1586 427.5669C368.9759 427.5669 368.585 434.0632 369.7904 440.3636C370.2167 442.5921 370.552 444.6247 371.4221 444.6247C372.1837 444.6247 372.0006 440.979 373.0538 440.979C373.6323 440.979 374.2601 441.4716 374.6855 442.4452C375.8918 445.2052 375.0362 448.4461 376.3173 448.4461C376.668 448.4461 377.1174 447.9611 377.949 447.9611C378.7492 447.9611 379.3855 448.1038 379.5807 448.1038C381.0173 448.1038 379.9587 436.1621 381.2125 436.1621C381.5905 436.1621 382.1011 437.7526 382.8442 439.409C383.7328 441.3896 383.9892 443.4362 384.4759 443.4362C385.6209 443.4362 384.7098 433.3446 386.1076 433.3446C386.3415 433.3446 387.5565 433.3446 387.7394 433.8572C389.1882 437.9182 388.1768 447.3084 389.3711 447.3084C389.8085 447.3084 389.9713 444.856 391.0028 442.6214C391.6031 441.3212 392.2255 440.2387 392.6346 440.2387C393.8572 440.2387 392.8941 448.4222 394.2663 448.7156C394.5258 448.7711 395.7405 448.7711 395.898 448.7711C397.3722 448.7711 396.5538 433.5789 397.5298 433.5789C398.1855 433.5789 397.7589 441.3436 399.1615 443.7146C399.3906 444.102 399.9664 444.0394 400.7932 444.102C401.5982 444.1628 402.2152 444.1628 402.4249 444.1628C403.8469 444.1628 403.0334 433.2149 404.0567 433.2149C404.6651 433.2149 404.7875 436.4276 405.6884 439.5912C406.4192 442.1577 406.5755 444.6752 407.3201 444.6752C408.2072 444.6752 407.8321 438.5269 408.9518 438.5269C409.4638 438.5269 409.5479 440.2868 410.5836 440.9345C411.1796 441.3072 411.627 440.9345 412.2153 441.3072C413.2587 441.9683 413.4433 443.7873 413.847 443.7873C415.075 443.7873 414.1762 434.9054 415.4788 434.9054C415.8079 434.9054 416.5653 435.5252 417.1105 436.501C418.1971 438.4461 417.5444 440.7473 418.7422 440.7473C419.1761 440.7473 419.7233 440.7473 420.3739 440.5179C421.355 440.1721 421.406 438.6441 422.0057 438.6441C423.0377 438.6441 422.9155 440.5859 423.6374 442.5963C424.5472 445.1299 424.6895 447.732 425.2691 447.732C426.3213 447.732 425.9207 438.0871 426.9008 438.0871C427.5524 438.0871 427.2308 444.381 428.5326 444.381C428.8626 444.381 429.5566 444.1485 430.1643 444.1485C431.1884 444.1485 431.1155 446.3963 431.796 446.3963C432.7473 446.3963 433.034 444.7578 433.4278 442.873C434.6658 436.9467 434.2802 430.7742 435.0595 430.7742C435.9119 430.7742 435.2726 444.0294 436.6912 444.0294C436.9043 444.0294 437.4359 443.2928 438.3229 442.8626C439.0676 442.5015 439.5542 442.4467 439.9547 442.4467C441.1859 442.4467 440.3639 445.6174 441.5864 447.3597C441.9956 447.943 442.7576 447.943 443.2181 447.943C444.3894 447.943 444.2325 445.958 444.8499 443.8489C445.8642 440.3836 445.8758 436.794 446.4816 436.794C447.5076 436.794 447.3555 448.949 448.1133 448.949C448.9872 448.949 448.7848 434.9012 449.7451 434.9012C450.4165 434.9012 450.2426 439.8675 451.3768 444.6536C451.8743 446.7531 452.1085 448.6723 453.0085 448.6723C453.7402 448.6723 453.5538 446.8152 454.6402 445.5459C455.1855 444.9087 455.968 445.5459 456.2719 444.8595C457.5997 441.8611 457.158 437.3009 457.9037 437.3009C458.7897 437.3009 458.7325 446.3431 459.5354 446.3431C460.3643 446.3431 460.4404 436.999 461.1671 436.999C462.0721 436.999 461.5488 448.6962 462.7989 448.6962C463.1806 448.6962 463.3105 445.9767 464.4306 445.4799C464.9422 445.253 465.7225 445.4799 466.0623 445.253C467.3542 444.3904 466.8512 439.2073 467.6941 439.2073C468.4829 439.2073 468.2335 442.152 469.3258 444.8361C469.8652 446.1616 469.9801 446.1976 470.9575 447.2264C471.6119 447.9151 472.2759 448.2712 472.5892 448.2712C473.9077 448.2712 473.3262 440.2824 474.221 440.2824C474.9579 440.2824 474.8179 446.796 475.8527 446.796C476.4496 446.796 476.7394 443.2829 477.4844 443.2829C478.3712 443.2829 478.4478 447.5952 479.1161 447.5952C480.0795 447.5952 479.892 444.3632 480.7479 441.1526C481.5237 438.2423 481.6729 435.3534 482.3796 435.3534C483.3046 435.3534 482.9804 439.2741 484.0113 443.0685C484.6122 445.2799 484.5007 445.4754 485.6431 447.365C486.1324 448.1745 487.157 448.4666 487.2748 448.4666C488.7887 448.4666 488.0678 423.209 488.9065 423.209C489.6995 423.209 489.1648 447.0844 490.5382 447.0844C490.7966 447.0844 491.427 442.8895 492.17 442.8895C493.0588 442.8895 493.0102 448.021 493.8017 448.021C494.6419 448.021 494.619 445.2822 495.4334 442.5426C496.2507 439.7937 496.0533 437.044 497.0652 437.044C497.685 437.044 497.9265 438.5776 498.6969 440.1559C499.5583 441.9208 499.4349 441.9834 500.3286 443.7303C501.0667 445.173 500.894 445.5057 501.9603 446.5352C502.5257 447.0811 503.1973 447.0811 503.5921 447.0811C504.829 447.0811 504.3624 444.4962 505.2238 441.9422C505.9941 439.6581 505.721 437.4048 506.8555 437.4048C507.3528 437.4048 507.9995 437.8477 508.4872 438.748C509.6312 440.8594 509.1787 441.1407 510.119 443.4282C510.8104 445.1101 511.3013 446.6868 511.7507 446.6868C512.9331 446.6868 512.573 437.2375 513.3824 437.2375C514.2048 437.2375 513.6194 445.2055 515.0142 446.8418C515.2511 447.1198 515.855 446.8928 516.6459 447.1198C517.4867 447.3611 517.6788 447.7784 518.2776 447.7784C519.3106 447.7784 519.0367 445.219 519.9094 445.219C520.6684 445.219 520.6834 446.2927 521.5411 447.2945C522.3151 448.1986 522.7513 449.0307 523.1728 449.0307C524.383 449.0307 523.8055 442.3863 524.8045 442.3863C525.4373 442.3863 525.3827 444.5465 526.4363 446.4012C527.0144 447.4189 527.4122 448.131 528.068 448.131C529.0439 448.131 529.2548 446.6868 529.6997 444.9913C530.8865 440.469 530.5683 435.6955 531.3314 435.6955C532.2001 435.6955 532.3287 446.3144 532.9632 446.3144C533.9605 446.3144 533.83 429.5054 534.5949 429.5054C535.4617 429.5054 534.7911 448.5748 536.2266 448.5748C536.4228 448.5748 537.1534 446.5313 537.8583 446.5313C538.7852 446.5313 538.6184 449.5579 539.4901 449.5579C540.2502 449.5579 540.8767 448.4996 541.1218 447.0428C542.5084 438.8027 541.8535 430.1642 542.7535 430.1642C543.4853 430.1642 543.233 437.0785 544.3853 443.8539C544.8647 446.6732 544.7479 449.3536 546.017 449.3536C546.3796 449.3536 547.5317 449.3536 547.6487 449.198C549.1634 447.1845 548.2397 428.0471 549.2805 428.0471C549.8714 428.0471 549.9452 434.0395 550.9122 439.981C551.577 444.0659 551.7821 448.0999 552.5439 448.0999C553.4139 448.0999 553.3566 438.7838 554.1757 438.7838C554.9883 438.7838 554.9339 448.0248 555.8074 448.0248C556.5656 448.0248 556.1196 443.6856 557.4391 440.0438C557.7513 439.1821 558.8204 439.0179 559.0708 439.0179C560.4521 439.0179 559.3281 449.5237 560.7026 449.5237C560.9598 449.5237 561.4574 448.3846 562.3343 448.3846C563.0892 448.3846 563.866 448.9064 563.966 448.9064C565.4977 448.9064 564.7875 422.715 565.5977 422.715C566.4193 422.715 565.7733 449.2741 567.2295 449.2741C567.405 449.2741 568.281 447.9953 568.8612 446.5122C569.9127 443.8242 569.7595 440.9318 570.4929 440.9318C571.3912 440.9318 571.5738 447.8631 572.1246 447.8631C573.2055 447.8631 572.8169 433.9871 573.7563 433.9871C574.4486 433.9871 574.0077 439.4627 575.3881 444.1528C575.6394 445.0065 576.5604 444.3121 577.0198 445.0748C578.1921 447.0209 577.8705 449.5703 578.6516 449.5703C579.5022 449.5703 579.6508 447.1457 580.2833 444.6238C581.2826 440.6389 580.6615 440.3744 581.915 436.5568C582.2933 435.4049 583.3038 434.6848 583.5468 434.6848C584.9355 434.6848 583.9119 448.7875 585.1785 448.7875C585.5437 448.7875 585.6447 445.3795 586.8102 445.0332C587.2764 444.8947 587.6928 444.8947 588.442 444.8947C589.3246 444.8947 589.508 445.1826 590.0737 445.9243C591.1397 447.3221 590.6758 449.1738 591.7054 449.1738C592.3075 449.1738 592.9351 448.7536 593.3371 447.8098C594.5668 444.9232 594.2022 441.513 594.9688 441.513C595.8339 441.513 595.3702 448.6702 596.6006 448.6702C597.0019 448.6702 597.5763 447.9063 598.2323 446.9176C599.208 445.4473 598.9784 445.2945 599.864 443.7522C600.6101 442.4528 601.0627 441.2343 601.4957 441.2343C602.6944 441.2343 601.886 449.3777 603.1275 449.3777C603.5178 449.3777 604.2607 448.5224 604.7592 447.3393C605.8924 444.6501 605.3998 441.6331 606.3909 441.6331C607.0316 441.6331 606.9527 445.1051 608.0226 445.1051C608.5845 445.1051 608.8494 444.5289 609.6544 443.9239C610.4811 443.3026 610.4924 442.6524 611.2861 442.6524C612.1242 442.6524 612.0446 443.4569 612.9178 444.1043C613.6763 444.6665 614.3756 445.0716 614.5496 445.0716C616.0074 445.0716 615.3666 429.2555 616.1813 429.2555C616.9984 429.2555 616.5701 437.2822 617.813 445.1198C618.2018 447.5714 618.2806 449.8339 619.4448 449.8339C619.9123 449.8339 620.9408 449.6358 621.0765 448.6716C622.5725 438.042 621.8673 426.6465 622.7082 426.6465C623.499 426.6465 622.8294 443.1528 624.34 447.352C624.4611 447.6889 625.2933 447.6889 625.9717 447.6889C626.925 447.6889 626.656 446.6258 627.6034 446.01C628.2878 445.5651 628.9315 446.01 629.2351 445.5651C630.5633 443.6189 630.1437 438.348 630.8669 438.348C631.7755 438.348 631.1973 447.5006 632.4986 447.5006C632.829 447.5006 633.5074 446.7802 634.1303 445.7946C635.1391 444.1987 635.2446 444.1651 635.762 442.3376C636.8763 438.4017 636.746 434.2678 637.3937 434.2678C638.3777 434.2678 637.5958 441.8629 639.0255 446.6673C639.2275 447.3462 640.004 446.793 640.6572 447.3462C641.6357 448.1748 641.8213 449.4308 642.2889 449.4308C643.453 449.4308 642.8658 443.0463 643.9207 443.0463C644.4975 443.0463 644.9344 446.2591 645.5524 446.2591C646.5662 446.2591 647.1841 440.5781 647.1841 440.5781" fill="transparent" stroke="#5470c6" stroke-width="2" stroke-linejoin="bevel" class="zr0-cls-14"></path>
</g>
<path d="M1 0A1 1 0 1 1 1 -0.0001" transform="matrix(2,0,0,2,72.8159,111.8499)" fill="#fff" stroke="#5470c6" class="zr0-cls-15"></path>
<path d="M1 0A1 1 0 1 1 1 -0.0001" transform="matrix(2,0,0,2,102.187,249.8975)" fill="#fff" stroke="#5470c6" class="zr0-cls-15"></path>
<path d="M1 0A1 1 0 1 1 1 -0.0001" transform="matrix(2,0,0,2,131.5581,338.9818)" fill="#fff" stroke="#5470c6" class="zr0-cls-15"></path>
<path d="M1 0A1 1 0 1 1 1 -0.0001" transform="matrix(2,0,0,2,160.9292,399.526)" fill="#fff" stroke="#5470c6" class="zr0-cls-15"></path>
<path d="M1 0A1 1 0 1 1 1 -0.0001" transform="matrix(2,0,0,2,190.3003,437.5985)" fill="#fff" stroke="#5470c6" class="zr0-cls-15"></path>
<path d="M1 0A1 1 0 1 1 1 -0.0001" transform="matrix(2,0,0,2,219.6714,429.2797)" fill="#fff" stroke="#5470c6" class="zr0-cls-15"></path>
<path d="M1 0A1 1 0 1 1 1 -0.0001" transform="matrix(2,0,0,2,249.0425,442.4531)" fill="#fff" stroke="#5470c6" class="zr0-cls-15"></path>
<path d="M1 0A1 1 0 1 1 1 -0.0001" transform="matrix(2,0,0,2,278.4136,445.7384)" fill="#fff" stroke="#5470c6" class="zr0-cls-15"></path>
<path d="M1 0A1 1 0 1 1 1 -0.0001" transform="matrix(2,0,0,2,307.7847,445.7306)" fill="#fff" stroke="#5470c6" class="zr0-cls-15"></path>
<path d="M1 0A1 1 0 1 1 1 -0.0001" transform="matrix(2,0,0,2,337.1558,446.9885)" fill="#fff" stroke="#5470c6" class="zr0-cls-15"></path>
<path d="M1 0A1 1 0 1 1 1 -0.0001" transform="matrix(2,0,0,2,366.5269,440.3197)" fill="#fff" stroke="#5470c6" class="zr0-cls-15"></path>
<path d="M1 0A1 1 0 1 1 1 -0.0001" transform="matrix(2,0,0,2,395.898,448.7711)" fill="#fff" stroke="#5470c6" class="zr0-cls-15"></path>
<path d="M1 0A1 1 0 1 1 1 -0.0001" transform="matrix(2,0,0,2,425.2691,447.732)" fill="#fff" stroke="#5470c6" class="zr0-cls-15"></path>
<path d="M1 0A1 1 0 1 1 1 -0.0001" transform="matrix(2,0,0,2,454.6402,445.5459)" fill="#fff" stroke="#5470c6" class="zr0-cls-15"></path>
<path d="M1 0A1 1 0 1 1 1 -0.0001" transform="matrix(2,0,0,2,484.0113,443.0685)" fill="#fff" stroke="#5470c6" class="zr0-cls-15"></path>
<path d="M1 0A1 1 0 1 1 1 -0.0001" transform="matrix(2,0,0,2,513.3824,437.2375)" fill="#fff" stroke="#5470c6" class="zr0-cls-15"></path>
<path d="M1 0A1 1 0 1 1 1 -0.0001" transform="matrix(2,0,0,2,542.7535,430.1642)" fill="#fff" stroke="#5470c6" class="zr0-cls-15"></path>
<path d="M1 0A1 1 0 1 1 1 -0.0001" transform="matrix(2,0,0,2,572.1246,447.8631)" fill="#fff" stroke="#5470c6" class="zr0-cls-15"></path>
<path d="M1 0A1 1 0 1 1 1 -0.0001" transform="matrix(2,0,0,2,601.4957,441.2343)" fill="#fff" stroke="#5470c6" class="zr0-cls-15"></path>
<path d="M1 0A1 1 0 1 1 1 -0.0001" transform="matrix(2,0,0,2,630.8669,438.348)" fill="#fff" stroke="#5470c6" class="zr0-cls-15"></path>
<defs >
<clipPath id="zr0-c0">
<path d="M71 59l578 0l0 392l-578 0Z" fill="#000" class="zr0-cls-13"></path>
</clipPath>
</defs>
<style ><![CDATA[
.zr0-cls-12:hover {
pointer-events:none;
}
.zr0-cls-13:hover {
cursor:pointer;
fill:rgba(0,0,0,1);
}
.zr0-cls-14:hover {
cursor:pointer;
}
.zr0-cls-15:hover {
cursor:pointer;
fill:rgba(255,255,255,1);
}

]]>

</style>
</svg>